<?xml version="1.0" standalone="no"?><!DOCTYPE svg PUBLIC "-//W3C//DTD SVG 1.1//EN" "http://www.w3.org/Graphics/SVG/1.1/DTD/svg11.dtd"><svg t="1535393950688" class="icon" style="" viewBox="0 0 1024 1024" version="1.1" xmlns="http://www.w3.org/2000/svg" p-id="1873" xmlns:xlink="http://www.w3.org/1999/xlink" width="200" height="200"><defs><style type="text/css"></style></defs><path d="M612.373669 412.024508l-28.47733 2.192927a3384.411746 3384.411746 0 0 1-55.033487 55.742407l12.290316 12.290315a3409.462628 3409.462628 0 0 1 71.220501-70.225649zM894.538147 59.005804c-10.728328 10.725965-40.476989 46.257053-74.921066 87.398064-43.022013 51.387273-96.566767 115.338978-148.273054 173.564969a2865.335539 2865.335539 0 0 1-40.401371 44.510746 23.67794 23.67794 0 0 1 16.248455 14.679377 2854.193675 2854.193675 0 0 1 43.553703-39.708992c58.549732-52.242704 122.782642-106.248256 174.392043-149.643633 40.495893-34.049444 75.466934-63.453097 86.107829-74.093992 15.634057-15.634057 15.634057-41.072482 0-56.708902-15.63642-15.631694-41.072482-15.631694-56.706539 0.002363z" fill="#F19C7D" p-id="1874"></path><path d="M244.618875 217.858313a89.321601 89.321601 0 0 0 5.210564-45.964033l-159.100631 69.568717c9.721661 12.120175 22.46096 21.555905 37.308115 27.364326 22.364074 8.745714 46.807648 8.263648 68.819624-1.361127 22.052149-9.641317 39.01425-27.257987 47.762328-49.607883z" fill="#FFD5A1" p-id="1875"></path><path d="M349.598163 506.154952c-8.159673-29.389475-15.241788-53.126491-22.097047-72.196449l-93.348269 7.188453c-0.616761 0.047261-1.231158 0.070892-1.838467 0.070892-12.228876 0-22.581476-9.421551-23.536155-21.818206-1.001941-13.011051 8.733899-24.372682 21.747313-25.374622l75.008499-5.775338c-12.167436-16.794323-26.16625-23.176969-45.895503-23.176969-12.035104 0-26.187518 2.308717-43.263046 7.053757-53.178479 14.757359-63.663411 33.82259-67.078044 52.228526-5.361801 28.907409 5.789516 72.654884 22.127767 131.303864 29.862088 107.602294 57.810091 129.214912 93.22539 129.214912 10.659799 0 22.765796-1.935353 37.008005-5.914759 23.526703-6.574055 41.12447-14.59667 52.077289-28.737268 0.666385-1.091737 1.389484-2.129124 2.200016-3.074351 16.042868-24.060757 14.92041-64.653536-6.337748-140.992442z" fill="#B3E697" p-id="1876"></path><path d="M660.135996 99.248849c14.332006 0 25.993746-11.66174 25.993747-25.993746s-11.66174-25.993746-25.993747-25.993746-25.993746 11.66174-25.993746 25.993746 11.66174 25.993746 25.993746 25.993746z" fill="#FFD5A1" p-id="1877"></path><path d="M71.807724 198.155053L230.877635 128.598152c-17.172414-21.30542-43.199243-33.505939-70.176025-33.505939a89.472837 89.472837 0 0 0-35.918631 7.53346c-37.957959 16.602915-58.731688 56.396977-52.975255 95.52938z" fill="#B3E697" p-id="1878"></path><path d="M984.663191 25.587299c-34.058897-34.058897-89.48229-34.058897-123.545912 0-12.202882 12.205245-39.69245 45.03771-77.740206 90.479504-42.825878 51.150966-96.124873 114.809651-147.375088 172.522856-25.686547 28.926313-51.065896 56.184301-73.706449 79.890598l-204.473897 15.745121c-20.294027-40.058726-48.86588-66.411658-98.187831-66.411659-16.373697 0-34.666205 2.871127-55.910185 8.778797-38.18245 10.595996-90.184121 31.364999-100.898271 89.149097-7.212083 38.893733 5.012067 87.783244 23.065905 152.580927 27.288707 98.327253 61.326336 163.814951 138.759344 163.814952 0.975947 0 1.975525-0.040172 2.963287-0.06144 18.068017 44.659619-2.263819 84.160661-27.163465 105.643311-31.11924 26.844451-88.267673 41.927913-146.91429-3.896699a23.625952 23.625952 0 0 0-34.62367 6.153428L17.350826 906.898173c-6.88598 11.087514-3.480799 25.655827 7.609078 32.541808a23.618863 23.618863 0 0 0 32.541807-7.609079l28.536407-45.949854c69.660877 41.445847 141.618655 25.291915 185.285786-12.380112 44.82976-38.673968 60.652862-95.784592 43.629322-149.192288 27.191822-7.665792 47.854487-18.233431 63.086822-31.556408 46.625691 31.131056 140.413491 117.236521 147.935135 308.545767a23.630678 23.630678 0 0 0 23.611774 22.701993h70.892035c13.048861 0 23.630678-10.579455 23.630678-23.630678s-10.581818-23.630678-23.630678-23.630679h-48.575222c-14.641568-194.868026-114.289776-287.167092-166.634092-322.587116 15.882179-40.453358 8.268374-94.558159-10.137561-160.653167-6.13925-22.111226-12.089455-43.492263-18.708408-63.304224l135.892942-10.463664a2980.520918 2980.520918 0 0 1-16.874667 16.810864l-0.18432-0.184319c-9.225417-9.22778-24.183636-9.22778-33.420868-0.002363-9.22778 9.22778-9.22778 24.190725 0 33.418505l79.5385 79.540864a23.55506 23.55506 0 0 0 16.709253 6.921425 23.564512 23.564512 0 0 0 16.709253-6.921425c9.22778-9.22778 9.22778-24.190725 0-33.418506l-0.226855-0.226854c26.499443-26.953152 82.884604-83.170535 147.639752-140.95227 58.03222-51.781905 121.96502-105.539336 173.340478-148.73149 44.721059-37.601135 77.031285-64.766963 89.113651-76.846966 34.063623-34.065986 34.063623-89.489379 0.002363-123.550638zM353.735895 650.219382c-10.952819 14.142961-28.550586 22.163213-52.077289 28.737268-14.24221 3.979406-26.348206 5.914759-37.008005 5.914759-35.415298 0-63.363301-21.612618-93.22539-129.214912-16.338251-58.648981-27.489568-102.396455-22.127767-131.303865 3.41227-18.405935 13.899565-37.471167 67.078044-52.228525 17.075528-4.747403 31.227941-7.053757 43.263046-7.053757 19.729253 0 33.73043 6.385009 45.895503 23.176969l-75.008499 5.775338c-13.013415 1.001941-22.749254 12.363571-21.747313 25.374622 0.954679 12.396654 11.30728 21.818205 23.536155 21.818206 0.609672 0 1.224069-0.023631 1.838467-0.070892l93.348269-7.188453c6.85526 19.069957 13.939737 42.806974 22.097047 72.196449 21.258158 76.338906 22.380615 116.931686 6.335385 140.992442-0.808169 0.945227-1.531268 1.984977-2.197653 3.074351zM951.244686 115.714706c-10.640894 10.640894-45.614298 40.044548-86.107829 74.093992-51.609402 43.393015-115.842311 97.398567-174.392043 149.643633a2854.193675 2854.193675 0 0 0-43.553703 39.708992 23.67794 23.67794 0 0 0-16.248455-14.679377 2865.335539 2865.335539 0 0 0 40.401371-44.510746c51.706287-58.225991 105.251041-122.180059 148.273054-173.564969 34.444077-41.141011 64.192738-76.672099 74.921066-87.398064 15.634057-15.634057 41.072482-15.634057 56.706539 0 15.634057 15.631694 15.634057 41.072482 0 56.706539zM528.862852 469.957479a3374.846048 3374.846048 0 0 0 55.033487-55.742408l28.47733-2.192926a3410.639436 3410.639436 0 0 0-71.220501 70.223286l-12.290316-12.287952zM110.824337 312.841824c16.205919 6.337748 33.120759 9.499533 50.016694 9.499533 18.675325 0 37.32702-3.863616 54.953142-11.56958 33.617003-14.698282 59.483144-41.575815 72.834477-75.681973 10.437671-26.664857 12.221787-55.27452 5.494133-82.560864L362.306742 122.714113c11.95476-5.229469 17.411084-19.162117 12.181615-31.119241-5.229469-11.959486-19.157391-17.408721-31.119241-12.183977l-68.169781 29.807737c-36.100587-54.52779-107.408522-76.976935-169.353982-49.891451C36.522395 89.642978 4.774579 170.693842 35.083287 240.004985c14.698282 33.61464 41.597083 59.483144 75.74105 72.836839z m120.053298-184.241309L71.807724 198.155053c-5.756433-39.134766 15.017296-78.928829 52.975255-95.527017a89.432665 89.432665 0 0 1 35.918631-7.53346c26.976782 0 53.003612 12.200519 70.176025 33.505939z m-102.838349 140.226808c-14.849518-5.808421-27.588817-15.244151-37.308115-27.364326l159.100631-69.568717a89.347595 89.347595 0 0 1-5.210564 45.964033c-8.748077 22.349896-25.710178 39.966566-47.759964 49.607883-22.01434 9.624775-46.457914 10.106841-68.821988 1.361127z" fill="" p-id="1879"></path><path d="M660.135996 146.510206c40.394282 0 73.255103-32.863184 73.255103-73.255103s-32.860821-73.255103-73.255103-73.255103-73.255103 32.863184-73.255102 73.255103 32.863184 73.255103 73.255102 73.255103z m0-99.248849c14.332006 0 25.993746 11.66174 25.993747 25.993746s-11.66174 25.993746-25.993747 25.993746-25.993746-11.66174-25.993746-25.993746 11.66174-25.993746 25.993746-25.993746z" fill="" p-id="1880"></path></svg>