<?xml version="1.0" standalone="no"?><!DOCTYPE svg PUBLIC "-//W3C//DTD SVG 1.1//EN" "http://www.w3.org/Graphics/SVG/1.1/DTD/svg11.dtd"><svg t="1535393428240" class="icon" style="" viewBox="0 0 1024 1024" version="1.1" xmlns="http://www.w3.org/2000/svg" p-id="1250" xmlns:xlink="http://www.w3.org/1999/xlink" width="200" height="200"><defs><style type="text/css"></style></defs><path d="M511.2 551.6m-302.9 0a302.9 302.9 0 1 0 605.8 0 302.9 302.9 0 1 0-605.8 0Z" fill="#F7D5BA" p-id="1251"></path><path d="M302.2 690.8m-57.5 0a57.5 57.5 0 1 0 115 0 57.5 57.5 0 1 0-115 0Z" fill="#F9A895" p-id="1252"></path><path d="M736.5 690.8m-57.5 0a57.5 57.5 0 1 0 115 0 57.5 57.5 0 1 0-115 0Z" fill="#F9A895" p-id="1253"></path><path d="M205.2 639.6c-48.6 0-88.1-39.4-88.1-88.1s39.4-88.1 88.1-88.1M817.2 639.6c48.6 0 88.1-39.4 88.1-88.1s-39.4-88.1-88.1-88.1" fill="#F2BD99" p-id="1254"></path><path d="M511.2 871.6c-176.5 0-320-143.6-320-320.1 0-176.5 143.6-320 320-320 176.5 0 320 143.6 320 320 0.1 176.5-143.5 320.1-320 320.1z m0-605.7c-157.5 0-285.7 128.1-285.7 285.6s128.1 285.7 285.7 285.7c157.5 0 285.7-128.2 285.7-285.7S668.7 265.9 511.2 265.9z" fill="#4C4848" p-id="1255"></path><path d="M817.2 656.8c-9.5 0-17.2-7.7-17.2-17.2s7.7-17.2 17.2-17.2c39.1 0 70.9-31.8 70.9-70.9 0-39.1-31.8-70.9-70.9-70.9-9.5 0-17.2-7.7-17.2-17.2s7.7-17.2 17.2-17.2c58 0 105.3 47.2 105.3 105.3s-47.3 105.3-105.3 105.3zM205.2 656.8c-58 0-105.3-47.2-105.3-105.3s47.2-105.3 105.3-105.3c9.5 0 17.2 7.7 17.2 17.2s-7.7 17.2-17.2 17.2c-39.1 0-70.9 31.8-70.9 70.9 0 39.1 31.8 70.9 70.9 70.9 9.5 0 17.2 7.7 17.2 17.2s-7.7 17.2-17.2 17.2z" fill="#4C4848" p-id="1256"></path><path d="M156.3 477.7c35.1-177.9 180.7-311.2 355-311.2 174 0 319.4 132.9 354.8 310.3l-709.8 0.9z" fill="#F4CA19" p-id="1257"></path><path d="M156.3 494.9c-5.1 0-10-2.3-13.3-6.3-3.3-4-4.6-9.2-3.6-14.3 37.2-188.3 193.6-325 371.9-325 177.9 0 334.2 136.3 371.7 324.1 1 5-0.3 10.3-3.6 14.3-3.3 4-8.1 6.3-13.3 6.3l-709.8 0.9z m355-311.2c-155.4 0-292.7 115.2-333.5 276.8l666.8-0.9c-41.1-161.1-178.3-275.9-333.3-275.9z" fill="#4C4848" p-id="1258"></path><path d="M375.2 591.3m-37.9 0a37.9 37.9 0 1 0 75.8 0 37.9 37.9 0 1 0-75.8 0Z" fill="#4C4848" p-id="1259"></path><path d="M647.2 591.3m-37.9 0a37.9 37.9 0 1 0 75.8 0 37.9 37.9 0 1 0-75.8 0Z" fill="#4C4848" p-id="1260"></path><path d="M571.3 715c0 33.2-26.9 60.1-60.1 60.1s-60.1-26.9-60.1-60.1" fill="#4C4848" p-id="1261"></path></svg>