<?xml version="1.0" standalone="no"?><!DOCTYPE svg PUBLIC "-//W3C//DTD SVG 1.1//EN" "http://www.w3.org/Graphics/SVG/1.1/DTD/svg11.dtd"><svg t="1535394017079" class="icon" style="" viewBox="0 0 1024 1024" version="1.1" xmlns="http://www.w3.org/2000/svg" p-id="991" xmlns:xlink="http://www.w3.org/1999/xlink" width="200" height="200"><defs><style type="text/css"></style></defs><path d="M330.731442 1003.648661c1.689093-72.584357-22.041344-112.254722-58.850593-121.596439-14.467801-8.465742-30.626722-14.42826-51.774854-18.801044l-9.817219-1.788451c-12.024395-2.027723-24.207966-3.338645-36.470618-4.631319-16.218739-1.690107-31.403339-3.339659-46.388209-6.578946L119.658702 848.741809c-18.344806-3.299105-27.267799-5.803342-30.071126-13.235959-3.875992-11.210264 0.476515-22.618231 8.268039-40.147893l3.378186-7.79051c6.916562-16.217725 12.421828-33.947117 6.200776-53.344312-1.787437-5.48499-4.471128-10.811817-7.989227-15.860846a47.276352 47.276352 0 0 0 7.989227-8.148403c15.383317-23.134287-1.410281-41.856249-7.670875-48.91171-0.457251-0.496792-0.914503-1.013861-1.332214-1.431572 0.795881-1.252119 1.649552-2.524515 2.483961-3.795897 9.66007-14.667531 19.159951-32.854175 16.695253-56.763051-0.079081-0.755327-0.356879-2.225426-0.476514-3.021307-6.440047-28.699371-29.494239-37.722737-44.798475-43.724796-7.591793-2.961489-14.787167-5.743524-18.125812-9.301163-0.735049-0.874962-1.391018-2.82259-1.391018-4.53196l88.264736-93.929179a4323.72095 4323.72095 0 0 0 36.212083-39.013382 21.264727 21.264727 0 0 0 3.855715-6.062891l4.173053-10.175112c9.023365-23.294477-0.476515-41.101937-7.41234-54.140192l-3.140942-6.042614c-1.034139-2.185885-2.106804-4.41131-2.782036-6.737108-0.676245-2.404879-0.873948-4.471128-0.93478-4.590764 4.352506-20.371515 10.912189-40.425691 20.014636-61.334552 7.711429-17.62902 17.171769-35.576393 28.163039-53.383852 10.155848-16.376901 21.484735-32.59564 34.721707-49.726855 10.176126-13.197432 20.808489-26.116053 29.931213-36.927869a345.371847 345.371847 0 0 1 34.264456-26.811562 376.466973 376.466973 0 0 1 15.542494-9.996672c6.877021-4.174067 13.833123-8.12914 20.888584-11.786138 21.861891-11.269068 45.454443-20.749685 70.237268-28.06368 46.566649-13.833123 97.308378-20.45161 149.479652-19.616188 67.019273 5.405908 122.708645 16.13763 170.288142 32.872424a489.786249 489.786249 0 0 1 23.494208 8.924007c10.195389 4.293703 20.271143 8.964561 30.089375 14.011563 21.148133 10.932466 40.862665 23.632093 59.227748 38.200266a230.45067 230.45067 0 0 1 14.072395 11.189987c7.352522 6.339675 14.269084 13.038256 20.66959 20.093717 8.94327 9.857773 17.291404 20.808489 24.843657 32.634167 23.055206 36.073185 38.656503 79.659081 47.659591 133.24165 0.93478 5.405908 1.70937 10.772276 2.464697 16.019008l2.423129 22.379974c3.697552 43.007996 1.234883 82.321481-7.311968 116.984385-0.993584 3.914518-2.048 7.731706-3.180483 11.606684-1.569457 5.226455-3.278827 10.493464-5.763801 17.570216-5.226455 19.537107-13.416426 39.270903-25.160996 60.2994a369.863694 369.863694 0 0 1-10.016949 16.814889c-2.902685 4.650582-5.864174 9.301163-8.964562 13.911191-8.646209 12.899357-17.946359 25.559443-27.50707 38.121184-6.25958 8.267025-12.659072 16.475246-19.020038 24.725035-18.74224 24.186675-38.159711 49.189508-54.875242 75.285284-15.045701 23.393835-26.293479 45.195908-34.442896 66.620825-6.240316 16.059563-10.772276 32.356369-13.753028 50.363559-0.675232 9.241346-1.192301 21.206937-1.649552 34.702445-0.89524 25.04136-1.589734 55.211844-2.127081 81.843952l-0.159177 8.805385c-0.317339 15.104505 3.756356 36.033644 3.576903 36.033644" fill="#EBEEF0" p-id="992"></path><path d="M851.077497 367.847124c0 131.13586-106.252663 237.387509-237.347969 237.387509-131.094292 0-237.345941-106.251649-237.34594-237.387509 0-131.054751 106.251649-237.326677 237.34594-237.326678 131.095306 0 237.347969 106.271926 237.347969 237.326678z" fill="#78909C" p-id="993"></path><path d="M715.469495 333.960838H647.637105v-67.793862h-67.81414v67.793862h-67.813125v67.833403h67.813125v67.813126h67.81414V401.793228h67.83239z" fill="#FFAB00" p-id="994"></path><path d="M989.764596 347.774698l-2.504237-23.09576c-0.794867-5.425172-1.591762-10.990256-2.544792-16.495523-9.459326-56.3058-26.015681-102.376671-50.58154-140.815194-8.12914-12.739167-17.191032-24.624663-26.930183-35.356385-6.817203-7.532989-14.369456-14.886525-22.459055-21.842627a232.180318 232.180318 0 0 0-14.707072-11.707056c-19.219768-15.263682-40.267529-28.83827-62.56538-40.365874-10.276498-5.286273-20.830794-10.176126-31.682151-14.747626a530.227148 530.227148 0 0 0-24.44521-9.280886C702.152427 16.776363 644.774975 5.666471 574.615774 0.042582 519.880445-0.595137 467.66963 6.042613 419.054981 20.492164c-25.737883 7.591793-50.561262 17.509384-73.835462 29.513502-7.452894 3.856728-14.826707 8.050059-22.121439 12.462383a398.234574 398.234574 0 0 0-16.436719 10.593837c-12.579991 8.605655-24.783839 18.165353-36.291165 28.400282a18.411721 18.411721 0 0 0-2.048 2.087541c-9.280886 11.010534-20.111966 24.167411-30.467545 37.603101-13.673947 17.688838-25.41953 34.522991-35.933272 51.475765-11.468799 18.5638-21.385376 37.385121-29.51553 55.948921-9.679334 22.239047-16.634422 43.565619-21.245463 65.20953a20.287364 20.287364 0 0 0-0.119635 7.96895 54.099638 54.099638 0 0 0 1.411294 6.559683c0.93478 3.239287 2.325798 6.399492 4.253149 10.433646l3.259564 6.261607c7.274455 13.65367 11.646225 23.631079 6.539405 36.808234l-4.213608 10.215667a4306.454892 4306.454892 0 0 1-36.033644 38.835956L37.992176 524.799948A20.285337 20.285337 0 0 0 32.466632 538.73243c0 6.440047 2.305521 13.038256 6.897298 18.464442 6.458296 6.876007 15.640838 10.45291 25.57972 14.328901 16.554327 6.499865 28.560472 12.382288 32.415173 29.873423 1.808729 17.528648-5.386645 31.262413-14.171753 44.598744l-1.92735 2.960475c-4.869576 7.671888-2.643136 19.159951 3.379199 25.956877 9.559698 10.772276 10.930439 16.397179 6.658028 22.896029a27.029542 27.029542 0 0 1-4.612055 4.690122c-8.325829 6.717845-10.055476 18.722976-3.933782 27.487807 2.365338 3.41874 4.173053 6.956102 5.30655 10.453924 3.974336 12.382288 0.654954 24.6054-5.486004 39.034674l-3.319382 7.61207c-7.730692 17.390763-15.719919 35.357398-8.703999 55.590014 7.232886 19.219768 27.565874 22.856489 45.234435 26.035958l7.35455 1.431572c15.442121 3.338645 30.486809 5.049029 48.553817 6.916562 11.845955 1.252119 23.610802 2.504237 34.939688 4.412324l9.361995 1.708357c18.74224 3.875992 32.813621 8.944284 45.612605 16.437733a21.044719 21.044719 0 0 0 5.26701 2.166621c39.670364 10.05649 44.300669 67.832389 43.505801 101.382073-0.258535 11.248791 8.646209 20.570232 19.875737 20.828767h0.476515c11.030811 0 20.093717-8.805385 20.352251-19.875737 2.384602-102.91199-42.373319-132.584668-71.331224-141.012897-15.939927-8.962534-33.687569-15.282945-55.987448-19.874723l-10.098059-1.847255c-12.440078-2.08754-25.04136-3.459295-37.742-4.790495-16.813876-1.769188-30.766635-3.338645-44.619021-6.320411l-8.050059-1.571485c-6.756372-1.211564-11.665488-2.264966-14.666517-3.138914 0.517069-5.008475 3.895255-12.997702 7.929409-22.120426l3.439017-7.889868c8.050059-18.882153 15.164323-41.65956 6.836467-67.634687a75.497181 75.497181 0 0 0-2.424142-6.419769s0-0.020277 0.019263-0.020278c9.600253-14.429274 16.357638-36.311442-1.11322-62.844191 9.122724-15.662129 17.212323-35.915022 14.569187-61.454188-0.080095-0.794867-0.278812-2.086527-0.477529-3.239287-0.059818-0.357893-0.298075-1.769188-0.377156-2.106804-8.070336-36.033644-35.278317-49.368961-53.006696-56.545072l71.927375-76.557679a4157.336175 4157.336175 0 0 0 36.430064-39.252654c3.180483-3.497821 5.725275-7.492435 7.633362-12.024395l4.332229-10.554296c12.382288-31.958935-0.636705-56.404145-8.327857-70.873973l-2.941211-5.664443c-0.337616-0.695509-0.715786-1.410281-1.092943-2.504237 4.035168-17.449567 9.877037-34.860606 17.767919-53.006696 7.353536-16.793598 16.376901-33.886286 26.811562-50.79952 9.758415-15.742224 20.729408-31.44288 33.54867-48.038775 9.638779-12.480632 19.67702-24.724021 28.421573-35.098864 9.917591-8.72529 20.391792-16.892957 31.083973-24.227229a384.334536 384.334536 0 0 1 14.668546-9.441076c6.498851-3.934796 13.037242-7.651611 19.655728-11.090629 20.947388-10.79154 43.38718-19.755087 66.720184-26.632108 44.659576-13.276514 92.557424-19.537107 142.045008-18.840585 65.309902 5.265996 119.331473 15.661115 165.182336 31.779482a461.057475 461.057475 0 0 1 22.338405 8.486019c9.718874 4.094986 19.319127 8.546851 28.639554 13.336332a347.205922 347.205922 0 0 1 56.524794 36.530436 201.894253 201.894253 0 0 1 12.820276 10.196403c6.817203 5.862146 13.176141 12.044672 18.900402 18.344806 8.188958 9.042629 15.859832 19.099119 22.757131 29.910935 21.56483 33.748401 36.212084 74.849323 44.75792 125.749216 0.89524 5.227469 1.649552 10.39512 2.285243 14.747626l2.38663 21.940972c3.496808 40.744043 1.211564 77.87063-6.778677 110.226999-0.932752 3.677275-1.906059 7.274455-2.940197 10.751999-1.490376 4.96792-3.101402 9.977409-5.922978 18.166366-4.830035 18.065994-12.441092 36.251624-23.2742 55.630569a352.36749 352.36749 0 0 1-9.520157 15.978454c-2.782035 4.452879-5.604625 8.904744-8.605655 13.355595-7.334273 10.95173-15.859832 22.75713-26.811561 37.166127-4.491405 5.922978-9.062906 11.825678-13.633393 17.748655l-5.943255 7.692166c-18.802058 24.247507-38.239806 49.329421-55.212858 75.842907-15.780751 24.505027-27.666247 47.539956-36.292178 70.25856-6.876007 17.667547-11.725306 35.455743-15.085243 56.244968-0.694495 9.46034-1.230828 21.703729-1.689092 35.457771-0.913489 25.141732-1.610012 55.430838-2.146345 82.222123l-0.158162 8.72529c-0.278812 13.892941 2.463683 30.925811 3.736079 38.915038l20.192061-2.443406-15.381289-13.337345 30.884242 26.53275c6.121694-7.193346 4.909116-14.746612 4.254162-18.802058-0.794867-4.908102-3.199746-19.814905-2.98278-30.070112l0.161204-8.745567c0.536333-26.53275 1.230828-56.583598 2.10579-81.566155 0.456238-13.197432 0.95303-24.883198 1.391018-32.078571 2.682677-16.138644 6.817203-31.302967 12.70064-46.447013 7.671888-20.173812 18.324529-40.744043 32.555086-62.883732 16.019008-25.003847 34.880884-49.350712 53.861381-73.836476l5.246732-6.777663c4.649568-6.022336 9.301163-12.044672 13.851373-18.046731 11.429258-15.025424 20.412069-27.446239 28.204607-39.093477a474.357307 474.357307 0 0 0 9.280886-14.408997 372.55651 372.55651 0 0 0 10.573559-17.747641c12.50091-22.360711 21.344822-43.606174 26.593582-63.481911 2.602582-7.433631 4.410297-12.958161 6.100403-18.602327 1.192301-4.114249 2.325798-8.148403 3.398463-12.442105 9.082169-36.828511 11.72632-78.406963 7.791524-124.038832z" fill="#43525B" p-id="995"></path><path d="M871.428735 367.847124c0-142.085562-115.61263-257.677915-257.699207-257.677915S356.031336 225.761562 356.031336 367.847124c0 142.126117 115.61263 257.738747 257.698192 257.738747s257.699206-115.61263 257.699207-257.738747zM613.729528 584.882382c-119.646784 0-216.994703-97.367182-216.994703-217.034244 0-119.647798 97.347919-216.97544 216.994703-216.97544 119.647798 0 216.995717 97.327642 216.995718 216.97544 0 119.666048-97.347919 217.034244-216.995718 217.034244z" fill="#43525B" p-id="996"></path><path d="M715.469495 313.608587h-47.481152v-47.441611c0-11.248791-9.10346-20.351238-20.351238-20.351238h-67.81414c-11.248791 0-20.351238 9.102447-20.351237 20.351238v47.441611h-47.461888c-11.248791 0-20.352251 9.10346-20.352252 20.352251v67.833403c0 11.249805 9.10346 20.352251 20.352252 20.352252H559.471728v47.460874c0 11.248791 9.102447 20.352251 20.351237 20.352252h67.81414c11.248791 0 20.351238-9.10346 20.351238-20.352252v-47.460874h47.481152c11.249805 0 20.352251-9.102447 20.352251-20.352252v-67.833403c0-11.248791-9.102447-20.352251-20.352251-20.352251z m-20.351238 67.833403H647.637105c-11.249805 0-20.351238 9.102447-20.351237 20.352251v47.460875h-27.110651v-47.460875c0-11.249805-9.102447-20.352251-20.352252-20.352251H532.361077V354.314104h47.461888c11.249805 0 20.351238-9.10346 20.351238-20.352252v-47.441611h27.110651v47.441611c0 11.248791 9.102447 20.352251 20.352251 20.352252h47.481152v27.1289z" fill="#43525B" p-id="997"></path></svg>