<?xml version="1.0" standalone="no"?><!DOCTYPE svg PUBLIC "-//W3C//DTD SVG 1.1//EN" "http://www.w3.org/Graphics/SVG/1.1/DTD/svg11.dtd"><svg t="1535393527325" class="icon" style="" viewBox="0 0 1024 1024" version="1.1" xmlns="http://www.w3.org/2000/svg" p-id="1360" xmlns:xlink="http://www.w3.org/1999/xlink" width="200" height="200"><defs><style type="text/css"></style></defs><path d="M801.3 802.6H117c-1.2 0-2.2-1-2.2-2.2v-69.7c0-1.2 1-2.2 2.2-2.2h684.3v74.1z" fill="#EE655F" p-id="1361"></path><path d="M801.3 819.8H151.9c-29.9 0-54.2-24.3-54.2-54.2 0-29.9 24.3-54.2 54.2-54.2h649.5c9.5 0 17.2 7.7 17.2 17.2v74c-0.1 9.5-7.8 17.2-17.3 17.2z m-649.4-74c-10.9 0-19.9 8.9-19.9 19.9 0 10.9 8.9 19.9 19.9 19.9h632.3v-39.7H151.9z" fill="#4C4848" p-id="1362"></path><path d="M829.3 696.8L698.2 151.7l-0.7 0.2v-0.9H522.9v74h116.8l117.6 489.1z" fill="#EE655F" p-id="1363"></path><path d="M757.3 731.3c-3.1 0-6.2-0.9-9-2.5-3.9-2.4-6.7-6.2-7.7-10.6l-114.4-476H522.9c-9.5 0-17.2-7.7-17.2-17.2v-74c0-9.5 7.7-17.2 17.2-17.2h174.6c6 0 11.3 3.1 14.3 7.7 1.5 1.8 2.6 3.9 3.1 6.2L846 692.8c1.1 4.4 0.3 9.1-2 13-2.4 3.9-6.2 6.7-10.6 7.7l-72 17.3c-1.5 0.3-2.8 0.5-4.1 0.5zM540 207.8h99.6c7.9 0 14.8 5.4 16.7 13.2l113.6 472.4 38.6-9.3-124.1-516H540v39.7z" fill="#4C4848" p-id="1364"></path><path d="M801.3 765.6m-109.5 0a109.5 109.5 0 1 0 219 0 109.5 109.5 0 1 0-219 0Z" fill="#5F6060" p-id="1365"></path><path d="M801.3 892.3c-69.8 0-126.7-56.8-126.7-126.7S731.5 639 801.3 639 928 695.8 928 765.6s-56.8 126.7-126.7 126.7z m0-219c-50.9 0-92.3 41.4-92.3 92.3s41.4 92.3 92.3 92.3 92.3-41.4 92.3-92.3c0.1-50.9-41.4-92.3-92.3-92.3z" fill="#4C4848" p-id="1366"></path><path d="M311.3 765.6m-109.5 0a109.5 109.5 0 1 0 219 0 109.5 109.5 0 1 0-219 0Z" fill="#5F6060" p-id="1367"></path><path d="M311.3 892.3c-69.8 0-126.7-56.8-126.7-126.7S241.5 639 311.3 639 438 695.8 438 765.6s-56.8 126.7-126.7 126.7z m0-219c-50.9 0-92.3 41.4-92.3 92.3s41.4 92.3 92.3 92.3 92.3-41.4 92.3-92.3c0.1-50.9-41.4-92.3-92.3-92.3z" fill="#4C4848" p-id="1368"></path><path d="M311.3 765.6m-40.7 0a40.7 40.7 0 1 0 81.4 0 40.7 40.7 0 1 0-81.4 0Z" fill="#4C4848" p-id="1369"></path><path d="M801.3 765.6m-40.7 0a40.7 40.7 0 1 0 81.4 0 40.7 40.7 0 1 0-81.4 0Z" fill="#4C4848" p-id="1370"></path></svg>