<?xml version="1.0" standalone="no"?><!DOCTYPE svg PUBLIC "-//W3C//DTD SVG 1.1//EN" "http://www.w3.org/Graphics/SVG/1.1/DTD/svg11.dtd"><svg t="1535393576895" class="icon" style="" viewBox="0 0 1024 1024" version="1.1" xmlns="http://www.w3.org/2000/svg" p-id="1103" xmlns:xlink="http://www.w3.org/1999/xlink" width="200" height="200"><defs><style type="text/css"></style></defs><path d="M218.5 661.4v283.2h175.3v-13.5c0-77.2 53.4-140.3 118.6-140.3 65.2 0 118.6 63.1 118.6 140.3v13.5h175.3V661.4H218.5z" fill="#32DAB7" p-id="1104"></path><path d="M806.3 960.6H631c-8.9 0-16.1-7.2-16.1-16.1V931c0-68.5-46-124.2-102.5-124.2S409.9 862.5 409.9 931v13.5c0 8.9-7.2 16.1-16.1 16.1H218.5c-8.9 0-16.1-7.2-16.1-16.1V661.4c0-8.9 7.2-16.1 16.1-16.1h587.8c8.9 0 16.1 7.2 16.1 16.1v283.2c-0.1 8.8-7.2 16-16.1 16z m-159.2-32.1h143.2v-251H234.6v251.1h143.2c1.2-85.1 61.1-153.8 134.7-153.8 73.4-0.1 133.4 68.7 134.6 153.7z" fill="#4C4848" p-id="1105"></path><path d="M637.8 387.5h90.7v273.9h-90.7z" fill="#E45544" p-id="1106"></path><path d="M728.4 677.5h-90.7c-8.9 0-16.1-7.2-16.1-16.1V387.5c0-8.9 7.2-16.1 16.1-16.1h90.7c8.9 0 16.1 7.2 16.1 16.1v273.9c0 8.9-7.2 16.1-16.1 16.1z m-74.6-32.2h58.5V403.5h-58.5v241.8z" fill="#4C4848" p-id="1107"></path><path d="M296.4 387.5h90.7v273.9h-90.7z" fill="#E45544" p-id="1108"></path><path d="M387 677.5h-90.7c-8.9 0-16.1-7.2-16.1-16.1V387.5c0-8.9 7.2-16.1 16.1-16.1H387c8.9 0 16.1 7.2 16.1 16.1v273.9c0 8.9-7.2 16.1-16.1 16.1z m-74.6-32.2H371V403.5h-58.5v241.8z" fill="#4C4848" p-id="1109"></path><path d="M205.6 387.5h613.7v117H205.6z" fill="#EE655F" p-id="1110"></path><path d="M819.3 520.5H205.5c-8.9 0-16.1-7.2-16.1-16.1v-117c0-8.9 7.2-16.1 16.1-16.1h613.7c8.9 0 16.1 7.2 16.1 16.1v117c0 8.9-7.2 16.1-16 16.1z m-597.7-32.1h581.6v-84.8H221.6v84.8z" fill="#4C4848" p-id="1111"></path><path d="M205.6 386.8L512.1 80.3l307.1 307.2z" fill="#F4CA19" p-id="1112"></path><path d="M819.3 403.5c-0.1 0-0.1 0 0 0l-613.7-0.7c-6.5 0-12.3-3.9-14.8-9.9s-1.1-12.9 3.5-17.5L500.7 68.9c6.3-6.3 16.4-6.3 22.7 0l307.2 307.2c4.6 4.6 6 11.5 3.5 17.5s-8.4 9.9-14.8 9.9z m-575-32.7l536.1 0.6L512.1 103 244.3 370.8z" fill="#4C4848" p-id="1113"></path></svg>