<?xml version="1.0" standalone="no"?><!DOCTYPE svg PUBLIC "-//W3C//DTD SVG 1.1//EN" "http://www.w3.org/Graphics/SVG/1.1/DTD/svg11.dtd"><svg t="1535393551207" class="icon" style="" viewBox="0 0 1024 1024" version="1.1" xmlns="http://www.w3.org/2000/svg" p-id="1618" xmlns:xlink="http://www.w3.org/1999/xlink" width="200" height="200"><defs><style type="text/css"></style></defs><path d="M116.1 116.6v793.9H910V116.6H116.1z m739.8 739.8H170.2V170.7h685.7v685.7z" fill="#F7D5BA" p-id="1619"></path><path d="M910 928.1H116.1c-9.7 0-17.6-7.9-17.6-17.6V116.6c0-9.7 7.9-17.6 17.6-17.6H910c9.7 0 17.6 7.9 17.6 17.6v793.9c0 9.8-7.9 17.6-17.6 17.6z m-776.3-35.2h758.7V134.2H133.7v758.7zM855.9 874H170.2c-9.7 0-17.6-7.9-17.6-17.6V170.7c0-9.7 7.9-17.6 17.6-17.6h685.7c9.7 0 17.6 7.9 17.6 17.6v685.7c0 9.7-7.9 17.6-17.6 17.6z m-668.1-35.2h650.5V188.3H187.8v650.5z" fill="#4C4848" p-id="1620"></path><path d="M513 513.6l342.9 342.8H170.2z" fill="#F69D29" p-id="1621"></path><path d="M855.9 874H170.2c-7.1 0-13.5-4.3-16.3-10.9-2.7-6.6-1.2-14.1 3.8-19.2l342.8-342.8c6.9-6.9 18-6.9 24.9 0L868.3 844c5 5 6.5 12.6 3.8 19.2-2.7 6.5-9.1 10.8-16.2 10.8z m-643.2-35.2h600.7L513 538.5 212.7 838.8z" fill="#4C4848" p-id="1622"></path><path d="M513.9 513.5l342.8-342.9v685.7z" fill="#32DAB7" p-id="1623"></path><path d="M856.7 873.9c-4.6 0-9.1-1.8-12.4-5.2L501.4 525.9c-6.9-6.9-6.9-18 0-24.9l342.8-342.8c5-5 12.6-6.6 19.2-3.8 6.6 2.7 10.9 9.1 10.9 16.3v685.7c0 7.1-4.3 13.5-10.9 16.3-2.1 0.8-4.4 1.2-6.7 1.2zM538.8 513.5l300.3 300.3V213.1L538.8 513.5z" fill="#4C4848" p-id="1624"></path><path d="M341.38 348.911L509.53 517.06 341.38 685.208 173.233 517.06z" fill="#F4CA19" p-id="1625"></path><path d="M341.4 702.8c-4.5 0-9-1.7-12.4-5.2L160.8 529.5c-3.3-3.3-5.2-7.8-5.2-12.4 0-4.7 1.9-9.1 5.2-12.4L329 336.5c6.9-6.9 18-6.9 24.9 0L522 504.6c3.3 3.3 5.2 7.8 5.2 12.4 0 4.7-1.9 9.1-5.2 12.4L353.9 697.7c-3.5 3.4-8 5.1-12.5 5.1zM198.2 517.1l143.3 143.3 143.3-143.3-143.4-143.3-143.2 143.3z" fill="#4C4848" p-id="1626"></path><path d="M344.9 345.5L513 513.6l168.2-168.1z" fill="#9E8271" p-id="1627"></path><path d="M513 531.2c-4.5 0-9-1.7-12.4-5.2L332.4 357.9c-5-5-6.5-12.6-3.8-19.2s9.1-10.9 16.3-10.9h336.3c7.1 0 13.5 4.3 16.3 10.9 2.7 6.6 1.2 14.1-3.8 19.2L525.5 526c-3.5 3.5-8 5.2-12.5 5.2zM387.4 363.1L513 488.7l125.6-125.6H387.4z" fill="#4C4848" p-id="1628"></path><path d="M170.2 856.8l168.1-168.1-168.1-168.2z" fill="#8C5DE8" p-id="1629"></path><path d="M170.2 874.4c-2.3 0-4.6-0.4-6.7-1.3-6.6-2.7-10.9-9.1-10.9-16.3V520.5c0-7.1 4.3-13.5 10.9-16.3 6.6-2.8 14.1-1.2 19.2 3.8l168.1 168.1c6.9 6.9 6.9 18 0 24.9L182.6 869.3c-3.3 3.3-7.8 5.1-12.4 5.1zM187.8 563v251.3l125.6-125.6L187.8 563z" fill="#4C4848" p-id="1630"></path><path d="M520 170.7H170.2v349.8z" fill="#EE655F" p-id="1631"></path><path d="M170.2 538.1c-2.3 0-4.6-0.4-6.7-1.3-6.6-2.7-10.9-9.1-10.9-16.3V170.7c0-9.7 7.9-17.6 17.6-17.6H520c7.1 0 13.5 4.3 16.3 10.9 2.7 6.6 1.2 14.1-3.8 19.2L182.6 533c-3.3 3.3-7.8 5.1-12.4 5.1z m17.6-349.8V478l289.7-289.7H187.8z" fill="#4C4848" p-id="1632"></path><path d="M513.9 170.7L345.1 345.6l336.1-0.1 175.5-174.9z" fill="#5CCFEA" p-id="1633"></path><path d="M345.1 363.2c-7.1 0-13.4-4.2-16.2-10.7-2.8-6.5-1.4-14 3.5-19.1l168.8-174.9c3.3-3.4 7.9-5.4 12.7-5.4l342.8-0.1c7.1 0 13.6 4.3 16.3 10.9 2.7 6.6 1.2 14.2-3.9 19.2L693.6 357.9c-3.3 3.3-7.8 5.1-12.4 5.1l-336.1 0.2z m176.2-174.9L386.6 328l287.4-0.1 140.2-139.6H521.3z" fill="#4C4848" p-id="1634"></path></svg>