<?xml version="1.0" standalone="no"?><!DOCTYPE svg PUBLIC "-//W3C//DTD SVG 1.1//EN" "http://www.w3.org/Graphics/SVG/1.1/DTD/svg11.dtd"><svg t="1535393615216" class="icon" style="" viewBox="0 0 1024 1024" version="1.1" xmlns="http://www.w3.org/2000/svg" p-id="1612" xmlns:xlink="http://www.w3.org/1999/xlink" width="200" height="200"><defs><style type="text/css"></style></defs><path d="M511.6 511m-396.4 0a396.4 396.4 0 1 0 792.8 0 396.4 396.4 0 1 0-792.8 0Z" fill="#E45544" p-id="1613"></path><path d="M511.6 924.7C283.5 924.7 97.9 739.1 97.9 511S283.5 97.3 511.6 97.3 925.3 282.9 925.3 511 739.7 924.7 511.6 924.7z m0-792.9c-209.1 0-379.2 170.1-379.2 379.2s170.1 379.2 379.2 379.2S890.8 720 890.8 511c0-209.1-170.1-379.2-379.2-379.2z" fill="#4C4848" p-id="1614"></path><path d="M233.6 511a278 396.4 0 1 0 556 0 278 396.4 0 1 0-556 0Z" fill="#FFFFFF" p-id="1615"></path><path d="M511.6 924.7c-162.8 0-295.3-185.6-295.3-413.7S348.8 97.3 511.6 97.3 806.9 282.9 806.9 511 674.4 924.7 511.6 924.7z m0-792.9c-143.8 0-260.7 170.1-260.7 379.2s117 379.2 260.7 379.2S772.3 720 772.3 511c0-209.1-116.9-379.2-260.7-379.2z" fill="#4C4848" p-id="1616"></path><path d="M370 511a141.6 396.4 0 1 0 283.2 0 141.6 396.4 0 1 0-283.2 0Z" fill="#FFBD53" p-id="1617"></path><path d="M511.6 924.7c-103.2 0-158.8-213.1-158.8-413.7S408.5 97.3 511.6 97.3 670.5 310.4 670.5 511c0 200.5-55.7 413.7-158.9 413.7z m0-792.9c-58.8 0-124.3 155.7-124.3 379.2 0 223.4 65.5 379.2 124.3 379.2S635.9 734.4 635.9 511c0-223.5-65.5-379.2-124.3-379.2z" fill="#4C4848" p-id="1618"></path></svg>