<?xml version="1.0" standalone="no"?><!DOCTYPE svg PUBLIC "-//W3C//DTD SVG 1.1//EN" "http://www.w3.org/Graphics/SVG/1.1/DTD/svg11.dtd"><svg t="1535394076692" class="icon" style="" viewBox="0 0 1024 1024" version="1.1" xmlns="http://www.w3.org/2000/svg" p-id="1200" xmlns:xlink="http://www.w3.org/1999/xlink" width="200" height="200"><defs><style type="text/css"></style></defs><path d="M796 492h10v40h-10z" fill="#909699" p-id="1201"></path><path d="M811 467h-40v90h40c11 0 20-9 20-20v-50c0-11-9-20-20-20z" fill="#504D59" p-id="1202"></path><path d="M785 467h20v90h-20z" fill="#3F3E49" p-id="1203"></path><path d="M283 827c-35.8 0-65-29.2-65-65V262c0-35.8 29.2-65 65-65h420c35.8 0 65 29.2 65 65v500c0 35.8-29.2 65-65 65H283z" fill="#ACACAD" p-id="1204"></path><path d="M703 222c10.6 0 20.6 4.2 28.2 11.8 7.6 7.6 11.8 17.6 11.8 28.2v500c0 10.6-4.2 20.6-11.8 28.2-7.6 7.6-17.6 11.8-28.2 11.8H283c-10.6 0-20.6-4.2-28.2-11.8-7.6-7.6-11.8-17.6-11.8-28.2V262c0-10.6 4.2-20.6 11.8-28.2 7.6-7.6 17.6-11.8 28.2-11.8h420m0-50H283c-49.5 0-90 40.5-90 90v500c0 49.5 40.5 90 90 90h420c49.5 0 90-40.5 90-90V262c0-49.5-40.5-90-90-90z" fill="#504D59" p-id="1205"></path><path d="M687 205H307c-5.5 0-10-4.5-10-10v-22h400v22c0 5.5-4.5 10-10 10z m0 615H307c-5.5 0-10 4.5-10 10v22h400v-22c0-5.5-4.5-10-10-10z" fill="#3C3C49" p-id="1206"></path><path d="M682 196H312c-5.5 0-10-4.5-10-10v-10c0-11 9-20 20-20h350c11 0 20 9 20 20v10c0 5.5-4.5 10-10 10z m0 634H312c-5.5 0-10 4.5-10 10v10c0 11 9 20 20 20h350c11 0 20-9 20-20v-10c0-5.5-4.5-10-10-10z" fill="#6E6D7C" p-id="1207"></path><path d="M653 184H333V64h320v120z m0 656H333v120h320V840z" fill="#3F3E49" p-id="1208"></path><path d="M653 143.9v20H333v-20h320z m-320-40v20h320v-20H333z m0-39.9v20h320V64H333z m0 875.9v20h320v-20H333z m0-40v20h320v-20H333z m0-39.9v20h320v-20H333z" fill="#2F2F38" p-id="1209"></path><path d="M493 512m-220 0a220 220 0 1 0 440 0 220 220 0 1 0-440 0Z" fill="#615F68" p-id="1210"></path><path d="M652.5 512c0 88.1-71.4 159.5-159.5 159.5-53.7 0-101.2-26.5-130.1-67.2l-34.1 21.9C364.9 678 425 712 493 712c110.5 0 200-89.5 200-200s-89.5-200-200-200v40.5c88.1 0 159.5 71.4 159.5 159.5z" fill="#FF5050" p-id="1211"></path><path d="M601.6 512c0 60-48.6 108.6-108.6 108.6V658c80.6 0 146-65.4 146-146s-65.4-146-146-146v37.4c60 0 108.6 48.6 108.6 108.6z" fill="#FFC127" p-id="1212"></path><path d="M556.5 512c0 35.1-28.4 63.5-63.5 63.5s-63.5-28.4-63.5-63.5c0-8.3 1.6-16.2 4.5-23.5h-31.5c-1.9 7.5-3 15.4-3 23.5 0 51.6 41.9 93.5 93.5 93.5s93.5-41.9 93.5-93.5-41.9-93.5-93.5-93.5v30c35.1 0 63.5 28.4 63.5 63.5z" fill="#64ED32" p-id="1213"></path><path d="M371 292h-98v-32h98v32z m342-32h-98v32h98v-32zM371 732h-98v32h98v-32z m342 0h-98v32h98v-32z" fill="#615F68" p-id="1214"></path></svg>