<?xml version="1.0" standalone="no"?><!DOCTYPE svg PUBLIC "-//W3C//DTD SVG 1.1//EN" "http://www.w3.org/Graphics/SVG/1.1/DTD/svg11.dtd"><svg t="1535393476751" class="icon" style="" viewBox="0 0 1024 1024" version="1.1" xmlns="http://www.w3.org/2000/svg" p-id="970" xmlns:xlink="http://www.w3.org/1999/xlink" width="200" height="200"><defs><style type="text/css"></style></defs><path d="M167.885973 616.913033a62.5 95.2 44.999 1 0 134.630782-134.635481 62.5 95.2 44.999 1 0-134.630782 134.635481Z" fill="#F1A476" p-id="971"></path><path d="M203.1 647.5c-18.4 0-35.1-6-47.5-18.4-31.6-31.6-21.4-91.3 23.2-136 44.6-44.6 104.4-54.8 136-23.2 31.6 31.6 21.4 91.3-23.2 136-27.1 27.2-59.9 41.6-88.5 41.6z m64.3-161.2c-4.7 0-9 0.6-12.3 1.3-17.5 3.6-36.4 14.6-51.9 30-29.4 29.4-40.2 70.1-23.2 87.1 17 17 57.7 6.2 87.1-23.2 15.4-15.4 26.3-34.3 30-51.9 1.8-8.8 3.4-25-6.8-35.2-6.3-6.3-15.1-8.1-22.9-8.1z" fill="#4C4848" p-id="972"></path><path d="M748.00284 593.789874a95.2 62.5 44.999 1 0 88.386805-88.38989 95.2 62.5 44.999 1 0-88.386805 88.38989Z" fill="#F1A476" p-id="973"></path><path d="M824.3 647.5c-28.6 0-61.3-14.4-88.5-41.5-44.6-44.6-54.8-104.3-23.2-136 31.6-31.6 91.3-21.5 136 23.2 44.6 44.6 54.8 104.3 23.2 136-12.4 12.3-29.1 18.3-47.5 18.3zM760 486.3c-7.8 0-16.5 1.8-22.9 8.1-10.2 10.2-8.6 26.4-6.8 35.2 3.7 17.6 14.6 36.4 30 51.9 29.4 29.4 70.1 40.2 87.1 23.2 17-17 6.2-57.7-23.2-87.1-15.4-15.4-34.3-26.3-51.9-30-3.3-0.6-7.7-1.3-12.3-1.3z" fill="#4C4848" p-id="974"></path><path d="M717.3 198.5m-83.1 0a83.1 83.1 0 1 0 166.2 0 83.1 83.1 0 1 0-166.2 0Z" fill="#DB7E56" p-id="975"></path><path d="M717.3 298.9c-55.4 0-100.4-45-100.4-100.4 0-55.4 45-100.4 100.4-100.4 55.3 0 100.4 45 100.4 100.4-0.1 55.4-45.1 100.4-100.4 100.4z m0-166.2c-36.3 0-65.8 29.5-65.8 65.8s29.5 65.8 65.8 65.8 65.8-29.5 65.8-65.8-29.6-65.8-65.8-65.8z" fill="#4C4848" p-id="976"></path><path d="M310.1 198.5m-83.1 0a83.1 83.1 0 1 0 166.2 0 83.1 83.1 0 1 0-166.2 0Z" fill="#DB7E56" p-id="977"></path><path d="M310.1 298.9c-55.3 0-100.4-45-100.4-100.4 0-55.4 45-100.4 100.4-100.4 55.4 0 100.4 45 100.4 100.4 0 55.4-45 100.4-100.4 100.4z m0-166.2c-36.3 0-65.8 29.5-65.8 65.8s29.5 65.8 65.8 65.8 65.8-29.5 65.8-65.8-29.5-65.8-65.8-65.8z" fill="#4C4848" p-id="978"></path><path d="M513.7 336.6m-221.2 0a221.2 221.2 0 1 0 442.4 0 221.2 221.2 0 1 0-442.4 0Z" fill="#F1A476" p-id="979"></path><path d="M513.7 575c-131.5 0-238.4-107-238.4-238.4s107-238.4 238.4-238.4 238.4 107 238.4 238.4S645.2 575 513.7 575z m0-442.3c-112.4 0-203.9 91.5-203.9 203.9s91.5 203.9 203.9 203.9S717.6 449 717.6 336.6s-91.5-203.9-203.9-203.9z" fill="#4C4848" p-id="980"></path><path d="M439.6 276.1m-18.5 0a18.5 18.5 0 1 0 37 0 18.5 18.5 0 1 0-37 0Z" fill="#4C4848" p-id="981"></path><path d="M587.8 276.1m-18.5 0a18.5 18.5 0 1 0 37 0 18.5 18.5 0 1 0-37 0Z" fill="#4C4848" p-id="982"></path><path d="M622.389044 890.208447a62.5 95.2 44.999 1 0 134.630782-134.635481 62.5 95.2 44.999 1 0-134.630782 134.635481Z" fill="#F1A476" p-id="983"></path><path d="M657.6 920.8c-18.4 0-35.1-6-47.5-18.4-31.6-31.6-21.4-91.3 23.2-136 44.6-44.6 104.4-54.8 136-23.2 31.6 31.6 21.4 91.3-23.2 136-27.1 27.2-59.9 41.6-88.5 41.6z m64.5-161.1c-19.4 0-44.5 11.4-64.4 31.3-15.4 15.4-26.3 34.3-30 51.9-1.8 8.8-3.4 25 6.8 35.2s26.4 8.6 35.2 6.8c17.5-3.6 36.4-14.6 51.9-30 29.4-29.4 40.2-70.1 23.2-87.1-5.5-5.5-13.4-8.1-22.7-8.1z" fill="#4C4848" p-id="984"></path><path d="M293.512861 867.084066a95.2 62.5 44.999 1 0 88.386805-88.38989 95.2 62.5 44.999 1 0-88.386805 88.38989Z" fill="#F1A476" p-id="985"></path><path d="M369.8 920.8c-28.6 0-61.3-14.4-88.5-41.5-44.6-44.6-54.8-104.3-23.2-136 31.6-31.6 91.3-21.5 136 23.2 44.6 44.6 54.8 104.3 23.2 136-12.4 12.3-29.1 18.3-47.5 18.3z m-64.5-161.1c-9.3 0-17.2 2.6-22.7 8.1-17 17-6.2 57.7 23.2 87.1 15.4 15.4 34.3 26.3 51.9 30 8.8 1.8 25.1 3.4 35.2-6.8s8.6-26.4 6.8-35.2c-3.7-17.6-14.6-36.4-30-51.9-19.9-20-45-31.3-64.4-31.3z" fill="#4C4848" p-id="986"></path><path d="M476.6 346.2a37.1 20.3 0 1 0 74.2 0 37.1 20.3 0 1 0-74.2 0Z" fill="#4C4848" p-id="987"></path><path d="M472.9 397.1c-4.8 0-8.6-3.9-8.6-8.6 0-4.8 3.9-8.6 8.6-8.6 18.2 0 33-14.8 33-33 0-4.8 3.9-8.6 8.6-8.6 4.8 0 8.6 3.9 8.6 8.6 0.2 27.6-22.4 50.2-50.2 50.2z" fill="#4C4848" p-id="988"></path><path d="M554.5 397.1c-27.8 0-50.3-22.6-50.3-50.3 0-4.8 3.9-8.6 8.6-8.6 4.8 0 8.6 3.9 8.6 8.6 0 18.2 14.8 33 33 33 4.8 0 8.6 3.9 8.6 8.6 0.1 4.8-3.8 8.7-8.5 8.7z" fill="#4C4848" p-id="989"></path><path d="M728.1 477.7c-58.7-57.9-152.8-59.7-214.4-6.5-61.6-53.1-155.7-51.4-214.4 6.5-61.2 60.4-61.2 159.3 0 219.7l214.3 211.5v-1.8 2.1l214.5-211.7c61.2-60.6 61.2-159.4 0-219.8z" fill="#EE655F" p-id="990"></path><path d="M513.6 926.3c-2.2 0-4.4-0.4-6.5-1.3-2.8-1.2-5.2-3-7.1-5.3L287.1 709.6c-32.9-32.5-51-75.9-51-122.1s18.1-89.6 51-122.1c61-60.2 157.9-66.3 226.6-16.3 68.7-50 165.6-43.9 226.6 16.3 32.9 32.5 51 75.9 51 122.1s-18.1 89.6-51 122.1L525.7 921.3c-3.3 3.3-7.6 5-12.1 5zM409.8 450c-35.8 0-71.5 13.4-98.4 40-26.3 25.9-40.8 60.6-40.8 97.5 0 37 14.5 71.6 40.8 97.5l202.3 199.6L716 685c26.3-25.9 40.8-60.6 40.8-97.5 0-37-14.5-71.6-40.8-97.5-51.7-51-135.6-53.5-191-5.8-6.5 5.6-16.1 5.6-22.6 0-26.5-22.9-59.6-34.2-92.6-34.2z" fill="#4C4848" p-id="991"></path></svg>