<?xml version="1.0" standalone="no"?><!DOCTYPE svg PUBLIC "-//W3C//DTD SVG 1.1//EN" "http://www.w3.org/Graphics/SVG/1.1/DTD/svg11.dtd"><svg t="1535393495585" class="icon" style="" viewBox="0 0 1024 1024" version="1.1" xmlns="http://www.w3.org/2000/svg" p-id="1234" xmlns:xlink="http://www.w3.org/1999/xlink" width="200" height="200"><defs><style type="text/css"></style></defs><path d="M198.3 115.5h626.3v793.4H198.3z" fill="#32DAB7" p-id="1235"></path><path d="M824.6 926.2H198.3c-9.6 0-17.3-7.7-17.3-17.3V115.5c0-9.6 7.7-17.3 17.3-17.3h626.3c9.6 0 17.3 7.7 17.3 17.3v793.4c0.1 9.6-7.7 17.3-17.3 17.3z m-609-34.6h591.7V132.8H215.6v758.8z" fill="#4C4848" p-id="1236"></path><path d="M399.7 788.1h-99.3c-9.6 0-17.3-7.7-17.3-17.3 0-9.6 7.7-17.3 17.3-17.3h99.3c9.6 0 17.3 7.7 17.3 17.3 0 9.6-7.7 17.3-17.3 17.3z" fill="#FFCC00" p-id="1237"></path><path d="M350.1 837.8c-9.6 0-17.3-7.7-17.3-17.3v-99.3c0-9.6 7.7-17.3 17.3-17.3s17.3 7.7 17.3 17.3v99.3c0 9.5-7.8 17.3-17.3 17.3z" fill="#FFCC00" p-id="1238"></path><path d="M657.8 724m-17.9 0a17.9 17.9 0 1 0 35.8 0 17.9 17.9 0 1 0-35.8 0Z" fill="#E45544" p-id="1239"></path><path d="M657.8 817.7m-17.9 0a17.9 17.9 0 1 0 35.8 0 17.9 17.9 0 1 0-35.8 0Z" fill="#E45544" p-id="1240"></path><path d="M704.6 770.8m-17.9 0a17.9 17.9 0 1 0 35.8 0 17.9 17.9 0 1 0-35.8 0Z" fill="#FF9726" p-id="1241"></path><path d="M610.9 770.8m-17.9 0a17.9 17.9 0 1 0 35.8 0 17.9 17.9 0 1 0-35.8 0Z" fill="#FF9726" p-id="1242"></path><path d="M287.7 198.3h444.4v445.6H287.7z" fill="#C0F2E5" p-id="1243"></path><path d="M732.1 661.2H287.7c-9.6 0-17.3-7.7-17.3-17.3V198.3c0-9.6 7.7-17.3 17.3-17.3h444.4c9.6 0 17.3 7.7 17.3 17.3v445.6c0 9.6-7.7 17.3-17.3 17.3zM305 626.6h409.8v-411H305v411z" fill="#4C4848" p-id="1244"></path><path d="M606.3 215.6h-76.8L335 626.6h76.9zM690 215.6h-40.9l-194.4 411h40.9z" fill="#EEFFF6" p-id="1245"></path></svg>