<?xml version="1.0" standalone="no"?><!DOCTYPE svg PUBLIC "-//W3C//DTD SVG 1.1//EN" "http://www.w3.org/Graphics/SVG/1.1/DTD/svg11.dtd"><svg t="1535394640415" class="icon" style="" viewBox="0 0 1024 1024" version="1.1" xmlns="http://www.w3.org/2000/svg" p-id="1380" xmlns:xlink="http://www.w3.org/1999/xlink" width="200" height="200"><defs><style type="text/css"></style></defs><path d="M272.3 230.1c0-28.7 24.1-46.4 46.3-46.4 6.7 0 13.3 1.5 19.6 4.4l222.5 103.8v686.8L299 856.7c-16.2-7.6-26.7-24.1-26.7-42V230.1z" fill="#FFF35C" p-id="1381"></path><path d="M163.5 921.5V377.7c0-43 30.4-79 70.9-87.7v524.7c0 32.6 19 62.5 48.6 76.3l257.8 120.3H253.3c-49.5-0.1-89.8-40.3-89.8-89.8z" fill="#FCF086" p-id="1382"></path><path d="M995.6 921.5c0 49.5-40.3 89.8-89.8 89.8H598.1c0.1-0.9 0.4-1.9 0.4-2.8V287.9h307.3c49.5 0 89.8 40.3 89.8 89.8v543.8z" fill="#F9E63A" p-id="1383"></path><path d="M469.1 66.4a2.2 11.8 0 1 0 4.4 0 2.2 11.8 0 1 0-4.4 0Z" fill="#E61F19" p-id="1384"></path><path d="M479.669744 64.906699a11.8 2.2 60 1 0 3.810512-2.2 11.8 2.2 60 1 0-3.810512 2.2Z" fill="#E61F19" p-id="1385"></path><path d="M488.159311 58.437985a11.8 2.2 30 1 0 2.2-3.810511 11.8 2.2 30 1 0-2.2 3.810511Z" fill="#E61F19" p-id="1386"></path><path d="M480.4 46.3a11.8 2.2 0 1 0 23.6 0 11.8 2.2 0 1 0-23.6 0Z" fill="#E61F19" p-id="1387"></path><path d="M479.391972 41.901321a2.2 11.8 60 1 0 20.4382-11.8 2.2 11.8 60 1 0-20.4382 11.8Z" fill="#E61F19" p-id="1388"></path><path d="M476.306849 38.580963a2.2 11.8 30 1 0 11.8-20.438199 2.2 11.8 30 1 0-11.8 20.438199Z" fill="#E61F19" p-id="1389"></path><path d="M469.8 25.4a2.2 11.8 0 1 0 4.4 0 2.2 11.8 0 1 0-4.4 0Z" fill="#E61F19" p-id="1390"></path><path d="M459.813835 29.115249a11.8 2.2 60 1 0 3.810512-2.2 11.8 2.2 60 1 0-3.810512 2.2Z" fill="#E61F19" p-id="1391"></path><path d="M452.985983 37.232978a11.8 2.2 30 1 0 2.2-3.810511 11.8 2.2 30 1 0-2.2 3.810511Z" fill="#E61F19" p-id="1392"></path><path d="M439.4 45.5a11.8 2.2 0 1 0 23.6 0 11.8 2.2 0 1 0-23.6 0Z" fill="#E61F19" p-id="1393"></path><path d="M443.464419 61.720493a2.2 11.8 60 1 0 20.4382-11.8 2.2 11.8 60 1 0-20.4382 11.8Z" fill="#E61F19" p-id="1394"></path><path d="M455.238445 73.717688a2.2 11.8 30 1 0 11.8-20.438199 2.2 11.8 30 1 0-11.8 20.438199Z" fill="#E61F19" p-id="1395"></path><path d="M432.9 128.3m-14.4 0a14.4 14.4 0 1 0 28.8 0 14.4 14.4 0 1 0-28.8 0Z" fill="#2C65AF" p-id="1396"></path><path d="M189.3 131.5c5.7-2.9 8.6-8.7 6.4-12.9l-42.1-81.4c-2.2-4.2-8.5-5.2-14.2-2.2-5.7 2.9-8.6 8.7-6.4 12.9l42.1 81.4c2.2 4.1 8.5 5.1 14.2 2.2z" fill="#7CCBE2" p-id="1397"></path><path d="M212.7 58.2c-2.9-5.7-8.7-8.6-12.9-6.4l-81.4 42.1c-4.2 2.2-5.2 8.5-2.2 14.2 2.9 5.7 8.7 8.6 12.9 6.4l81.4-42.1c4.1-2.1 5.1-8.5 2.2-14.2z" fill="#7CCBE2" p-id="1398"></path><path d="M55.6 205.2m-29.2 0a29.2 29.2 0 1 0 58.4 0 29.2 29.2 0 1 0-58.4 0Z" fill="#EC7677" p-id="1399"></path><path d="M310.1 24.6c20.2 0 36.6 16.2 36.6 36.2S330.3 97 310.1 97c-20.1 0-36.5-16.2-36.5-36.2s16.4-36.2 36.5-36.2z m0 62.8c14.8 0 26.9-12 26.9-26.6s-12-26.6-26.9-26.6c-14.8 0-26.9 12-26.9 26.6s12.1 26.6 26.9 26.6z" fill="#E62A52" p-id="1400"></path><path d="M854.8 399.5c-8.3 0-15-6.7-15-15v-48c0-8.3 6.7-15 15-15s15 6.7 15 15v48c0 8.3-6.7 15-15 15zM854.8 606.7c-8.3 0-15-6.7-15-15V450.3c0-8.3 6.7-15 15-15s15 6.7 15 15v141.4c0 8.3-6.7 15-15 15z" fill="#FFFFFF" p-id="1401"></path><path d="M533.6 960.3l-283-132c-21.5-10.1-35.4-32-35.4-55.6V188.1c0-37.9 31.8-61.4 61.3-61.4 8.9 0 17.6 2 25.9 5.8l231.1 107.9v719.9z m-257-803.6c-15.1 0-31.3 12-31.3 31.4v584.5c0 12.1 7.1 23.3 18.1 28.5l240.2 112.1V259.5l-213.8-99.8c-4.3-2-8.7-3-13.2-3z" fill="" p-id="1402"></path><path d="M566.4 984.3H211.3c-57.8 0-104.8-47-104.8-104.8v-60.8c0-8.3 6.7-15 15-15s15 6.7 15 15v60.8c0 41.2 33.6 74.8 74.8 74.8h219.8l-196.5-91.7c-34.8-16.2-57.2-51.5-57.2-89.9V269.2c-24.5 12.6-40.9 38.2-40.9 66.5v430.8c0 8.3-6.7 15-15 15s-15-6.7-15-15V335.7c0-24.1 8.4-47.6 23.7-66.2 15-18.3 36-31.2 59-36.1l18.2-3.9v543.2c0 26.8 15.7 51.4 39.9 62.7l319.1 148.9z" fill="" p-id="1403"></path><path d="M953.6 621.1c-0.8 0-1.5-0.7-1.5-1.5V486.5c0-0.8 0.7-1.5 1.5-1.5s1.5 0.7 1.5 1.5v133.1c0 0.9-0.7 1.5-1.5 1.5z" fill="" p-id="1404"></path><path d="M863.8 984.3h-325l2.4-17.1c0.1-0.4 0.1-0.8 0.2-1.2V230.9h322.3c57.8 0 104.8 47 104.8 104.8v93.1c0 8.3-6.7 15-15 15s-15-6.7-15-15v-93.1c0-41.2-33.6-74.8-74.8-74.8H571.5v693.3h292.3c41.2 0 74.8-33.6 74.8-74.8v-194c0-8.3 6.7-15 15-15s15 6.7 15 15v194c0 57.9-47 104.9-104.8 104.9z" fill="" p-id="1405"></path></svg>