<?xml version="1.0" standalone="no"?><!DOCTYPE svg PUBLIC "-//W3C//DTD SVG 1.1//EN" "http://www.w3.org/Graphics/SVG/1.1/DTD/svg11.dtd"><svg t="1535394891650" class="icon" style="" viewBox="0 0 1024 1024" version="1.1" xmlns="http://www.w3.org/2000/svg" p-id="3136" xmlns:xlink="http://www.w3.org/1999/xlink" width="200" height="200"><defs><style type="text/css"></style></defs><path d="M435.3 97.2c-1.7-1.5-1.8-4.2-0.3-5.9l30.5-33.6c1.5-1.7 4.2-1.8 5.9-0.3 1.7 1.5 1.8 4.2 0.3 5.9l-30.5 33.6c-1.6 1.7-4.2 1.8-5.9 0.3z" fill="#EF8218" p-id="3137"></path><path d="M467.4 95.6l-33.6-30.5c-1.7-1.5-1.8-4.2-0.3-5.9 1.6-1.7 4.2-1.8 5.9-0.3L473 89.4c1.7 1.5 1.8 4.2 0.3 5.9-1.6 1.8-4.2 1.9-5.9 0.3z" fill="#EF8218" p-id="3138"></path><path d="M325.593656 64.620169a12.2 2.3 42.228 1 0 3.09158-3.406191 12.2 2.3 42.228 1 0-3.09158 3.406191Z" fill="#E61F19" p-id="3139"></path><path d="M321.514555 74.781928a12.2 2.3 12.228 1 0 0.974291-4.495638 12.2 2.3 12.228 1 0-0.974291 4.495638Z" fill="#E61F19" p-id="3140"></path><path d="M310.690332 87.216681a2.3 12.2 72.232 1 0 23.236119-7.445989 2.3 12.2 72.232 1 0-23.236119 7.445989Z" fill="#E61F19" p-id="3141"></path><path d="M319.874 101.797759a2.3 12.2 42.228 1 0 16.398814-18.06762 2.3 12.2 42.228 1 0-16.398814 18.06762Z" fill="#E61F19" p-id="3142"></path><path d="M335.119225 109.893199a2.3 12.2 12.228 1 0 5.16798-23.846425 2.3 12.2 12.228 1 0-5.16798 23.846425Z" fill="#E61F19" p-id="3143"></path><path d="M346.427506 98.409723a12.2 2.3 72.232 1 0 4.380579-1.403752 12.2 2.3 72.232 1 0-4.380579 1.403752Z" fill="#E61F19" p-id="3144"></path><path d="M356.462821 93.55854a12.2 2.3 42.228 1 0 3.09158-3.406191 12.2 2.3 42.228 1 0-3.09158 3.406191Z" fill="#E61F19" p-id="3145"></path><path d="M362.704151 84.479027a12.2 2.3 12.228 1 0 0.974291-4.495637 12.2 2.3 12.228 1 0-0.974291 4.495637Z" fill="#E61F19" p-id="3146"></path><path d="M351.183638 75.025855a2.3 12.2 72.232 1 0 23.236119-7.445989 2.3 12.2 72.232 1 0-23.236119 7.445989Z" fill="#E61F19" p-id="3147"></path><path d="M348.887159 70.995475a2.3 12.2 42.228 1 0 16.398814-18.067621 2.3 12.2 42.228 1 0-16.398814 18.067621Z" fill="#E61F19" p-id="3148"></path><path d="M344.756835 68.733839a2.3 12.2 12.228 1 0 5.167979-23.846425 2.3 12.2 12.228 1 0-5.167979 23.846425Z" fill="#E61F19" p-id="3149"></path><path d="M334.301699 57.790623a12.2 2.3 72.232 1 0 4.38058-1.403752 12.2 2.3 72.232 1 0-4.38058 1.403752Z" fill="#E61F19" p-id="3150"></path><path d="M248.038644 37.844228a14.8 14.8 0 1 0 19.893643-21.918097 14.8 14.8 0 1 0-19.893643 21.918097Z" fill="#2C65AF" p-id="3151"></path><path d="M232.1 143.9c-1.5 1.7-4.2 1.8-5.9 0.3l-33.6-30.5c-1.7-1.5-1.8-4.2-0.3-5.9 1.6-1.7 4.2-1.8 5.9-0.3l33.6 30.5c1.7 1.6 1.8 4.2 0.3 5.9z" fill="#2C65AF" p-id="3152"></path><path d="M230.5 111.8L200 145.5c-1.5 1.7-4.2 1.8-5.9 0.3-1.7-1.5-1.8-4.2-0.3-5.9l30.5-33.6c1.5-1.7 4.2-1.8 5.9-0.3 1.7 1.5 1.8 4.1 0.3 5.8z" fill="#2C65AF" p-id="3153"></path><path d="M147.4 246.6c-14 15.4-37.8 16.7-53 2.8-15.2-13.9-16.3-37.6-2.3-53 14-15.4 37.8-16.7 53-2.8 15.2 13.8 16.2 37.6 2.3 53z m-48-43.6c-10.3 11.4-9.5 28.8 1.7 39s28.7 9.2 39-2.1c10.3-11.3 9.5-28.8-1.7-39s-28.8-9.2-39 2.1z" fill="#E62A52" p-id="3154"></path><path d="M544.1 598.3m-410.1 0a410.1 410.1 0 1 0 820.2 0 410.1 410.1 0 1 0-820.2 0Z" fill="#61C3E6" p-id="3155"></path><path d="M563.7 364.1L628 494.4c3.2 6.5 9.3 11 16.5 12l143.7 20.9c18 2.6 25.1 24.7 12.2 37.4L696.4 666c-5.2 5.1-7.5 12.3-6.3 19.4l24.6 143.1c3.1 17.9-15.7 31.6-31.8 23.1L554.4 784c-6.4-3.4-14-3.4-20.4 0l-128.7 67.6c-16.1 8.5-34.9-5.2-31.8-23.1l24.6-143.1c1.2-7.1-1.1-14.3-6.3-19.4l-104-101.4c-13-12.7-5.8-34.8 12.2-37.4l143.7-20.9c7.1-1 13.3-5.5 16.5-12l64.3-130.2c7.9-16.3 31.2-16.3 39.2 0z" fill="#FC5454" p-id="3156"></path><path d="M633.2 867.7c-5.6 0-11.3-1.4-16.6-4.1L488.1 796c-2.4-1.2-5.3-1.2-7.8 0l-128.5 67.6c-12.1 6.4-26.3 5.3-37.4-2.7-11-8-16.4-21.3-14.1-34.7L324.9 683c0.5-2.7-0.4-5.5-2.4-7.4l-104-101.3c-9.7-9.5-13.2-23.5-9-36.4 4.2-12.9 15.2-22.2 28.6-24.2l143.7-20.9c2.7-0.4 5.1-2.1 6.2-4.6L452.3 358c6-12.2 18.2-19.8 31.8-19.8 13.6 0 25.8 7.6 31.8 19.8l64.3 130.2c1.2 2.4 3.6 4.2 6.2 4.6l143.7 20.9c13.5 2 24.4 11.2 28.6 24.2 4.2 12.9 0.8 26.9-9 36.4L646 675.7c-2 1.9-2.9 4.7-2.4 7.4l24.6 143.1c2.3 13.4-3.1 26.7-14.1 34.7-6.3 4.6-13.6 6.8-20.9 6.8z m-149-99.7c5.6 0 11.4 1.4 16.5 4.1l128.5 67.6c4.1 2.2 7.5 0.3 8.8-0.7 1.2-0.9 4.1-3.5 3.3-8.1l-24.6-143.1c-2-11.5 1.8-23.2 10.2-31.4l104-101.4c3.4-3.3 2.6-7.1 2.1-8.5s-2.1-5-6.7-5.6L582.6 520c-11.6-1.7-21.6-9-26.7-19.4l-64.2-130.3c-2.1-4.2-5.9-4.6-7.5-4.6s-5.4 0.4-7.5 4.6l-64.2 130.2c-5.2 10.5-15.2 17.7-26.7 19.4l-143.7 20.9c-4.6 0.7-6.2 4.2-6.7 5.6-0.5 1.5-1.2 5.3 2.1 8.5l104 101.4c8.4 8.1 12.2 19.9 10.2 31.4l-24.6 143.2c-0.8 4.6 2.1 7.2 3.3 8.1s4.6 2.8 8.8 0.7L467.7 772c5.2-2.7 10.9-4 16.5-4z" fill="" p-id="3157"></path><path d="M124.8 414.1c-2.2 0-4.5-0.5-6.5-1.7-6.6-3.6-9-11.9-5.3-18.5 15.2-27.6 33.6-53.6 54.5-77.1 20.9-23.5 44.5-44.8 70-63.1 6.1-4.3 14.6-3 19 3.1s3 14.6-3.1 19c-47.9 34.3-88.2 79.7-116.6 131.2-2.5 4.6-7.2 7.1-12 7.1z" fill="" p-id="3158"></path><path d="M484.2 1022c-57.2 0-112.7-11.2-164.9-33.3-50.5-21.3-95.8-51.9-134.7-90.8-38.9-38.9-69.5-84.2-90.8-134.7C71.7 711 60.5 655.5 60.5 598.3c0-46.4 7.4-92 22.2-135.6 2.4-7.1 10.1-10.9 17.2-8.5 7.1 2.4 10.9 10.1 8.5 17.2-13.7 40.7-20.7 83.4-20.7 126.9 0 218.6 177.9 396.5 396.5 396.5 71.9 0 142.3-19.4 203.6-56.2 6.4-3.9 14.8-1.8 18.6 4.7 3.9 6.4 1.8 14.8-4.7 18.6-65.4 39.4-140.7 60.1-217.5 60.1z" fill="" p-id="3159"></path><path d="M740.3 932.3c-4 0-7.9-1.7-10.6-5.1-4.7-5.9-3.7-14.4 2.1-19.1 38.1-30.5 70-67.4 94.7-109.4 3.8-6.5 12.1-8.6 18.6-4.8 6.5 3.8 8.6 12.1 4.8 18.6-26.3 44.9-60.4 84.2-101.1 116.9-2.5 1.9-5.5 2.9-8.5 2.9z" fill="" p-id="3160"></path><path d="M863.2 769c-1.7 0-3.5-0.3-5.2-1-7-2.9-10.2-10.8-7.3-17.8 20-48.2 30.1-99.3 30.1-151.9 0-218.6-177.9-396.5-396.5-396.5-53.6 0-105.5 10.5-154.4 31.2-6.9 2.9-14.9-0.3-17.8-7.2-2.9-7 0.3-14.9 7.2-17.8 52.3-22.1 107.7-33.3 164.9-33.3s112.7 11.2 164.9 33.3c50.5 21.3 95.8 51.9 134.7 90.8 38.9 38.9 69.5 84.2 90.8 134.7 22.1 52.3 33.3 107.7 33.3 164.9 0 56.2-10.9 110.9-32.2 162.4-2.1 5.1-7.2 8.2-12.5 8.2z" fill="" p-id="3161"></path><path d="M684.3 350c-3.3 0-6.6-1.2-9.3-3.6-13.9-12.9-28.7-24.9-44.1-35.6-6.1-4.3-7.7-12.7-3.4-18.9 4.3-6.1 12.7-7.7 18.9-3.4 16.5 11.4 32.3 24.2 47.1 38.1 5.5 5.1 5.8 13.7 0.7 19.2-2.7 2.8-6.2 4.2-9.9 4.2zM775.1 473.2c-5 0-9.8-2.8-12.2-7.6-14-28.6-31.2-55.5-51.2-80-4.7-5.8-3.9-14.3 1.9-19.1 5.8-4.7 14.3-3.9 19.1 1.9 21.3 26 39.7 54.7 54.6 85.2 3.3 6.7 0.5 14.9-6.2 18.1-1.9 1-3.9 1.5-6 1.5z" fill="#FFFFFF" p-id="3162"></path></svg>