<?xml version="1.0" standalone="no"?><!DOCTYPE svg PUBLIC "-//W3C//DTD SVG 1.1//EN" "http://www.w3.org/Graphics/SVG/1.1/DTD/svg11.dtd"><svg t="1535394905443" class="icon" style="" viewBox="0 0 1024 1024" version="1.1" xmlns="http://www.w3.org/2000/svg" p-id="3416" xmlns:xlink="http://www.w3.org/1999/xlink" width="200" height="200"><defs><style type="text/css"></style></defs><path d="M725.626509 1007.406685H547.074492c-8.445699 0-15.202259-6.855921-15.202259-15.202258 0-8.445699 6.855921-15.202259 15.202259-15.202259H725.626509c8.445699 0 15.202259 6.855921 15.202258 15.202259s-6.855921 15.202259-15.202258 15.202258z" fill="#FFFFFF" p-id="3417"></path><path d="M473.64659 86.229307c-1.68914-1.589779-1.788501-4.173169-0.298084-5.96167L504.249829 46.286118c1.589779-1.68914 4.173169-1.788501 5.96167-0.298084 1.68914 1.589779 1.788501 4.173169 0.298083 5.96167L479.60826 86.030585c-1.589779 1.589779-4.27253 1.788501-5.96167 0.198722z" fill="#EF8218" p-id="3418"></path><path d="M506.137691 84.639528l-34.08088-30.901323c-1.68914-1.589779-1.788501-4.173169-0.298084-5.96167 1.589779-1.68914 4.173169-1.788501 5.96167-0.298083l34.080881 30.901323c1.68914 1.589779 1.788501 4.173169 0.298083 5.96167s-4.27253 1.887862-5.96167 0.298083z" fill="#EF8218" p-id="3419"></path><path d="M362.633619 53.247523a12.320785 2.285307 42.228 1 0 3.07183-3.38443 12.320785 2.285307 42.228 1 0-3.07183 3.38443Z" fill="#E61F19" p-id="3420"></path><path d="M358.401255 63.54006a12.320785 2.285307 12.228 1 0 0.968067-4.466918 12.320785 2.285307 12.228 1 0-0.968067 4.466918Z" fill="#E61F19" p-id="3421"></path><path d="M347.55969 76.164142a2.285307 12.320785 72.232 1 0 23.466166-7.519707 2.285307 12.320785 72.232 1 0-23.466166 7.519707Z" fill="#E61F19" p-id="3422"></path><path d="M356.742219 90.92098a2.285307 12.320785 42.228 1 0 16.561169-18.246497 2.285307 12.320785 42.228 1 0-16.561169 18.246497Z" fill="#E61F19" p-id="3423"></path><path d="M372.242262 99.177593a2.285307 12.320785 12.228 1 0 5.219144-24.082514 2.285307 12.320785 12.228 1 0-5.219144 24.082514Z" fill="#E61F19" p-id="3424"></path><path d="M383.729379 87.429257a12.320785 2.285307 72.232 1 0 4.352595-1.394785 12.320785 2.285307 72.232 1 0-4.352595 1.394785Z" fill="#E61F19" p-id="3425"></path><path d="M393.796092 82.563103a12.320785 2.285307 42.228 1 0 3.071829-3.384431 12.320785 2.285307 42.228 1 0-3.071829 3.384431Z" fill="#E61F19" p-id="3426"></path><path d="M400.099646 73.381233a12.320785 2.285307 12.228 1 0 0.968067-4.466918 12.320785 2.285307 12.228 1 0-0.968067 4.466918Z" fill="#E61F19" p-id="3427"></path><path d="M388.594838 63.848797a2.285307 12.320785 72.232 1 0 23.466166-7.519708 2.285307 12.320785 72.232 1 0-23.466166 7.519708Z" fill="#E61F19" p-id="3428"></path><path d="M386.198153 59.751712a2.285307 12.320785 42.228 1 0 16.561168-18.246496 2.285307 12.320785 42.228 1 0-16.561168 18.246496Z" fill="#E61F19" p-id="3429"></path><path d="M382.10448 57.382095a2.285307 12.320785 12.228 1 0 5.219144-24.082514 2.285307 12.320785 12.228 1 0-5.219144 24.082514Z" fill="#E61F19" p-id="3430"></path><path d="M371.41373 46.394156a12.320785 2.285307 72.232 1 0 4.352595-1.394784 12.320785 2.285307 72.232 1 0-4.352595 1.394784Z" fill="#E61F19" p-id="3431"></path><path d="M284.037527 26.196337a15.003536 15.003536 0 1 0 20.167229-22.219524 15.003536 15.003536 0 1 0-20.167229 22.219524Z" fill="#2C65AF" p-id="3432"></path><path d="M267.869613 133.624584c-1.589779 1.68914-4.173169 1.788501-5.96167 0.298083L227.926424 102.921983c-1.68914-1.589779-1.788501-4.173169-0.298084-5.96167 1.490418-1.788501 4.173169-1.788501 5.96167-0.298084l34.080881 30.901323c1.589779 1.589779 1.788501 4.27253 0.198722 6.061032z" fill="#2C65AF" p-id="3433"></path><path d="M266.279834 101.034121l-30.901323 34.08088c-1.589779 1.68914-4.173169 1.788501-5.96167 0.298084-1.68914-1.589779-1.788501-4.173169-0.298083-5.96167l30.901323-34.080881c1.589779-1.68914 4.173169-1.788501 5.96167-0.298083 1.68914 1.589779 1.887862 4.27253 0.298083 5.96167z" fill="#2C65AF" p-id="3434"></path><path d="M182.120926 237.556364c-14.109286 15.599703-38.154688 16.891398-53.65503 2.881474-15.500342-14.009925-16.493954-38.055327-2.285307-53.65503 14.109286-15.599703 38.154688-16.891398 53.65503-2.881474s16.493954 38.055327 2.285307 53.65503z m-48.587611-44.116358c-10.432923 11.426534-9.638033 29.212183 1.68914 39.446383 11.327173 10.333561 29.013461 9.33995 39.446383-2.086584 10.432923-11.426534 9.638033-29.212183-1.689139-39.446384-11.327173-10.333561-29.013461-9.439311-39.446384 2.086585z" fill="#E62A52" p-id="3435"></path><path d="M583.738762 593.567425m-415.230316 0a415.230316 415.230316 0 1 0 830.460633 0 415.230316 415.230316 0 1 0-830.460633 0Z" fill="#61C3E6" p-id="3436"></path><path d="M159.367219 408.556932c-2.484029 0-4.968058-0.596167-7.352727-1.887862-7.352726-4.073808-10.035478-13.314396-5.96167-20.667123 30.801962-55.940337 74.620236-105.124115 126.586127-142.483913 6.855921-4.868697 16.295231-3.37828 21.26329 3.477641 4.868697 6.855921 3.37828 16.295231-3.477641 21.26329-48.289527 34.677047-88.928244 80.482545-117.643622 132.349074-2.881474 5.166781-8.048255 7.948893-13.413757 7.948893z" fill="" p-id="3437"></path><path d="M523.128451 1024c-58.126283 0-114.464064-11.426534-167.522928-33.882158-51.270362-21.660734-97.274582-52.76078-136.820326-92.306524-39.545744-39.545744-70.546428-85.549965-92.306525-136.820327-22.356263-53.058863-33.782797-109.396645-33.782796-167.423566 0-47.097193 7.551449-93.498858 22.554985-137.714577 2.682752-7.948893 11.327173-12.221424 19.276066-9.538672 7.948893 2.682752 12.221424 11.327173 9.538672 19.276066-13.811202 41.135523-20.865845 84.25827-20.865845 128.076544 0 220.58179 179.446267 399.928697 399.928697 399.928697 72.533652 0 143.576886-19.57415 205.379532-56.735226 7.154004-4.371891 16.593315-1.987223 20.865845 5.266141 4.371891 7.154004 1.987223 16.593315-5.266142 20.865846-66.472621 39.943189-142.881358 61.007756-220.979235 61.007756z" fill="" p-id="3438"></path><path d="M782.461096 933.183893c-4.471253 0-8.843144-1.987223-11.92334-5.762947-5.266142-6.557837-4.173169-16.096509 2.384668-21.362651 38.452772-30.801962 70.64579-67.963038 95.486082-110.390257 4.27253-7.253365 13.61248-9.638033 20.865845-5.464864 7.253365 4.27253 9.638033 13.61248 5.464864 20.865845-26.827515 45.706137-61.30584 85.649326-102.739447 118.736595-2.881474 2.285307-6.259754 3.37828-9.538672 3.378279z" fill="" p-id="3439"></path><path d="M906.861277 767.846912c-1.987223 0-3.875086-0.397445-5.862309-1.192334-7.750171-3.179557-11.426534-12.122062-8.246976-19.872234 20.170317-48.587611 30.404517-100.156056 30.404517-153.31428 0-220.58179-179.446267-399.928697-399.928697-399.928697-54.052475 0-106.41581 10.631645-155.698949 31.398129-7.750171 3.278919-16.692676-0.397445-19.971594-8.147616-3.278919-7.750171 0.397445-16.692676 8.147615-19.971594 53.058863-22.455624 109.396645-33.882158 167.522928-33.882158s114.464064 11.426534 167.522927 33.882158c51.270362 21.660734 97.274582 52.76078 136.820327 92.306524s70.546428 85.549965 92.306524 136.820327c22.455624 53.058863 33.882158 109.396645 33.882158 167.522927 0 57.132671-11.02909 112.576202-32.789185 164.939537-2.484029 5.96167-8.147616 9.439311-14.109286 9.439311z" fill="" p-id="3440"></path><path d="M725.72587 343.67409c-3.676363 0-7.452088-1.291695-10.432923-4.073808-13.910563-13.016313-28.9141-25.138375-44.414441-35.968742-6.855921-4.769336-8.644422-14.208647-3.875086-21.163928 4.769336-6.855921 14.208647-8.644422 21.163929-3.875086 16.792037 11.625257 32.888546 24.641569 47.892082 38.651494 6.160392 5.762948 6.458476 15.30162 0.695528 21.462012-2.881474 3.37828-6.955282 4.968058-11.029089 4.968058z" fill="#FFFFFF" p-id="3441"></path><path d="M817.734311 468.372355c-5.564225 0-11.02909-3.179557-13.711842-8.545061-14.109286-28.9141-31.49749-56.039698-51.667806-80.681267-5.266142-6.557837-4.371891-16.096509 2.086584-21.462012 6.557837-5.266142 16.096509-4.371891 21.462012 2.086584 21.660734 26.43007 40.340634 55.642253 55.443531 86.543577 3.676363 7.551449 0.596167 16.692676-6.955281 20.369039-2.185946 1.192334-4.471253 1.68914-6.657198 1.68914z" fill="#FFFFFF" p-id="3442"></path><path d="M702.674079 460.224739H313.675111c-8.445699 0-15.202259-6.855921-15.202259-15.202258 0-8.445699 6.855921-15.202259 15.202259-15.202259h388.998968c8.445699 0 15.202259 6.855921 15.202259 15.202259s-6.756559 15.202259-15.202259 15.202258zM702.674079 608.769684H313.675111c-8.445699 0-15.202259-6.855921-15.202259-15.202259 0-8.445699 6.855921-15.202259 15.202259-15.202258h388.998968c8.445699 0 15.202259 6.855921 15.202259 15.202258 0 8.445699-6.756559 15.202259-15.202259 15.202259zM702.674079 757.314628H313.675111c-8.445699 0-15.202259-6.855921-15.202259-15.202258 0-8.445699 6.855921-15.202259 15.202259-15.202259h388.998968c8.445699 0 15.202259 6.855921 15.202259 15.202259 0 8.445699-6.756559 15.202259-15.202259 15.202258z" fill="#FF9D00" p-id="3443"></path></svg>