<?xml version="1.0" standalone="no"?><!DOCTYPE svg PUBLIC "-//W3C//DTD SVG 1.1//EN" "http://www.w3.org/Graphics/SVG/1.1/DTD/svg11.dtd"><svg t="1535394872980" class="icon" style="" viewBox="0 0 1026 1024" version="1.1" xmlns="http://www.w3.org/2000/svg" p-id="2988" xmlns:xlink="http://www.w3.org/1999/xlink" width="200.390625" height="200"><defs><style type="text/css"></style></defs><path d="M849.15706 226H386.25706c-97.5 0-177.3 79.8-177.3 177.3V681c0 97.5 79.8 177.3 177.3 177.3h232.4l189.1 123.1v-123h41.4c97.5 0 177.3-79.8 177.3-177.3V403.3c0.1-97.6-79.7-177.3-177.3-177.3z" fill="#5ECEF4" p-id="2989"></path><path d="M299.35706 134.1c-1.8-1.1-2.5-3.4-1.4-5.3L319.55706 92.3c1.1-1.8 3.4-2.5 5.3-1.4 1.8 1.1 2.5 3.4 1.4 5.3l-21.6 36.4c-1 1.9-3.4 2.6-5.3 1.5z" fill="#EF8218" p-id="2990"></path><path d="M328.35706 126.6L291.95706 105c-1.8-1.1-2.5-3.4-1.4-5.3s3.4-2.5 5.3-1.4l36.4 21.6c1.8 1.1 2.5 3.4 1.4 5.3-1 1.9-3.4 2.5-5.3 1.4z" fill="#EF8218" p-id="2991"></path><path d="M193.275279 124.858215a11.4 2.1 30.63 1 0 2.139867-3.613996 11.4 2.1 30.63 1 0-2.139867 3.613996Z" fill="#E61F19" p-id="2992"></path><path d="M191.449387 134.900439a11.399544 2.099916 0.633 1 0 0.046399-4.199576 11.399544 2.099916 0.633 1 0-0.046399 4.199576Z" fill="#E61F19" p-id="2993"></path><path d="M183.909927 148.288505a2.1 11.4 60.633 1 0 19.870118-11.181163 2.1 11.4 60.633 1 0-19.870118 11.181163Z" fill="#E61F19" p-id="2994"></path><path d="M195.023344 159.864675a2.1 11.4 30.63 1 0 11.616419-19.618839 2.1 11.4 30.63 1 0-11.616419 19.618839Z" fill="#E61F19" p-id="2995"></path><path d="M210.499462 164.512484a2.099916 11.399544 0.633 1 0 0.251877-22.797696 2.099916 11.399544 0.633 1 0-0.251877 22.797696Z" fill="#E61F19" p-id="2996"></path><path d="M218.721777 151.710228a11.4 2.1 60.633 1 0 3.660285-2.059688 11.4 2.1 60.633 1 0-3.660285 2.059688Z" fill="#E61F19" p-id="2997"></path><path d="M226.850796 145.475265a11.4 2.1 30.63 1 0 2.139866-3.613997 11.4 2.1 30.63 1 0-2.139866 3.613997Z" fill="#E61F19" p-id="2998"></path><path d="M230.767738 136.009519a11.399544 2.099916 0.633 1 0 0.046398-4.199575 11.399544 2.099916 0.633 1 0-0.046398 4.199575Z" fill="#E61F19" p-id="2999"></path><path d="M218.511682 129.6132a2.1 11.4 60.633 1 0 19.870118-11.181163 2.1 11.4 60.633 1 0-19.870118 11.181163Z" fill="#E61F19" p-id="3000"></path><path d="M215.676353 126.425664a2.1 11.4 30.63 1 0 11.616418-19.618838 2.1 11.4 30.63 1 0-11.616418 19.618838Z" fill="#E61F19" p-id="3001"></path><path d="M211.609647 125.094144a2.099916 11.399544 0.633 1 0 0.251878-22.797696 2.099916 11.399544 0.633 1 0-0.251878 22.797696Z" fill="#E61F19" p-id="3002"></path><path d="M199.927796 117.053197a11.4 2.1 60.633 1 0 3.660285-2.059688 11.4 2.1 60.633 1 0-3.660285 2.059688Z" fill="#E61F19" p-id="3003"></path><path d="M117.491693 114.954254a13.8 13.8 0 1 0 14.06198-23.749121 13.8 13.8 0 1 0-14.06198 23.749121Z" fill="#2C65AF" p-id="3004"></path><path d="M122.85706 214.7c-1.1 1.8-3.4 2.5-5.3 1.4l-36.4-21.6c-1.8-1.1-2.5-3.4-1.4-5.3s3.4-2.5 5.3-1.4l36.4 21.6c1.8 1.1 2.4 3.5 1.4 5.3z" fill="#2C65AF" p-id="3005"></path><path d="M115.35706 185.7l-21.6 36.4c-1.1 1.8-3.4 2.5-5.3 1.4-1.8-1.1-2.5-3.4-1.4-5.3l21.6-36.4c1.1-1.8 3.4-2.5 5.3-1.4s2.5 3.5 1.4 5.3z" fill="#2C65AF" p-id="3006"></path><path d="M64.75706 324.2c-9.8 16.6-31.3 22.2-47.8 12.5-16.5-9.7-21.9-31.3-12-47.9 9.8-16.6 31.3-22.2 47.8-12.5s21.9 31.3 12 47.9z m-51.9-30.7C5.55706 305.7 9.55706 321.6 21.65706 328.8s27.9 3.1 35.2-9.2c7.2-12.3 3.3-28.1-8.9-35.2-12.1-7.3-27.8-3.2-35.1 9.1z" fill="#E62A52" p-id="3007"></path><path d="M752.45706 993.6L547.35706 860.1H318.55706c-25.5 0-50.2-5-73.7-15-22.5-9.6-42.8-23.3-60.3-40.7-17.4-17.4-31.2-37.7-40.7-60.3-9.9-23.4-15-48.2-15-73.7v-126c0-6.8 5.5-12.3 12.3-12.3 6.8 0 12.3 5.5 12.3 12.3v126c0 91 74 165 165 165H554.55706l173.1 112.8V835.5H781.55706c91 0 165-74 165-165V392.7c0-91-74-165-165-165h-41.4c-6.8 0-12.3-5.5-12.3-12.3s5.5-12.3 12.3-12.3H781.55706c25.5 0 50.2 5 73.7 15 22.5 9.6 42.8 23.3 60.3 40.7 17.5 17.4 31.2 37.7 40.7 60.3 9.9 23.4 15 48.2 15 73.7v277.8c0 25.5-5 50.2-15 73.7-9.6 22.5-23.3 42.8-40.7 60.3-17.4 17.5-37.7 31.2-60.3 40.7-23.4 9.9-48.2 15-73.7 15h-29.1v133.3z" fill="" p-id="3008"></path><path d="M141.25706 493.7c-6.8 0-12.3-5.5-12.3-12.3v-88.6c0-25.5 5-50.2 15-73.7 9.6-22.5 23.3-42.8 40.7-60.3s37.7-31.1 60.3-40.7c23.4-9.9 48.2-15 73.7-15h205.8c6.8 0 12.3 5.5 12.3 12.3s-5.5 12.3-12.3 12.3H318.55706c-91 0-165 74-165 165v88.6c0 6.9-5.5 12.4-12.3 12.4z" fill="" p-id="3009"></path><path d="M682.35706 227.7h-88.6c-6.8 0-12.3-5.5-12.3-12.3s5.5-12.3 12.3-12.3h88.6c6.8 0 12.3 5.5 12.3 12.3s-5.5 12.3-12.3 12.3z" fill="" p-id="3010"></path><path d="M312.65706 530.6c0 27.2 22 49.3 49.3 49.3s49.3-22 49.3-49.3c0-27.2-22.1-49.3-49.3-49.3-27.2 0.1-49.3 22.1-49.3 49.3z" fill="" p-id="3011"></path><path d="M501.85706 530.6c0 27.2 22 49.3 49.3 49.3 27.2 0 49.3-22 49.3-49.3 0-27.2-22.1-49.3-49.3-49.3-27.3 0.1-49.3 22.1-49.3 49.3z" fill="" p-id="3012"></path><path d="M690.95706 530.6c0 27.2 22 49.3 49.3 49.3 27.2 0 49.3-22 49.3-49.3 0-27.2-22-49.3-49.3-49.3s-49.3 22.1-49.3 49.3z" fill="" p-id="3013"></path></svg>