<?xml version="1.0" standalone="no"?><!DOCTYPE svg PUBLIC "-//W3C//DTD SVG 1.1//EN" "http://www.w3.org/Graphics/SVG/1.1/DTD/svg11.dtd"><svg t="1535394656774" class="icon" style="" viewBox="0 0 1024 1024" version="1.1" xmlns="http://www.w3.org/2000/svg" p-id="1528" xmlns:xlink="http://www.w3.org/1999/xlink" width="200" height="200"><defs><style type="text/css"></style></defs><path d="M537.9 1011c-220.2 0-399.3-178.9-399.3-398.8s179.1-398.8 399.3-398.8c220.2 0 399.3 178.9 399.3 398.8 0 81.1-24.5 159.2-70.8 226.1 14.5 55.8 27.6 113.5 31.9 140.5l4.3 27-27-4.4c-37.5-6-116.5-25.8-153.6-35.5-56.7 29.5-120.4 45.1-184.1 45.1z" fill="#FFF35C" p-id="1529"></path><path d="M522.1 839.5c-80.9-53.3-140.5-108.7-177-164.5-32.2-49.2-45.8-98.5-39.5-142.5 7.4-51.4 42.6-92.6 91.7-107.6 12.8-3.9 26.2-5.9 39.7-5.9 12.8 0 25.7 1.8 38.2 5.3 20.8 5.9 40.8 16.9 58.2 31.9 17.4-15 37.4-26 58.2-31.9 12.5-3.5 25.4-5.3 38.2-5.3 13.5 0 26.8 2 39.7 5.9 49.1 14.9 84.3 56.2 91.7 107.6 6.4 44-7.3 93.3-39.5 142.5-36.5 55.8-96.1 111.1-177 164.5l-11.3 7.4-11.3-7.4z" fill="#FF0000" p-id="1530"></path><path d="M481.2 137.3a2.2 11.7 0 1 0 4.4 0 2.2 11.7 0 1 0-4.4 0Z" fill="#E61F19" p-id="1531"></path><path d="M491.679074 135.901519a11.7 2.2 60 1 0 3.810512-2.2 11.7 2.2 60 1 0-3.810512 2.2Z" fill="#E61F19" p-id="1532"></path><path d="M499.993127 129.477351a11.7 2.2 30 1 0 2.2-3.810511 11.7 2.2 30 1 0-2.2 3.810511Z" fill="#E61F19" p-id="1533"></path><path d="M492.3 117.5a11.7 2.2 0 1 0 23.4 0 11.7 2.2 0 1 0-23.4 0Z" fill="#E61F19" p-id="1534"></path><path d="M491.360137 113.15251a2.2 11.7 60 1 0 20.264994-11.7 2.2 11.7 60 1 0-20.264994 11.7Z" fill="#E61F19" p-id="1535"></path><path d="M488.409007 109.9527a2.2 11.7 30 1 0 11.7-20.264994 2.2 11.7 30 1 0-11.7 20.264994Z" fill="#E61F19" p-id="1536"></path><path d="M482 96.9a2.2 11.7 0 1 0 4.4 0 2.2 11.7 0 1 0-4.4 0Z" fill="#E61F19" p-id="1537"></path><path d="M472.088734 100.493572a11.7 2.2 60 1 0 3.810512-2.2 11.7 2.2 60 1 0-3.810512 2.2Z" fill="#E61F19" p-id="1538"></path><path d="M465.406615 108.558713a11.7 2.2 30 1 0 2.2-3.810512 11.7 2.2 30 1 0-2.2 3.810512Z" fill="#E61F19" p-id="1539"></path><path d="M451.9 116.7a11.7 2.2 0 1 0 23.4 0 11.7 2.2 0 1 0-23.4 0Z" fill="#E61F19" p-id="1540"></path><path d="M455.952823 132.743215a2.2 11.7 60 1 0 20.264995-11.7 2.2 11.7 60 1 0-20.264995 11.7Z" fill="#E61F19" p-id="1541"></path><path d="M467.491235 144.538713a2.2 11.7 30 1 0 11.7-20.264995 2.2 11.7 30 1 0-11.7 20.264995Z" fill="#E61F19" p-id="1542"></path><path d="M553.9 42.8m-14.2 0a14.2 14.2 0 1 0 28.4 0 14.2 14.2 0 1 0-28.4 0Z" fill="#2C65AF" p-id="1543"></path><path d="M469.4 28.6m-14.2 0a14.2 14.2 0 1 0 28.4 0 14.2 14.2 0 1 0-28.4 0Z" fill="#E61F19" p-id="1544"></path><path d="M368.3 154.9c4.3-2.2 6.5-6.6 4.8-9.7l-31.7-61.3c-1.6-3.1-6.4-3.9-10.7-1.7-4.3 2.2-6.5 6.6-4.8 9.7l31.7 61.3c1.6 3.1 6.4 3.9 10.7 1.7z" fill="#DAB647" p-id="1545"></path><path d="M385.9 99.7c-2.2-4.3-6.6-6.5-9.7-4.8l-61.3 31.7c-3.1 1.6-3.9 6.4-1.7 10.7 2.2 4.3 6.6 6.5 9.7 4.8l61.3-31.7c3.2-1.6 3.9-6.4 1.7-10.7z" fill="#DAB647" p-id="1546"></path><path d="M614.9 91.8c19.9 0 36.1 16 36.1 35.7s-16.2 35.7-36.1 35.7c-19.9 0-36.1-16-36.1-35.7s16.2-35.7 36.1-35.7z m0 62.1c14.6 0 26.6-11.8 26.6-26.3s-11.9-26.3-26.6-26.3c-14.6 0-26.5 11.8-26.5 26.3-0.1 14.5 11.8 26.3 26.5 26.3z" fill="#E62A52" p-id="1547"></path><path d="M481.4 832.4l-19.6-12.9C379.1 765 318.2 708.3 280.5 650.7c-34.2-52.3-48.6-105.1-41.7-152.9 8.3-57.2 47.4-103.1 102.2-119.8 14.2-4.3 29.1-6.5 44-6.5 14.2 0 28.5 2 42.3 5.9 19 5.4 37.4 14.7 54.1 27.1 16.6-12.4 35.1-21.7 54.1-27.1 13.8-3.9 28.1-5.9 42.3-5.9 15 0 29.8 2.2 44 6.5 54.8 16.7 93.9 62.5 102.2 119.8 6.9 47.7-7.5 100.6-41.7 152.9C644.6 708.2 583.7 765 501 819.5l-19.6 12.9z m-3-37.9l3 2 3-2c79.2-52.2 137.3-106.1 172.7-160.2 30.2-46.1 43-91.8 37.2-132.1-6.6-45.6-37.7-82.1-81.2-95.3-22.3-6.8-46.5-6.9-69.4-0.5-18.6 5.3-36.7 15.2-52.4 28.8l-9.8 8.5-9.8-8.5c-15.7-13.6-33.8-23.5-52.4-28.8-22.9-6.5-47.1-6.3-69.4 0.5-43.5 13.2-74.6 49.8-81.2 95.3-5.8 40.4 7 86.1 37.2 132.1 35.2 54.1 93.3 108 172.5 160.2z" fill="#231815" p-id="1548"></path><path d="M119.6 753.1c-5.8 0-11.3-3.4-13.8-9-15.6-35.9-26-73.7-30.9-112.6-1-8.2 4.8-15.7 13-16.8 8.2-1 15.7 4.8 16.8 13 4.5 36 14.2 71.1 28.6 104.3 3.3 7.6-0.2 16.4-7.8 19.7-1.9 1-3.9 1.4-5.9 1.4z" fill="" p-id="1549"></path><path d="M486 993.5c-75.2 0-148.9-20.4-213.1-59-62.3-37.5-114-90.9-149.3-154.4-4-7.2-1.4-16.4 5.8-20.4 7.2-4 16.4-1.4 20.4 5.8 68 122.1 196.8 198 336.2 198 61.3 0 122.6-15 177.2-43.5 3.3-1.7 7.1-2.2 10.7-1.2 36.5 9.6 115.3 29.3 152.1 35.2l6.6 1.1-1-6.6c-4.2-26.5-17.3-83.7-31.6-139-1.1-4.2-0.3-8.7 2.2-12.3 44.6-64.3 68.2-139.5 68.2-217.5 0-74.5-21.5-146.8-62.2-209.1-4.5-6.9-2.6-16.2 4.4-20.8 6.9-4.5 16.2-2.6 20.8 4.4 43.9 67.2 67.1 145.2 67.1 225.5 0 81.8-24 160.8-69.6 228.9 13.9 54.1 26.3 109 30.5 135.3l4.3 27c0.8 4.8-0.8 9.6-4.2 13-3.4 3.4-8.2 5-13 4.2l-27-4.4c-36.2-5.8-110.5-24.3-149.4-34.4-57.8 28.9-121.9 44.2-186.1 44.2z" fill="" p-id="1550"></path><path d="M797.6 332.1c-0.4 0-0.9-0.2-1.2-0.6-18.1-22.5-38.7-43.1-61.2-61.3-0.6-0.5-0.7-1.5-0.2-2.1 0.5-0.6 1.5-0.7 2.1-0.2 22.7 18.3 43.4 39 61.6 61.7 0.5 0.6 0.4 1.6-0.2 2.1-0.3 0.3-0.6 0.4-0.9 0.4z" fill="" p-id="1551"></path><path d="M86.7 594.7c-8.3 0-15-6.7-15-15 0-228.2 185.9-413.8 414.3-413.8 73.4 0 145.6 19.5 208.8 56.5 7.2 4.2 9.6 13.4 5.4 20.5-4.2 7.2-13.4 9.6-20.5 5.4C621 214 554.1 195.8 486 195.8c-211.9 0-384.3 172.2-384.3 383.8 0 8.4-6.7 15.1-15 15.1z" fill="" p-id="1552"></path><path d="M181.9 644.7c-8.1 0-14.7-6.4-15-14.5-0.7-19.5 0.1-39.1 2.2-58.3 0.9-8.2 8.3-14.2 16.6-13.2 8.2 0.9 14.2 8.3 13.2 16.6-2 17.7-2.7 35.9-2.1 53.9 0.3 8.3-6.2 15.2-14.5 15.5 0-0.1-0.2 0-0.4 0zM213.5 787.6c-5.9 0-11.4-3.5-13.8-9.2-12.7-30.1-21.8-61.5-27.2-93.4-1.4-8.2 4.1-15.9 12.3-17.3 8.2-1.4 15.9 4.1 17.3 12.3 5 29.6 13.5 58.8 25.3 86.8 3.2 7.6-0.4 16.4-8 19.6-2 0.9-3.9 1.2-5.9 1.2z" fill="#FFFFFF" p-id="1553"></path></svg>