<?xml version="1.0" standalone="no"?><!DOCTYPE svg PUBLIC "-//W3C//DTD SVG 1.1//EN" "http://www.w3.org/Graphics/SVG/1.1/DTD/svg11.dtd"><svg t="1535394547657" class="icon" style="" viewBox="0 0 1024 1024" version="1.1" xmlns="http://www.w3.org/2000/svg" p-id="1009" xmlns:xlink="http://www.w3.org/1999/xlink" width="200" height="200"><defs><style type="text/css"></style></defs><path d="M512 512m-512 0a512 512 0 1 0 1024 0 512 512 0 1 0-1024 0Z" fill="#FFFFFF" p-id="1010"></path><path d="M274.432 513.232l364.24-190.8 14.848 28.344-364.24 190.8zM321.96 557.28l16.68-27.312 315.384 192.712-16.688 27.304z" fill="#333333" p-id="1011"></path><path d="M272 512m-115.2 0a115.2 115.2 0 1 0 230.4 0 115.2 115.2 0 1 0-230.4 0Z" fill="#FFB900" p-id="1012"></path><path d="M272 640c-70.4 0-128-57.6-128-128s57.6-128 128-128 128 57.6 128 128-57.6 128-128 128z m0-230.4c-56.8 0-102.4 45.6-102.4 102.4 0 56.8 45.6 102.4 102.4 102.4S374.4 568.8 374.4 512c0-56.8-45.6-102.4-102.4-102.4z" fill="#333333" p-id="1013"></path><path d="M704 304m-83.2 0a83.2 83.2 0 1 0 166.4 0 83.2 83.2 0 1 0-166.4 0Z" fill="#FF7400" p-id="1014"></path><path d="M704 400c-52.8 0-96-43.2-96-96s43.2-96 96-96 96 43.2 96 96-43.2 96-96 96z m0-166.4c-39.2 0-70.4 31.2-70.4 70.4s31.2 70.4 70.4 70.4 70.4-31.2 70.4-70.4-31.2-70.4-70.4-70.4z" fill="#333333" p-id="1015"></path><path d="M640 736m-83.2 0a83.2 83.2 0 1 0 166.4 0 83.2 83.2 0 1 0-166.4 0Z" fill="#FFB900" p-id="1016"></path><path d="M640 832c-52.8 0-96-43.2-96-96s43.2-96 96-96 96 43.2 96 96-43.2 96-96 96z m0-166.4c-39.2 0-70.4 31.2-70.4 70.4s31.2 70.4 70.4 70.4 70.4-31.2 70.4-70.4-31.2-70.4-70.4-70.4z" fill="#333333" p-id="1017"></path></svg>