<?xml version="1.0" standalone="no"?><!DOCTYPE svg PUBLIC "-//W3C//DTD SVG 1.1//EN" "http://www.w3.org/Graphics/SVG/1.1/DTD/svg11.dtd"><svg t="1535394105692" class="icon" style="" viewBox="0 0 1024 1024" version="1.1" xmlns="http://www.w3.org/2000/svg" p-id="1595" xmlns:xlink="http://www.w3.org/1999/xlink" width="200" height="200"><defs><style type="text/css"></style></defs><path d="M266.1 935c-27.4 0-52-17.2-61.3-42.7l-75.2-206.7c-5.9-16.2-5.1-33.9 2.3-49.7 7.4-15.8 20.4-27.8 36.6-33.7l9.4-3.4c7.1-2.6 14.5-3.9 22-3.9 27.4 0 52 17.2 61.3 42.7l75.2 206.7c5.9 16.2 5.1 33.9-2.3 49.7-7.4 15.8-20.4 27.8-36.6 33.7l-9.4 3.4c-7 2.6-14.5 3.9-22 3.9z" fill="#4A4754" p-id="1596"></path><path d="M199.9 619.9c16.9 0 32.1 10.6 37.8 26.3l75.2 206.7c3.6 9.9 3.1 20.8-1.4 30.5S299 900.5 289 904.1l-9.4 3.4c-4.4 1.6-8.9 2.4-13.5 2.4-16.9 0-32.1-10.6-37.8-26.3L153.1 677c-3.6-9.9-3.1-20.8 1.4-30.5s12.5-17.1 22.5-20.7l9.4-3.4c4.3-1.7 8.9-2.5 13.5-2.5m0-50c-10.2 0-20.5 1.7-30.6 5.4l-9.4 3.4c-46.5 16.9-70.7 68.8-53.8 115.4l75.2 206.7c13.3 36.4 48 59.2 84.8 59.2 10.2 0 20.5-1.7 30.6-5.4l9.4-3.4c46.5-16.9 70.7-68.8 53.8-115.4l-75.2-206.7c-13.3-36.5-48.1-59.2-84.8-59.2z" fill="#3A3644" p-id="1597"></path><path d="M843 594.7c-35.8 0-65-29.2-65-65v-96.8c0-35.8 29.2-65 65-65h20c35.8 0 65 29.2 65 65v96.8c0 35.8-29.2 65-65 65h-20z" fill="#FFA80D" p-id="1598"></path><path d="M863 392.8c10.6 0 20.6 4.2 28.2 11.8 7.6 7.6 11.8 17.6 11.8 28.2v96.8c0 10.6-4.2 20.6-11.8 28.2-7.6 7.6-17.6 11.8-28.2 11.8h-20c-10.6 0-20.6-4.2-28.2-11.8-7.6-7.6-11.8-17.6-11.8-28.2v-96.8c0-10.6 4.2-20.6 11.8-28.2 7.6-7.6 17.6-11.8 28.2-11.8h20m0-50h-20c-49.5 0-90 40.5-90 90v96.8c0 49.5 40.5 90 90 90h20c49.5 0 90-40.5 90-90v-96.8c0-49.5-40.5-90-90-90z" fill="#3A3644" p-id="1599"></path><path d="M758.8 865.5c-7.2 0-14.5-1.2-21.4-3.6L286.6 705.6l-161.3-13.7c-21.8-8.7-36.3-28.7-36.3-50.5V313.1c0-21.7 14.3-41.6 35.8-50.4l170.7-7.7 442-162.5c6.9-2.4 14.1-3.6 21.2-3.6 33.2 0 60.2 24.8 60.2 55.2v666.1c0.1 30.5-26.9 55.3-60.1 55.3z" fill="#BECACF" p-id="1600"></path><path d="M758.8 114c9.6 0 19 3.6 25.8 9.8 4.3 3.9 9.4 10.6 9.4 20.4v666.1c0 9.8-5.1 16.5-9.4 20.4-6.8 6.2-16.2 9.8-25.8 9.8-4.5 0-8.9-0.8-13.3-2.3L297.7 683l-5.9-2.1-6.2-0.5-154-13c-10.7-5.4-17.6-15.3-17.6-26V313.1c0-10.4 6.6-20.2 16.8-25.6l162-7.3 7.7-0.3 7.3-2.7 438.1-161c4.2-1.5 8.6-2.2 12.9-2.2m0-50c-9.7 0-19.7 1.6-29.6 5L290.6 230.2l-170.8 7.7C86.3 249.5 64 279.5 64 313.1v328.3c0 33.6 22.3 63.5 55.8 75.2l161.6 13.7 447.8 155.2c9.9 3.4 19.9 5 29.6 5 45.2 0 85.2-34.3 85.2-80.2V144.2c0-45.9-40-80.2-85.2-80.2z" fill="#3A3644" p-id="1601"></path><path d="M286.6 705.6l-46.6-4V257.5l55.6-2.5 36.4-13.4v479.7z" fill="#FFA80D" p-id="1602"></path><path d="M307 277.5v408.7l-9.3-3.2-5.9-2.1-6.2-0.5-20.6-1.7V281.4l27.8-1.2 7.7-0.3 6.5-2.4m50-71.7l-66.4 24.4-75.6 3.4v491l66.3 5.6 75.7 26.2V205.8z" fill="#3A3644" p-id="1603"></path><path d="M758.8 865.5c-7.3 0-14.5-1.2-21.4-3.6l-15.4-5.3V98.3l15.6-5.7c6.9-2.4 14.1-3.6 21.2-3.6 33.2 0 60.2 24.8 60.2 55.2v666.1c0 14.7-6.2 28.5-17.5 38.8-11.4 10.4-26.9 16.4-42.7 16.4z" fill="#7E838C" p-id="1604"></path><path d="M758.8 114c9.6 0 19 3.6 25.8 9.8 4.3 3.9 9.4 10.6 9.4 20.4v666.1c0 9.8-5.1 16.5-9.4 20.4-6.8 6.2-16.2 9.8-25.8 9.8-4 0-7.9-0.6-11.8-1.8V115.8c3.9-1.2 7.9-1.8 11.8-1.8m0-50c-9.8 0-19.7 1.6-29.6 5L697 80.9v793.4l32.2 11.2c9.9 3.4 19.9 5 29.6 5 45.2 0 85.2-34.3 85.2-80.2V144.2c0-45.9-40-80.2-85.2-80.2z" fill="#3A3644" p-id="1605"></path></svg>