<?xml version="1.0" standalone="no"?><!DOCTYPE svg PUBLIC "-//W3C//DTD SVG 1.1//EN" "http://www.w3.org/Graphics/SVG/1.1/DTD/svg11.dtd"><svg t="1535394624431" class="icon" style="" viewBox="0 0 1102 1024" version="1.1" xmlns="http://www.w3.org/2000/svg" p-id="1237" xmlns:xlink="http://www.w3.org/1999/xlink" width="215.234375" height="200"><defs><style type="text/css"></style></defs><path d="M1053.882947 564.655198c-12.828721-93.056096-58.590875-178.931937-128.957367-241.735228-25.561705-22.881077-53.516829-42.698579-83.00374-58.973822-71.802543-41.358265-171.655946-66.05834-267.10546-66.058339-37.911743 0-75.249065 3.733732-111.150337 11.009723-46.240838-22.115183-103.108452-33.8908-164.667165-33.890801-15.700823 0-31.880329 0.765894-47.868362 2.297682-26.710546 2.297681-50.357517 17.807031-63.186238 41.454001-12.350037 22.689604-12.732984 50.357517-1.14884 74.004488l24.795811 49.97457C181.146971 373.947644 156.638369 408.412865 138.639865 445.36724H119.971204c-42.315632 0-77.45101 33.124907-80.035901 75.344802v121.394166c1.723261 28.33807 17.998504 53.133882 43.560209 66.249813l49.40015 25.274495c29.869858 67.398654 83.00374 128.957367 149.732236 173.666417v31.688856c0 46.910995 38.29469 85.014211 85.397158 85.014211h92.864622c23.07255 0 45.762154-12.254301 67.302917-36.475692 17.424084 1.244577 50.26178 2.489155 83.00374 2.489155 21.827973 0 39.922214-0.57442 52.655198-1.723261 15.030666 23.646971 36.858639 35.709798 65.005236 35.709798h97.747195c36.092745 0 62.133134-17.807031 71.515333-48.729993 3.925206-13.881825 3.446522-25.370232 3.063575-33.124906-0.670157-9.382199-0.382947-9.573672 1.340314-11.10546 81.280479-74.866118 104.831713-112.394914 138.81825-194.728497l0.095737-0.28721 0.095736-0.28721c10.626776-50.166043 21.157816-109.044129 12.350038-171.081526z" fill="#F39919" p-id="1238"></path><path d="M434.179132 51.697831a11.584144 2.201945 90 1 0 4.40389 0 11.584144 2.201945 90 1 0-4.40389 0Z" fill="#D8281C" p-id="1239"></path><path d="M444.497541 50.215a11.584144 2.201945 60 1 0 3.81388-2.201945 11.584144 2.201945 60 1 0-3.81388 2.201945Z" fill="#D8281C" p-id="1240"></path><path d="M452.792147 43.85296a11.584144 2.201945 30 1 0 2.201945-3.81388 11.584144 2.201945 30 1 0-2.201945 3.81388Z" fill="#D8281C" p-id="1241"></path><path d="M445.188856 31.976066a11.584144 2.201945 0 1 0 23.168287 0 11.584144 2.201945 0 1 0-23.168287 0Z" fill="#D8281C" p-id="1242"></path><path d="M444.256194 27.698155a2.201945 11.584144 60 1 0 20.064325-11.584144 2.201945 11.584144 60 1 0-20.064325 11.584144Z" fill="#D8281C" p-id="1243"></path><path d="M441.273966 24.514511a2.201945 11.584144 30 1 0 11.584143-20.064325 2.201945 11.584144 30 1 0-11.584143 20.064325Z" fill="#D8281C" p-id="1244"></path><path d="M434.849289 11.584144a11.584144 2.201945 90 1 0 4.40389 0 11.584144 2.201945 90 1 0-4.40389 0Z" fill="#D8281C" p-id="1245"></path><path d="M425.09104 15.17092a11.584144 2.201945 60 1 0 3.81388-2.201945 11.584144 2.201945 60 1 0-3.81388 2.201945Z" fill="#D8281C" p-id="1246"></path><path d="M418.418962 23.169331a11.584144 2.201945 30 1 0 2.201945-3.81388 11.584144 2.201945 30 1 0-2.201945 3.81388Z" fill="#D8281C" p-id="1247"></path><path d="M405.075168 31.210172a11.584144 2.201945 0 1 0 23.168287 0 11.584144 2.201945 0 1 0-23.168287 0Z" fill="#D8281C" p-id="1248"></path><path d="M409.129203 47.152524a2.201945 11.584144 60 1 0 20.064326-11.584144 2.201945 11.584144 60 1 0-20.064326 11.584144Z" fill="#D8281C" p-id="1249"></path><path d="M420.590337 58.887696a2.201945 11.584144 30 1 0 11.584144-20.064325 2.201945 11.584144 30 1 0-11.584144 20.064325Z" fill="#D8281C" p-id="1250"></path><path d="M398.756545 112.203441m-14.073299 0a14.073298 14.073298 0 1 0 28.146597 0 14.073298 14.073298 0 1 0-28.146597 0Z" fill="#2C60A4" p-id="1251"></path><path d="M160.563575 115.267016c5.55273-2.872102 8.424832-8.520568 6.318624-12.637248l-41.166791-79.652954C123.6092 18.860135 117.386313 17.902767 111.833583 20.774869S103.408751 29.295438 105.514959 33.412117l41.166791 79.652954c2.010471 4.116679 8.233358 5.074046 13.881825 2.201945z" fill="#7BC3D8" p-id="1252"></path><path d="M183.348915 43.655946c-2.872102-5.55273-8.520568-8.424832-12.637247-6.318624l-79.652954 41.166792C87.037771 80.610322 85.984667 86.928945 88.856769 92.481675c2.872102 5.55273 8.520568 8.424832 12.637247 6.318624l79.652955-41.166791c4.116679-2.106208 5.074046-8.424832 2.201944-13.977562z" fill="#7BC3D8" p-id="1253"></path><path d="M29.78721 187.452506m-28.529544 0a28.529544 28.529544 0 1 0 57.059088 0 28.529544 28.529544 0 1 0-57.059088 0Z" fill="#E07373" p-id="1254"></path><path d="M278.702693 10.81825c19.721765 0 35.709798 15.892296 35.709798 35.422588s-16.08377 35.422588-35.709798 35.422588c-19.721765 0-35.709798-15.892296-35.709798-35.422588s15.988033-35.422588 35.709798-35.422588z m0 61.36724c14.551982 0 26.327599-11.67988 26.327599-26.040389S293.254675 20.104712 278.702693 20.104712c-14.456245 0-26.327599 11.67988-26.3276 26.040389s11.871354 26.040389 26.3276 26.040389z" fill="#D7304F" p-id="1255"></path><path d="M292.010097 434.357517c-19.147345 0-34.656694 15.509349-34.656694 34.656694 0 19.147345 15.509349 34.656694 34.656694 34.656694 19.147345 0 34.656694-15.509349 34.656694-34.656694 0-19.147345-15.605086-34.656694-34.656694-34.656694z" fill="" p-id="1256"></path><path d="M292.010097 468.918474m-31.688855 0a31.688856 31.688856 0 1 0 63.377711 0 31.688856 31.688856 0 1 0-63.377711 0Z" fill="" p-id="1257"></path></svg>