<?xml version="1.0" standalone="no"?><!DOCTYPE svg PUBLIC "-//W3C//DTD SVG 1.1//EN" "http://www.w3.org/Graphics/SVG/1.1/DTD/svg11.dtd"><svg t="1535394560094" class="icon" style="" viewBox="0 0 1024 1024" version="1.1" xmlns="http://www.w3.org/2000/svg" p-id="1132" xmlns:xlink="http://www.w3.org/1999/xlink" width="200" height="200"><defs><style type="text/css"></style></defs><path d="M512 512m-512 0a512 512 0 1 0 1024 0 512 512 0 1 0-1024 0Z" fill="#FFFFFF" p-id="1133"></path><path d="M555.2 200V538.4H217.6c6.4 173.6 149.6 312.8 324.8 312.8 179.2 0 324.8-145.6 324.8-325.6 0-176-138.4-319.2-312-325.6z" fill="#D6F1FF" p-id="1134"></path><path d="M542.4 864C360 864 212 720.8 204.8 538.4l-0.8-12.8h337.6V187.2l12.8 0.8c183.2 6.4 325.6 155.2 325.6 337.6C880 712 728.8 864 542.4 864z m-312-313.6c12.8 163.2 147.2 288.8 312 288.8 172.8 0 312.8-140.8 312.8-313.6 0-164.8-125.6-300-288-312.8v337.6H230.4z" fill="#333333" p-id="1135"></path><path d="M188 462.4h306.4V156.8c-166.4 6.4-300 140-306.4 305.6z" fill="#0072FF" p-id="1136"></path><path d="M507.2 475.2H175.2l0.8-13.6c6.4-171.2 146.4-310.4 317.6-316.8l13.6-0.8v331.2z m-305.6-25.6h280.8v-280c-148.8 12.8-268.8 132-280.8 280z" fill="#333333" p-id="1137"></path></svg>