<?xml version="1.0" standalone="no"?><!DOCTYPE svg PUBLIC "-//W3C//DTD SVG 1.1//EN" "http://www.w3.org/Graphics/SVG/1.1/DTD/svg11.dtd"><svg t="1535394531103" class="icon" style="" viewBox="0 0 1024 1024" version="1.1" xmlns="http://www.w3.org/2000/svg" p-id="1009" xmlns:xlink="http://www.w3.org/1999/xlink" width="200" height="200"><defs><style type="text/css"></style></defs><path d="M512 512m-512 0a512 512 0 1 0 1024 0 512 512 0 1 0-1024 0Z" fill="#FFFFFF" p-id="1010"></path><path d="M230.4 204.8h227.2c14.4 0 25.6 11.2 25.6 25.6v227.2c0 14.4-11.2 25.6-25.6 25.6H230.4c-14.4 0-25.6-11.2-25.6-25.6V230.4c0-14.4 11.2-25.6 25.6-25.6z" fill="#FFB900" p-id="1011"></path><path d="M457.6 496H230.4c-20.8 0-38.4-17.6-38.4-38.4V230.4c0-20.8 17.6-38.4 38.4-38.4h227.2c20.8 0 38.4 17.6 38.4 38.4v227.2c0 20.8-17.6 38.4-38.4 38.4zM230.4 217.6c-7.2 0-12.8 5.6-12.8 12.8v227.2c0 7.2 5.6 12.8 12.8 12.8h227.2c7.2 0 12.8-5.6 12.8-12.8V230.4c0-7.2-5.6-12.8-12.8-12.8H230.4z" fill="#333333" p-id="1012"></path><path d="M230.4 540.8h227.2c14.4 0 25.6 11.2 25.6 25.6v227.2c0 14.4-11.2 25.6-25.6 25.6H230.4c-14.4 0-25.6-11.2-25.6-25.6V566.4c0-14.4 11.2-25.6 25.6-25.6z" fill="#FFB900" p-id="1013"></path><path d="M457.6 832H230.4c-20.8 0-38.4-17.6-38.4-38.4V566.4c0-20.8 17.6-38.4 38.4-38.4h227.2c20.8 0 38.4 17.6 38.4 38.4v227.2c0 20.8-17.6 38.4-38.4 38.4zM230.4 553.6c-7.2 0-12.8 5.6-12.8 12.8v227.2c0 7.2 5.6 12.8 12.8 12.8h227.2c7.2 0 12.8-5.6 12.8-12.8V566.4c0-7.2-5.6-12.8-12.8-12.8H230.4z" fill="#333333" p-id="1014"></path><path d="M566.4 540.8h227.2c14.4 0 25.6 11.2 25.6 25.6v227.2c0 14.4-11.2 25.6-25.6 25.6H566.4c-14.4 0-25.6-11.2-25.6-25.6V566.4c0-14.4 11.2-25.6 25.6-25.6z" fill="#FFB900" p-id="1015"></path><path d="M793.6 832H566.4c-20.8 0-38.4-17.6-38.4-38.4V566.4c0-20.8 17.6-38.4 38.4-38.4h227.2c20.8 0 38.4 17.6 38.4 38.4v227.2c0 20.8-17.6 38.4-38.4 38.4zM566.4 553.6c-7.2 0-12.8 5.6-12.8 12.8v227.2c0 7.2 5.6 12.8 12.8 12.8h227.2c7.2 0 12.8-5.6 12.8-12.8V566.4c0-7.2-5.6-12.8-12.8-12.8H566.4z" fill="#333333" p-id="1016"></path><path d="M703.2 163.2c-8-8-20.8-8-28.8 0L515.2 322.4c-8 8-8 20.8 0 28.8l159.2 159.2c8 8 20.8 8 28.8 0l159.2-159.2c8-8 8-20.8 0-28.8L703.2 163.2z" fill="#FF7400" p-id="1017"></path><path d="M688.8 528.8c-8.8 0-17.6-3.2-23.2-9.6L505.6 360c-12.8-12.8-12.8-34.4 0-47.2l159.2-159.2c6.4-6.4 15.2-9.6 24-9.6s17.6 3.2 23.2 9.6l159.2 159.2c12.8 12.8 12.8 34.4 0 47.2L712 519.2c-6.4 6.4-14.4 9.6-23.2 9.6z m0-359.2c-2.4 0-4 0.8-5.6 2.4L524 331.2c-3.2 3.2-3.2 8 0 11.2l159.2 159.2c3.2 3.2 8 3.2 11.2 0l159.2-159.2c3.2-3.2 3.2-8 0-11.2L694.4 172c-1.6-1.6-4-2.4-5.6-2.4z" fill="#333333" p-id="1018"></path></svg>