<?xml version="1.0" standalone="no"?><!DOCTYPE svg PUBLIC "-//W3C//DTD SVG 1.1//EN" "http://www.w3.org/Graphics/SVG/1.1/DTD/svg11.dtd"><svg t="1535393676530" class="icon" style="" viewBox="0 0 1024 1024" version="1.1" xmlns="http://www.w3.org/2000/svg" p-id="1194" xmlns:xlink="http://www.w3.org/1999/xlink" width="200" height="200"><defs><style type="text/css"></style></defs><path d="M326.008826 236.527964h364.960302c8.422161 0 16.844322 9.825854 18.949862 22.459096l89.836382 701.846734a19.651709 19.651709 0 0 1-21.055402 22.459095H239.681678a19.651709 19.651709 0 0 1-20.353556-22.459095l90.538229-701.846734c1.403693-12.633241 9.825854-22.459095 16.142475-22.459096z" fill="#CCD1D9" p-id="1195"></path><path d="M191.254253 939.076545l646.400842 0 0 84.221608-646.400842 0 0-84.221608Z" fill="#656464" p-id="1196"></path><path d="M310.568198 433.04505h400.052638q17.546168 0 18.949862-5.614774L838.356942 249.863052s-18.248015-14.036935-32.28495-14.036935H213.011502c-14.036935 0-23.160942 10.527701-21.055402 14.036935L286.705409 421.113655a21.757249 21.757249 0 0 0 11.931394 9.825855z" fill="#656464" p-id="1197"></path><path d="M726.763311 0.005615h65.973593a43.514498 43.514498 0 0 1 44.216344 44.216344V259.688906a43.514498 43.514498 0 0 1-43.514497 44.216345h-561.477387A44.216344 44.216344 0 0 1 185.639479 259.688906V44.221959A44.216344 44.216344 0 0 1 229.855823 0.005615h70.184674v118.612098A21.757249 21.757249 0 0 0 326.008826 140.374962h56.147739a21.757249 21.757249 0 0 0 21.757248-21.757249V0.005615h218.976182v118.612098a21.757249 21.757249 0 0 0 21.757248 21.757249h59.656973a21.757249 21.757249 0 0 0 21.757248-21.757249z" fill="#CCD1D9" p-id="1198"></path></svg>