<?xml version="1.0" standalone="no"?><!DOCTYPE svg PUBLIC "-//W3C//DTD SVG 1.1//EN" "http://www.w3.org/Graphics/SVG/1.1/DTD/svg11.dtd"><svg t="1535393570039" class="icon" style="" viewBox="0 0 1024 1024" version="1.1" xmlns="http://www.w3.org/2000/svg" p-id="970" xmlns:xlink="http://www.w3.org/1999/xlink" width="200" height="200"><defs><style type="text/css"></style></defs><path d="M754.4 925.6c-6.1 0-12.1-3.3-15.2-9.1-11.4-21.2-17.4-43.1-17.9-65.2-0.6-25.6 7.6-43.1 14.2-57 6.5-13.8 9.5-20.9 6.3-31.5-4.1-13.6-12.1-22.8-20.7-32.5-10.7-12.1-22.7-25.8-23.6-47-1.2-29.5 19.5-57.8 63.2-86.4 8-5.2 18.6-3 23.8 5 5.2 7.9 3 18.6-5 23.8-31.8 20.8-48.3 40.3-47.7 56.2 0.4 8.6 5.4 14.7 15.1 25.7 9.6 10.9 21.6 24.5 27.8 45.3 7.1 23.6-1 40.8-8.1 56-5.8 12.4-11.3 24.1-10.9 41.6 0.4 16.6 5 33.3 13.8 49.7 4.5 8.4 1.4 18.8-7 23.3-2.5 1.4-5.3 2.1-8.1 2.1z" fill="#4C4848" p-id="971"></path><path d="M742.5 497.1l66 114.3h-132z" fill="#5CCFEA" p-id="972"></path><path d="M808.5 628.6h-132c-6.2 0-11.8-3.3-14.9-8.6-3.1-5.3-3.1-11.9 0-17.2l66-114.3c6.2-10.7 23.7-10.7 29.8 0l66 114.3c3.1 5.3 3.1 11.9 0 17.2-3.1 5.3-8.8 8.6-14.9 8.6z m-102.2-34.5h72.3l-36.2-62.6-36.1 62.6z" fill="#4C4848" p-id="973"></path><path d="M582.3 335.9a160.2 220.5 0 1 0 320.4 0 160.2 220.5 0 1 0-320.4 0Z" fill="#80D4EE" p-id="974"></path><path d="M742.5 573.7c-97.8 0-177.4-106.7-177.4-237.8S644.7 98.2 742.5 98.2 919.9 204.9 919.9 336s-79.6 237.7-177.4 237.7z m0-441.1c-78.9 0-143 91.2-143 203.3s64.2 203.3 143 203.3 143-91.2 143-203.3-64.2-203.3-143-203.3z" fill="#4C4848" p-id="975"></path><path d="M834.5 415.1c-0.7 0-1.4-0.1-2.1-0.2-4.6-1.1-7.4-5.8-6.3-10.4 1-4.1 1.9-8.2 2.7-12.4 0.9-4.7 5.4-7.7 10.1-6.8 4.7 0.9 7.7 5.4 6.8 10.1-0.9 4.4-1.8 8.8-2.9 13.1-0.9 3.9-4.5 6.6-8.3 6.6zM842.8 355.5h-0.4c-4.7-0.2-8.4-4.2-8.2-8.9 1.8-43.2-6-84.8-22.4-120.3-2-4.3-0.1-9.4 4.2-11.4s9.4-0.1 11.4 4.2c17.5 37.9 25.8 82.3 23.9 128.2-0.1 4.6-3.9 8.2-8.5 8.2z" fill="#D6F5FC" p-id="976"></path><path d="M279.9 497.1l-66 114.3h131.9z" fill="#F9A369" p-id="977"></path><path d="M345.8 628.6H213.9c-6.2 0-11.8-3.3-14.9-8.6-3.1-5.3-3.1-11.9 0-17.2l66-114.3c3.1-5.3 8.8-8.6 14.9-8.6 6.2 0 11.8 3.3 14.9 8.6l66 114.3c3.1 5.3 3.1 11.9 0 17.2-3.1 5.3-8.8 8.6-15 8.6z m-102.1-34.5H316l-36.2-62.6-36.1 62.6z" fill="#4C4848" p-id="978"></path><path d="M268 925.6c-2.7 0-5.5-0.7-8.1-2.1-8.4-4.5-11.5-14.9-7-23.3 8.8-16.4 13.4-33.1 13.8-49.7 0.4-17.6-5.1-29.3-10.9-41.6-7.1-15.2-15.2-32.4-8.1-56 6.2-20.8 18.2-34.4 27.8-45.3 9.7-11 14.7-17.1 15.1-25.7 0.7-15.9-15.8-35.3-47.7-56.2-8-5.2-10.2-15.9-5-23.8 5.2-8 15.9-10.2 23.8-5 43.8 28.6 64.4 56.9 63.2 86.4-0.9 21.2-12.9 34.9-23.6 47-8.5 9.7-16.6 18.9-20.7 32.5-3.2 10.5-0.2 17.6 6.3 31.5 6.6 14 14.8 31.4 14.2 57-0.5 22.1-6.5 44-17.9 65.2-3.2 5.8-9.1 9.1-15.2 9.1z" fill="#4C4848" p-id="979"></path><path d="M119.7 335.9a160.2 220.5 0 1 0 320.4 0 160.2 220.5 0 1 0-320.4 0Z" fill="#FFCC00" p-id="980"></path><path d="M279.9 573.7c-97.8 0-177.4-106.7-177.4-237.8S182 98.2 279.9 98.2c97.8 0 177.4 106.7 177.4 237.8s-79.6 237.7-177.4 237.7z m0-441.1c-78.9 0-143 91.2-143 203.3s64.2 203.3 143 203.3 143-91.2 143-203.3-64.2-203.3-143-203.3z" fill="#4C4848" p-id="981"></path><path d="M187.9 415.1c-3.9 0-7.4-2.6-8.4-6.6-1.1-4.3-2-8.7-2.9-13.1-0.9-4.7 2.1-9.2 6.8-10.1 4.7-0.9 9.2 2.1 10.1 6.8 0.8 4.2 1.7 8.3 2.7 12.4 1.1 4.6-1.7 9.3-6.3 10.4-0.6 0.1-1.3 0.2-2 0.2zM179.5 355.5c-4.6 0-8.4-3.6-8.6-8.3-1.9-46 6.4-90.3 23.9-128.2 2-4.3 7.1-6.2 11.4-4.2 4.3 2 6.2 7.1 4.2 11.4-16.4 35.4-24.1 77-22.4 120.3 0.2 4.7-3.5 8.8-8.2 8.9 0 0.1-0.1 0.1-0.3 0.1z" fill="#FFF1D2" p-id="982"></path><path d="M499.3 925.6c-2.7 0-5.5-0.7-8.1-2.1-8.4-4.5-11.5-14.9-7-23.3 8.8-16.4 13.4-33.1 13.8-49.7 0.4-17.6-5.1-29.3-10.9-41.6-7.1-15.2-15.2-32.4-8.1-56 6.2-20.8 18.2-34.4 27.8-45.3 9.7-11 14.7-17.1 15.1-25.7 0.7-15.9-15.8-35.3-47.7-56.2-8-5.2-10.2-15.9-5-23.8 5.2-8 15.9-10.2 23.8-5 43.8 28.6 64.4 56.9 63.2 86.4-0.9 21.2-12.9 34.9-23.6 47-8.5 9.7-16.6 18.9-20.7 32.5-3.2 10.5-0.2 17.6 6.3 31.5 6.6 14 14.8 31.4 14.2 57-0.5 22.1-6.5 44-17.9 65.2-3.2 5.8-9.1 9.1-15.2 9.1z" fill="#4C4848" p-id="983"></path><path d="M511.2 497.1l-66 114.3h131.9z" fill="#FC3838" p-id="984"></path><path d="M577.1 628.6H445.2c-6.2 0-11.8-3.3-14.9-8.6-3.1-5.3-3.1-11.9 0-17.2l66-114.3c3.1-5.3 8.8-8.6 14.9-8.6 6.2 0 11.8 3.3 14.9 8.6l66 114.3c3.1 5.3 3.1 11.9 0 17.2-3.1 5.3-8.8 8.6-15 8.6zM475 594.1h72.3l-36.2-62.6-36.1 62.6z" fill="#4C4848" p-id="985"></path><path d="M351 335.9a160.2 220.5 0 1 0 320.4 0 160.2 220.5 0 1 0-320.4 0Z" fill="#FF5A5A" p-id="986"></path><path d="M511.2 573.7c-97.8 0-177.4-106.7-177.4-237.8S413.3 98.2 511.2 98.2 688.6 204.9 688.6 336 609 573.7 511.2 573.7z m0-441.1c-78.9 0-143 91.2-143 203.3s64.2 203.3 143 203.3 143-91.2 143-203.3-64.2-203.3-143-203.3z" fill="#4C4848" p-id="987"></path><path d="M419.2 415.1c-3.9 0-7.4-2.6-8.4-6.6-1.1-4.3-2-8.7-2.9-13.1-0.9-4.7 2.1-9.2 6.8-10.1 4.7-0.9 9.2 2.1 10.1 6.8 0.8 4.2 1.7 8.3 2.7 12.4 1.1 4.6-1.7 9.3-6.3 10.4-0.6 0.1-1.3 0.2-2 0.2zM410.9 355.5c-4.6 0-8.4-3.6-8.6-8.3-1.9-46 6.4-90.3 23.9-128.2 2-4.3 7.1-6.2 11.4-4.2 4.3 2 6.2 7.1 4.2 11.4-16.4 35.4-24.1 77-22.4 120.3 0.2 4.7-3.5 8.8-8.2 8.9-0.1 0.1-0.2 0.1-0.3 0.1z" fill="#F9D4D4" p-id="988"></path></svg>