<?xml version="1.0" standalone="no"?><!DOCTYPE svg PUBLIC "-//W3C//DTD SVG 1.1//EN" "http://www.w3.org/Graphics/SVG/1.1/DTD/svg11.dtd"><svg t="1535393590163" class="icon" style="" viewBox="0 0 1024 1024" version="1.1" xmlns="http://www.w3.org/2000/svg" p-id="1353" xmlns:xlink="http://www.w3.org/1999/xlink" width="200" height="200"><defs><style type="text/css"></style></defs><path d="M793.7 273.7H512.2c-66 0-119.5 53.5-119.5 119.5s53.5 119.5 119.5 119.5h281.5c66 0 119.5-53.5 119.5-119.5s-53.5-119.5-119.5-119.5z m-2 184.1H443.3c-22.4 0-40.6-18.2-40.6-40.6v-48c0-22.4 18.2-40.6 40.6-40.6h348.4c35.7 0 64.6 28.9 64.6 64.6s-29 64.6-64.6 64.6z" fill="#F4CA19" p-id="1354"></path><path d="M793.7 527.5H512.2c-74.1 0-134.3-60.2-134.3-134.3s60.2-134.3 134.3-134.3h281.5c74.1 0 134.3 60.2 134.3 134.3s-60.2 134.3-134.3 134.3z m-349.6-54.9c18.3 15.7 42.1 25.2 68.1 25.2h281.5c57.7 0 104.6-46.9 104.6-104.7 0-57.7-46.9-104.6-104.6-104.6H512.2c-26 0-49.7 9.5-68.1 25.2h347.5c43.8 0 79.4 35.6 79.4 79.4s-35.6 79.4-79.4 79.4H444.1z m-0.8-129.2c-14.2 0-25.8 11.6-25.8 25.8v48c0 14.2 11.6 25.8 25.8 25.8h348.4c27.5 0 49.8-22.3 49.8-49.8 0-27.5-22.3-49.8-49.8-49.8H443.3z" fill="#4C4848" p-id="1355"></path><path d="M643.7 770.6S561.6 621 566.2 522.3c1.2-26.5 145.3-91.1 123.6-38.5-36 86.9 68.3 219 68.3 219 11.1 35.7-8.8 73.7-44.5 84.9l-23.5 7.3c-19.5 6.1-40.3-4.8-46.4-24.4z" fill="#80D4EE" p-id="1356"></path><path d="M679.1 811.5c-21.6 0-41.7-13.6-49.1-35-8.5-15.6-83.2-156.8-78.6-254.9 1.5-32.1 78.1-61.4 81.3-62.6 34-12.9 56.1-13.4 67.5-1.7 4.4 4.5 10.6 14.6 3.3 32.1-32.3 77.9 65.3 202.9 66.3 204.2 1.1 1.4 2 3 2.5 4.8 6.6 21.1 4.5 43.4-5.7 63-10.3 19.5-27.5 33.9-48.6 40.5l-23.5 7.3c-5.1 1.5-10.3 2.3-15.4 2.3zM581 524.1c-3.7 93.6 74.9 238 75.7 239.4 0.5 0.9 0.9 1.8 1.1 2.7 3.7 11.7 16.1 18.3 27.9 14.6l23.5-7.3c13.5-4.2 24.6-13.4 31.1-26 6.2-11.8 7.7-25.2 4.3-38-14.7-19.2-105-143.1-68.6-231.4h-0.5c-22.3 0.1-86.4 30.4-94.5 46z" fill="#4C4848" p-id="1357"></path><path d="M472.6 689.5s42.2-77 39.9-127.9c-0.6-13.7-74.8-46.9-63.6-19.8 18.5 44.7-35.2 112.8-35.2 112.8-5.7 18.4 4.5 38 22.9 43.7l12.1 3.8c10 3 20.7-2.6 23.9-12.6z" fill="#EE655F" p-id="1358"></path><path d="M454.3 717.7c-3.3 0-6.7-0.5-10.1-1.5l-12.1-3.8c-12.7-3.9-23.1-12.6-29.2-24.4-6.2-11.8-7.4-25.2-3.4-37.9 0.5-1.7 1.4-3.3 2.5-4.8 13.4-17.1 45.5-67.9 33.1-97.9-5.5-13.3 0.4-21.4 3.2-24.3 8.1-8.3 22-8.6 42.5-0.8 10.7 4 45.6 18.8 46.5 38.6 2.4 51.5-35.5 124.1-41.1 134.5-5 13.6-17.9 22.3-31.9 22.3z m-27.1-56.5c-0.9 4.4-0.2 9 2 13.1 2.5 4.7 6.7 8.2 11.8 9.8l12.1 3.8c1.3 0.4 2.5 0.1 3.2-0.3 0.7-0.4 1.7-1.1 2.1-2.5 0.3-0.9 0.7-1.9 1.1-2.7 0.4-0.7 38.6-70.9 38.2-117.1-5.2-5.2-20.4-12.9-31.6-16.7 8.8 45.6-28.6 99-38.9 112.6z" fill="#4C4848" p-id="1359"></path><path d="M791.5 568.9H258.2c-1.2 0-2.2-1-2.2-2.2V390.2c0-1.2 1-2.2 2.2-2.2h533.3c1.2 0 2.2 1 2.2 2.2v176.5c0 1.2-1 2.2-2.2 2.2z" fill="#80D4EE" p-id="1360"></path><path d="M761.3 583.7H288.5c-26.1 0-47.3-21.2-47.3-47.3v-116c0-26.1 21.2-47.3 47.3-47.3h472.8c26.1 0 47.3 21.2 47.3 47.3v116c-0.1 26.1-21.3 47.3-47.3 47.3zM288.5 402.8c-9.7 0-17.6 7.9-17.6 17.6v116c0 9.7 7.9 17.6 17.6 17.6h472.8c9.7 0 17.6-7.9 17.6-17.6v-116c0-9.7-7.9-17.6-17.6-17.6H288.5z" fill="#4C4848" p-id="1361"></path><path d="M256 528.4h-69.9c-1.2 0-2.2-1-2.2-2.2v-95.7c0-1.2 1-2.2 2.2-2.2H256v100.1z" fill="#F4CA19" p-id="1362"></path><path d="M256 543.2h-39.9c-25.9 0-47-21.1-47-47v-35.6c0-25.9 21.1-47 47-47H256c8.2 0 14.8 6.6 14.8 14.8v100c0 8.2-6.6 14.8-14.8 14.8z m-39.9-100c-9.6 0-17.4 7.8-17.4 17.4v35.6c0 9.6 7.8 17.4 17.4 17.4h25.1v-70.4h-25.1z" fill="#4C4848" p-id="1363"></path><path d="M183.9 508.6h-70.1c-1.1 0-2-0.9-2-2v-56.4c0-1.1 0.9-2 2-2h70.1v60.4z" fill="#F4CA19" p-id="1364"></path><path d="M183.9 523.4h-42.2c-24.7 0-44.8-20.1-44.8-44.8 0-25.2 20.1-45.3 44.8-45.3h42.2c8.2 0 14.8 6.6 14.8 14.8v60.4c0 8.3-6.6 14.9-14.8 14.9zM141.8 463c-8.3 0-15.1 6.8-15.1 15.1 0 8.9 6.8 15.7 15.1 15.7h27.3V463h-27.3z" fill="#4C4848" p-id="1365"></path><path d="M580 387.9h53v181h-53z" fill="#EE655F" p-id="1366"></path><path d="M633 583.7h-53c-8.2 0-14.8-6.6-14.8-14.8v-181c0-8.2 6.6-14.8 14.8-14.8h53c8.2 0 14.8 6.6 14.8 14.8v181c0 8.2-6.6 14.8-14.8 14.8z m-38.2-29.6h23.4V402.7h-23.4v151.4z" fill="#4C4848" p-id="1367"></path><path d="M666.2 387.9h-265c-43.4 0-78.6-35.2-78.6-78.6v-3.2c0-43.4 35.2-78.6 78.6-78.6h265c43.4 0 78.6 35.2 78.6 78.6v3.2c-0.1 43.4-35.2 78.6-78.6 78.6z" fill="#FFD886" p-id="1368"></path><path d="M664.6 402.7H402.8c-52.5 0-95-42.5-95-95s42.5-95 95-95h261.8c52.5 0 95 42.5 95 95s-42.6 95-95 95zM402.8 242.4c-36.1 0-65.3 29.2-65.3 65.3 0 36.1 29.2 65.3 65.3 65.3h261.8c36.1 0 65.3-29.3 65.3-65.3 0-36.1-29.3-65.3-65.3-65.3H402.8z" fill="#4C4848" p-id="1369"></path><path d="M506.9 227.5h53.5v160.3h-53.5z" fill="#FFBD53" p-id="1370"></path><path d="M560.4 402.7h-53.5c-8.2 0-14.8-6.6-14.8-14.8V227.5c0-8.2 6.6-14.8 14.8-14.8h53.5c8.2 0 14.8 6.6 14.8 14.8v160.3c0 8.2-6.6 14.9-14.8 14.9zM521.7 373h23.8V242.4h-23.8V373z" fill="#4C4848" p-id="1371"></path></svg>