<?xml version="1.0" standalone="no"?><!DOCTYPE svg PUBLIC "-//W3C//DTD SVG 1.1//EN" "http://www.w3.org/Graphics/SVG/1.1/DTD/svg11.dtd"><svg t="1535393484031" class="icon" style="" viewBox="0 0 1024 1024" version="1.1" xmlns="http://www.w3.org/2000/svg" p-id="1106" xmlns:xlink="http://www.w3.org/1999/xlink" width="200" height="200"><defs><style type="text/css"></style></defs><path d="M119.6 288.6v622.6h565.8v-796H305.7z" fill="#F7F9F9" p-id="1107"></path><path d="M685.4 928.5H119.6c-9.5 0-17.2-7.7-17.2-17.2V288.6c0-4.8 2-9.4 5.5-12.6L294 102.6c3.2-3 7.4-4.6 11.7-4.6h379.6c9.5 0 17.2 7.7 17.2 17.2v796c0.1 9.5-7.6 17.3-17.1 17.3zM136.8 894h531.3V132.5H312.5L136.8 296.1V894z" fill="#4C4848" p-id="1108"></path><path d="M212.4 202.1l92.7-86.9V289H119.6z" fill="#EAEAEA" p-id="1109"></path><path d="M305.1 306.2H119.6c-7.1 0-13.4-4.3-16-10.9-2.6-6.6-0.9-14.1 4.2-18.9l92.8-86.9 92.8-86.9c5-4.7 12.4-5.9 18.6-3.2 6.3 2.7 10.4 8.9 10.4 15.8V289c0 9.5-7.7 17.2-17.3 17.2z m-141.9-34.5h124.7V155l-63.8 59.7-60.9 57z" fill="#4C4848" p-id="1110"></path><path d="M288.9 579.2c-38.9 0-73.2-28.2-79.6-67.8-3.4-21.3 1.6-42.6 14.2-60.1s31.3-29 52.5-32.4c21.2-3.5 42.6 1.6 60 14.2s29 31.3 32.4 52.5c7.1 43.9-22.8 85.4-66.7 92.5-4.2 0.7-8.5 1.1-12.8 1.1z m0.2-144.1c-3.4 0-6.8 0.3-10.3 0.8-16.7 2.7-31.4 11.8-41.3 25.5-9.9 13.7-13.9 30.5-11.2 47.2 5.6 34.5 38.2 57.9 72.7 52.5 34.5-5.6 58-38.2 52.5-72.7-2.7-16.7-11.8-31.4-25.5-41.3-10.9-7.8-23.7-12-36.9-12z" fill="#4C4848" p-id="1111"></path><path d="M300.5 569.6L320.7 695" fill="#EAEAEA" p-id="1112"></path><path d="M320.7 703.6c-4.2 0-7.8-3-8.5-7.2L292 571c-0.8-4.7 2.4-9.1 7.1-9.9 4.8-0.8 9.1 2.4 9.9 7.1l20.3 125.4c0.8 4.7-2.4 9.1-7.1 9.9-0.5 0.1-1 0.1-1.5 0.1zM281 803.6c-0.8 0-1.7-0.1-2.5-0.4-4.6-1.4-7.1-6.2-5.7-10.8l21.8-71.9c1.4-4.5 6.2-7.1 10.7-5.7 4.6 1.4 7.1 6.2 5.7 10.8l-21.8 71.9c-1.1 3.7-4.5 6.1-8.2 6.1zM432.3 783c-1.9 0-3.9-0.6-5.5-2l-75.5-62c-3.7-3-4.2-8.4-1.2-12.1 3-3.7 8.4-4.2 12.1-1.2l75.5 62c3.7 3 4.2 8.4 1.2 12.1-1.6 2.2-4.1 3.2-6.6 3.2zM340.2 636.1c-2.5 0-4.9-1-6.6-3.1-3.1-3.6-2.6-9.1 1.1-12.1l37.5-31.5c3.7-3.1 9.1-2.6 12.1 1.1 3.1 3.6 2.6 9.1-1.1 12.1l-37.5 31.5c-1.6 1.4-3.6 2-5.5 2z" fill="#4C4848" p-id="1113"></path><path d="M237.5 640c-3.2 0-6.3-1.8-7.8-4.9-2-4.3-0.2-9.4 4.1-11.5l40.5-19.3c4.3-2.1 9.4-0.2 11.5 4.1 2 4.3 0.2 9.4-4.1 11.5l-40.5 19.3c-1.2 0.6-2.4 0.8-3.7 0.8z" fill="#4C4848" p-id="1114"></path><path d="M829.234 185.406l77.167 69.582-351.928 390.289-77.166-69.582z" fill="#FFBD53" p-id="1115"></path><path d="M554.5 662.5c-4.2 0-8.4-1.6-11.5-4.4l-77.2-69.6c-7.1-6.4-7.6-17.3-1.3-24.3L816.4 174c3.1-3.4 7.3-5.4 11.9-5.7 4.6-0.3 9 1.3 12.4 4.4l77.2 69.6c7.1 6.4 7.6 17.3 1.3 24.3L567.3 656.8c-3.1 3.4-7.3 5.4-11.9 5.7h-0.9z m-52.8-88.1l51.6 46.5 328.8-364.6-51.6-46.5-328.8 364.6z" fill="#4C4848" p-id="1116"></path><path d="M516.5 627c-4.1 0-8.2-1.5-11.5-4.4-7.1-6.4-7.6-17.3-1.3-24.3l349-387c6.4-7.1 17.3-7.6 24.3-1.2 7.1 6.4 7.6 17.3 1.3 24.3l-349 387c-3.4 3.7-8.1 5.6-12.8 5.6z" fill="#4C4848" p-id="1117"></path><path d="M477.9 575l-13.5 92.6 90.1-22.4z" fill="#FFD886" p-id="1118"></path><path d="M464.3 684.9c-4.2 0-8.4-1.6-11.6-4.5-4.3-3.9-6.3-9.6-5.5-15.3l13.6-92.6c0.9-6.3 5.3-11.6 11.3-13.7 6-2.1 12.7-0.8 17.4 3.5l76.6 70.2c4.7 4.3 6.6 10.8 5.1 17-1.6 6.1-6.4 10.9-12.5 12.5l-90.2 22.4c-1.4 0.3-2.8 0.5-4.2 0.5z m26-75.2l-5.1 35 34.1-8.5-29-26.5z" fill="#4C4848" p-id="1119"></path></svg>