<?xml version="1.0" standalone="no"?><!DOCTYPE svg PUBLIC "-//W3C//DTD SVG 1.1//EN" "http://www.w3.org/Graphics/SVG/1.1/DTD/svg11.dtd"><svg t="1535394837692" class="icon" style="" viewBox="0 0 1024 1024" version="1.1" xmlns="http://www.w3.org/2000/svg" p-id="2545" xmlns:xlink="http://www.w3.org/1999/xlink" width="200" height="200"><defs><style type="text/css"></style></defs><path d="M643.186618 148.445114a11.1 11.1 0 1 0 21.820951-4.084863 11.1 11.1 0 1 0-21.820951 4.084863Z" fill="#E61F19" p-id="2546"></path><path d="M450.7 47.3a12.9 2.4 0 1 0 25.8 0 12.9 2.4 0 1 0-25.8 0Z" fill="#E61F19" p-id="2547"></path><path d="M449.632926 42.665366a2.4 12.9 60 1 0 22.343455-12.9 2.4 12.9 60 1 0-22.343455 12.9Z" fill="#E61F19" p-id="2548"></path><path d="M446.371794 39.091476a2.4 12.9 30 1 0 12.9-22.343455 2.4 12.9 30 1 0-12.9 22.343455Z" fill="#E61F19" p-id="2549"></path><path d="M439.3 24.6a2.4 12.9 0 1 0 4.8 0 2.4 12.9 0 1 0-4.8 0Z" fill="#E61F19" p-id="2550"></path><path d="M428.48418 28.588574a12.9 2.4 60 1 0 4.156922-2.4 12.9 2.4 60 1 0-4.156922 2.4Z" fill="#E61F19" p-id="2551"></path><path d="M421.097053 37.529356a12.9 2.4 30 1 0 2.4-4.156922 12.9 2.4 30 1 0-2.4 4.156922Z" fill="#E61F19" p-id="2552"></path><path d="M406.1 46.5a12.9 2.4 0 1 0 25.8 0 12.9 2.4 0 1 0-25.8 0Z" fill="#E61F19" p-id="2553"></path><path d="M410.646105 64.272553a2.4 12.9 60 1 0 22.343455-12.9 2.4 12.9 60 1 0-22.343455 12.9Z" fill="#E61F19" p-id="2554"></path><path d="M423.465517 77.246603a2.4 12.9 30 1 0 12.9-22.343455 2.4 12.9 30 1 0-12.9 22.343455Z" fill="#E61F19" p-id="2555"></path><path d="M438.5 69.2a2.4 12.9 0 1 0 4.8 0 2.4 12.9 0 1 0-4.8 0Z" fill="#E61F19" p-id="2556"></path><path d="M450.12285 67.680892a12.9 2.4 60 1 0 4.156922-2.4 12.9 2.4 60 1 0-4.156922 2.4Z" fill="#E61F19" p-id="2557"></path><path d="M459.289392 60.536088a12.9 2.4 30 1 0 2.4-4.156922 12.9 2.4 30 1 0-2.4 4.156922Z" fill="#E61F19" p-id="2558"></path><path d="M512.6 85.9c0-2.4 2-4.4 4.4-4.4h47.9c2.4 0 4.4 2 4.4 4.4s-2 4.4-4.4 4.4H517c-2.4 0-4.4-2-4.4-4.4z" fill="#EF8218" p-id="2559"></path><path d="M536.6 109.9V62c0-2.4 2-4.4 4.4-4.4 2.4 0 4.4 2 4.4 4.4v47.9c0 2.4-2 4.4-4.4 4.4-2.5-0.1-4.4-2-4.4-4.4z" fill="#EF8218" p-id="2560"></path><path d="M287.3 120c0-2.4 2-4.4 4.4-4.4h47.9c2.4 0 4.4 2 4.4 4.4s-2 4.4-4.4 4.4h-47.9c-2.4-0.1-4.4-2-4.4-4.4z" fill="#2C65AF" p-id="2561"></path><path d="M311.3 143.9V96c0-2.4 2-4.4 4.4-4.4 2.4 0 4.4 2 4.4 4.4v47.9c0 2.4-2 4.4-4.4 4.4-2.5 0-4.4-2-4.4-4.4z" fill="#2C65AF" p-id="2562"></path><path d="M132.8 190.5c0-21.9 17.6-39.7 39.3-39.7s39.3 17.8 39.3 39.7-17.6 39.7-39.3 39.7-39.3-17.8-39.3-39.7z m68.3 0c0-16.1-13-29.3-29-29.3s-29 13.1-29 29.3 13 29.2 29 29.2 29-13 29-29.2z" fill="#E62A52" p-id="2563"></path><path d="M541 172.9c-228.8 0-414.3 185.5-414.3 414.3s185.5 414.3 414.3 414.3S955.2 816 955.2 587.2c0.1-228.8-185.4-414.3-414.2-414.3z" fill="#5ECEF4" p-id="2564"></path><path d="M834.1 828.7c-2.4 0-4.8-0.7-6.9-2.1-5.8-3.8-7.3-11.6-3.5-17.4 43.7-65.8 66.9-142.6 66.9-222 0-221.5-180.2-401.8-401.7-401.8-60.4 0-118.4 13.1-172.5 38.8-20 9.5-39.3 20.8-57.5 33.5-5.7 4-13.5 2.6-17.4-3.1-4-5.7-2.6-13.5 3.1-17.4 19.3-13.5 39.9-25.5 61.1-35.6 28.1-13.4 57.6-23.6 87.9-30.5 31.1-7.1 63.2-10.7 95.4-10.7 57.6 0 113.5 11.3 166.1 33.6 50.9 21.5 96.5 52.3 135.7 91.5 39.2 39.2 70 84.8 91.5 135.7 22.2 52.6 33.6 108.5 33.6 166.1 0 84.4-24.6 165.9-71 235.9-2.8 3.5-6.7 5.5-10.8 5.5z" fill="" p-id="2565"></path><path d="M676.3 969.3c-4.6 0-9-2.5-11.2-6.9-3.2-6.2-0.7-13.7 5.5-16.8 44.4-22.5 83.8-52.9 117.2-90 4.6-5.2 12.5-5.6 17.7-1s5.6 12.5 1 17.7C771 911.8 729.2 944 682 967.9c-1.8 0.9-3.8 1.4-5.7 1.4z" fill="" p-id="2566"></path><path d="M488.8 1014c-57.6 0-113.5-11.3-166.1-33.6-50.9-21.5-96.5-52.3-135.7-91.5-39.2-39.2-70-84.8-91.5-135.6C73.3 700.7 62 644.8 62 587.2c0-35 4.3-69.8 12.6-103.5 1.7-6.7 8.5-10.8 15.2-9.1 6.7 1.7 10.8 8.5 9.1 15.2-7.8 31.6-11.9 64.4-11.9 97.4C87 808.7 267.3 989 488.8 989c45.3 0 89.7-7.5 132.1-22.2 6.5-2.3 13.7 1.2 15.9 7.7 2.3 6.5-1.2 13.7-7.7 15.9-45 15.7-92.2 23.6-140.3 23.6z" fill="" p-id="2567"></path><path d="M102.6 449.6c-1.5 0-3.1-0.3-4.6-0.9-6.5-2.5-9.6-9.8-7.1-16.2 16.7-42.8 40.1-82.5 69.5-118 4.4-5.3 12.3-6.1 17.6-1.6 5.3 4.4 6.1 12.3 1.6 17.6-27.7 33.4-49.7 70.7-65.4 111-1.9 5-6.6 8.1-11.6 8.1z" fill="" p-id="2568"></path><path d="M624.3 363.3c-33.9-17.2-79.7-51.9-106.8 22.2-27.1 74 1.2 82.8 36.1 100.6 24.4 12.4 1.8 72.1-24.8 126-26.7 53.9-60.1 108.1-84.6 95.7-35-17.8-58.8-35.5-100.9 30.8-42.2 66.4 12.5 82.9 46.4 100.1 39.1 19.9 139-44.7 210.8-190.2 71.7-145.4 62.8-265.3 23.8-285.2z" fill="" p-id="2569"></path><path d="M636 886.9c-4.4 0-8.7-2.4-11-6.5-3.3-6.1-1.1-13.7 5-17 22.2-12.2 43.1-26.2 62.1-41.5 3.6-2.9 6.9-5.6 9.8-7.9 17.1-13.7 24.1-19.3 38.4-36.6 4.4-5.4 12.3-6.2 17.6-1.8 5.4 4.4 6.2 12.3 1.8 17.6-15.9 19.4-24.6 26.4-42.1 40.3-2.9 2.3-6.2 4.9-9.7 7.8-20.1 16.3-42.3 31.1-65.8 43.9-2 1.2-4.1 1.7-6.1 1.7z m151.3-136.4c-2.5 0-5-0.7-7.1-2.3-5.7-4-7.1-11.7-3.2-17.4 4.4-6.3 8.7-12.9 12.7-19.4 2.2-3.5 4.3-7 6.3-10.5 3.5-6 11.1-8.1 17.1-4.6 6 3.5 8.1 11.1 4.6 17.1-2.2 3.7-4.4 7.5-6.6 11.1-4.3 6.9-8.8 13.8-13.4 20.5-2.5 3.6-6.4 5.5-10.4 5.5z" fill="#FFFFFF" p-id="2570"></path></svg>