<?xml version="1.0" standalone="no"?><!DOCTYPE svg PUBLIC "-//W3C//DTD SVG 1.1//EN" "http://www.w3.org/Graphics/SVG/1.1/DTD/svg11.dtd"><svg t="1535394198346" class="icon" style="" viewBox="0 0 1024 1024" version="1.1" xmlns="http://www.w3.org/2000/svg" p-id="2381" xmlns:xlink="http://www.w3.org/1999/xlink" width="200" height="200"><defs><style type="text/css"></style></defs><path d="M254 229.1H154v-56.7c0-5.5 4.5-10 10-10h80c5.5 0 10 4.5 10 10v56.7z" fill="#F44D5A" p-id="2382"></path><path d="M154 183h100v30.7H154z" fill="#D33145" p-id="2383"></path><path d="M347 199.1V114c0-13.8 11.2-25 25-25h280c13.8 0 25 11.2 25 25v85.1H347z" fill="#504D59" p-id="2384"></path><path d="M651.9 114s0.1 0.1 0 0l0.1 60.1H372v-60l0.1-0.1h279.8m0.1-50H372c-27.5 0-50 22.5-50 50v110.1h380V114c0-27.5-22.5-50-50-50z" fill="#3A3644" p-id="2385"></path><path d="M454.5 118.9h115v50h-115z" fill="#FCFCFC" p-id="2386"></path><path d="M488.3 168.9h-22v-50h22v50z m14.7-50h-10.3v50H503v-50z" fill="#E2E2E2" p-id="2387"></path><path d="M114 935c-13.8 0-25-11.2-25-25V250c0-13.8 11.2-25 25-25h796c13.8 0 25 11.2 25 25v660c0 13.8-11.2 25-25 25H114z" fill="#FFFFFF" p-id="2388"></path><path d="M909.9 250s0.1 0.1 0 0l0.1 659.9-0.1 0.1H114.1l-0.1-0.1V250.1l0.1-0.1h795.8m0.1-50H114c-27.5 0-50 22.5-50 50v660c0 27.5 22.5 50 50 50h796c27.5 0 50-22.5 50-50V250c0-27.5-22.5-50-50-50z" fill="#3A3644" p-id="2389"></path><path d="M114.1 910s-0.1-0.1 0 0l-0.1-70.8h511.6c137.9 0 250-112.1 250-250V250h34.3l0.1 0.1v659.8l-0.1 0.1H114.1z" fill="#B8B7BC" p-id="2390"></path><path d="M114 554.8h796v40H114z" fill="#F44D5A" p-id="2391"></path><path d="M114 594.8h796v40H114z" fill="#F2C34E" p-id="2392"></path><path d="M114 634.8h796v40H114z" fill="#92D976" p-id="2393"></path><path d="M512 580m-230 0a230 230 0 1 0 460 0 230 230 0 1 0-460 0Z" fill="#2F2C38" p-id="2394"></path><path d="M512 580m-209 0a209 209 0 1 0 418 0 209 209 0 1 0-418 0Z" fill="#3A3644" p-id="2395"></path><path d="M512 580m-122 0a122 122 0 1 0 244 0 122 122 0 1 0-244 0Z" fill="#282733" p-id="2396"></path><path d="M512 580m-97 0a97 97 0 1 0 194 0 97 97 0 1 0-194 0Z" fill="#47464F" p-id="2397"></path><path d="M512 580m-80 0a80 80 0 1 0 160 0 80 80 0 1 0-160 0Z" fill="#1A1821" p-id="2398"></path><path d="M494.2 595.5m-29 0a29 29 0 1 0 58 0 29 29 0 1 0-58 0Z" fill="#B4B0C6" p-id="2399"></path><path d="M544.7 549.5m-14 0a14 14 0 1 0 28 0 14 14 0 1 0-28 0Z" fill="#D8D8D8" p-id="2400"></path><path d="M278 374.1c-19.3 0-35-15.7-35-35s15.7-35 35-35 35 15.7 35 35-15.7 35-35 35z" fill="#E8E3D1" p-id="2401"></path><path d="M278 314.1c13.8 0 25 11.2 25 25s-11.2 25-25 25-25-11.2-25-25 11.2-25 25-25m0-20c-24.8 0-45 20.2-45 45s20.2 45 45 45 45-20.2 45-45-20.2-45-45-45z" fill="#9B9180" p-id="2402"></path></svg>