<?xml version="1.0" standalone="no"?><!DOCTYPE svg PUBLIC "-//W3C//DTD SVG 1.1//EN" "http://www.w3.org/Graphics/SVG/1.1/DTD/svg11.dtd"><svg t="1535394912142" class="icon" style="" viewBox="0 0 1024 1024" version="1.1" xmlns="http://www.w3.org/2000/svg" p-id="3564" xmlns:xlink="http://www.w3.org/1999/xlink" width="200" height="200"><defs><style type="text/css"></style></defs><path d="M516.4 342.3c19.8 0 35.8-16 35.8-35.8V243c0-19.8-16-35.8-35.8-35.8-19.8 0-35.8 16-35.8 35.8v63.6c0 19.7 16 35.7 35.8 35.7zM207.9 433.3c14 14 36.6 14 50.6 0s14-36.6 0-50.6l-44.9-44.9c-14-14-36.6-14-50.6 0s-14 36.6 0 50.6l44.9 44.9zM825.4 433.3l44.9-44.9c14-14 14-36.6 0-50.6s-36.6-14-50.6 0l-44.9 44.9c-14 14-14 36.6 0 50.6 14.1 14 36.8 14 50.6 0zM988.7 627.4c-8.3-8.2-205.1-201.6-453.4-201.6S90.1 619.2 81.8 627.4l-23 22.9 23 22.9c8.3 8.2 205.1 201.6 453.4 201.6s445.1-193.4 453.4-201.6l23-22.9-22.9-22.9z" fill="#46A3FB" p-id="3565"></path><path d="M523.8 152.9a10.1 1.9 0 1 0 20.2 0 10.1 1.9 0 1 0-20.2 0Z" fill="#E61F19" p-id="3566"></path><path d="M522.931323 149.066565a1.9 10.1 60 1 0 17.493713-10.1 1.9 10.1 60 1 0-17.493713 10.1Z" fill="#E61F19" p-id="3567"></path><path d="M520.318101 146.197605a1.9 10.1 30 1 0 10.1-17.493713 1.9 10.1 30 1 0-10.1 17.493713Z" fill="#E61F19" p-id="3568"></path><path d="M514.7 134.9a1.9 10.1 0 1 0 3.8 0 1.9 10.1 0 1 0-3.8 0Z" fill="#E61F19" p-id="3569"></path><path d="M506.160891 138.15366a10.1 1.9 60 1 0 3.290897-1.9 10.1 1.9 60 1 0-3.290897 1.9Z" fill="#E61F19" p-id="3570"></path><path d="M500.362311 145.096771a10.1 1.9 30 1 0 1.9-3.290896 10.1 1.9 30 1 0-1.9 3.290896Z" fill="#E61F19" p-id="3571"></path><path d="M488.7 152.2a10.1 1.9 0 1 0 20.2 0 10.1 1.9 0 1 0-20.2 0Z" fill="#E61F19" p-id="3572"></path><path d="M492.127127 166.070905a1.9 10.1 60 1 0 17.493713-10.1 1.9 10.1 60 1 0-17.493713 10.1Z" fill="#E61F19" p-id="3573"></path><path d="M502.213385 176.341438a1.9 10.1 30 1 0 10.1-17.493713 1.9 10.1 30 1 0-10.1 17.493713Z" fill="#E61F19" p-id="3574"></path><path d="M514.1 170.1a1.9 10.1 0 1 0 3.8 0 1.9 10.1 0 1 0-3.8 0Z" fill="#E61F19" p-id="3575"></path><path d="M523.219327 168.838538a10.1 1.9 60 1 0 3.290896-1.9 10.1 1.9 60 1 0-3.290896 1.9Z" fill="#E61F19" p-id="3576"></path><path d="M530.455278 163.288589a10.1 1.9 30 1 0 1.9-3.290896 10.1 1.9 30 1 0-1.9 3.290896Z" fill="#E61F19" p-id="3577"></path><path d="M259.5 163.3c0-1.9 1.5-3.5 3.5-3.5h37.8c1.9 0 3.5 1.5 3.5 3.5s-1.5 3.5-3.5 3.5H263c-2 0-3.5-1.6-3.5-3.5z" fill="#EF8218" p-id="3578"></path><path d="M278.4 182.2v-37.8c0-1.9 1.5-3.5 3.5-3.5s3.5 1.5 3.5 3.5v37.8c0 1.9-1.5 3.5-3.5 3.5s-3.5-1.6-3.5-3.5z" fill="#EF8218" p-id="3579"></path><path d="M586.8 240.7c0-1.9 1.5-3.5 3.5-3.5h37.8c1.9 0 3.5 1.5 3.5 3.5 0 1.9-1.5 3.5-3.5 3.5h-37.8c-1.9-0.1-3.5-1.6-3.5-3.5z" fill="#6EABDA" p-id="3580"></path><path d="M605.7 259.6v-37.8c0-1.9 1.5-3.5 3.5-3.5s3.5 1.5 3.5 3.5v37.8c0 1.9-1.5 3.5-3.5 3.5s-3.5-1.6-3.5-3.5z" fill="#6EABDA" p-id="3581"></path><path d="M193.8 263.3m-25.1 0a25.1 25.1 0 1 0 50.2 0 25.1 25.1 0 1 0-50.2 0Z" fill="#7CCBE2" p-id="3582"></path><path d="M361.9 205.3c0-17.3 13.9-31.4 31.1-31.4 17.2 0 31.1 14.1 31.1 31.4s-13.9 31.4-31.1 31.4c-17.1 0-31.1-14.1-31.1-31.4z m53.9 0c0-12.7-10.2-23.1-22.9-23.1-12.6 0-22.9 10.3-22.9 23.1 0 12.7 10.2 23 22.9 23 12.7 0.1 22.9-10.3 22.9-23z" fill="#E62A52" p-id="3583"></path><path d="M499.4 353.1c19.8 0 35.8-16 35.8-35.8v-63.5c0-19.8-16-35.8-35.8-35.8s-35.8 16-35.8 35.8v63.6c0.1 19.7 16.1 35.7 35.8 35.7z" fill="" p-id="3584"></path><path d="M191 434.7c14 14 36.6 14 50.6 0s14-36.6 0-50.6l-44.9-44.9c-14-14-36.6-14-50.6 0s-14 36.6 0 50.6l44.9 44.9z" fill="" p-id="3585"></path><path d="M808.5 434.7l44.9-44.9c14-14 14-36.6 0-50.6s-36.6-14-50.6 0l-44.9 44.9c-14 14-14 36.6 0 50.6 14.1 14 36.8 14 50.6 0z" fill="" p-id="3586"></path><path d="M419 670.5c0 44.5 36 80.4 80.4 80.4s80.4-36 80.4-80.4-36-80.4-80.4-80.4-80.4 36-80.4 80.4z" fill="" p-id="3587"></path><path d="M499.4 907.1c-82.2 0-167.1-20.6-252.5-61.3-6-2.9-8.6-10.1-5.7-16.1 2.9-6 10.1-8.6 16.1-5.7 82.1 39.1 163.6 58.9 242.2 58.9 101.2 0 205.7-32.3 310.5-96 76.4-46.4 125.4-93.2 134.5-102.1l14.4-14.3-14.4-14.3c-5.3-5.2-33.4-32.3-78.3-64.8-5.4-3.9-6.6-11.5-2.7-16.9 3.9-5.4 11.5-6.6 16.9-2.7 46.3 33.5 75.7 61.8 81.1 67.2l23 22.9c2.3 2.3 3.6 5.4 3.6 8.6 0 3.2-1.3 6.3-3.6 8.6l-23 22.9c-9.4 9.2-60.1 57.7-138.9 105.6-47.6 28.9-96.3 52-144.7 68.5-60.4 20.5-120.4 31-178.5 31z" fill="" p-id="3588"></path><path d="M210.8 825.7c-2 0-4-0.5-5.8-1.5-21.6-12-43.3-25.3-64.3-39.6-5.5-3.7-7-11.3-3.2-16.8 3.7-5.5 11.3-7 16.8-3.2 20.4 13.9 41.5 26.8 62.5 38.4 5.8 3.2 8 10.6 4.7 16.4-2.4 4-6.5 6.3-10.7 6.3z" fill="" p-id="3589"></path><path d="M103.8 755.1c-2.6 0-5.2-0.8-7.4-2.5C63.5 727.1 43 707.5 37.5 702l-23-22.9c-2.3-2.3-3.6-5.4-3.6-8.6 0-3.2 1.3-6.3 3.6-8.6l23-22.9c9.4-9.2 60.2-57.7 138.9-105.6 47.6-28.9 96.3-52 144.7-68.5 60.3-20.6 120.3-31 178.4-31 51.3 0 104.1 8.1 157.2 24.2 44.1 13.3 88.8 32.2 132.7 56.2 5.8 3.2 8 10.5 4.8 16.4-3.2 5.8-10.5 8-16.4 4.8-94.3-51.4-187.9-77.5-278.4-77.5-101.2 0-205.6 32.3-310.5 96-76.4 46.4-125.4 93.2-134.5 102.1L40 670.4l14.4 14.3c5.3 5.2 25 24.1 56.7 48.6 5.3 4.1 6.2 11.7 2.2 17-2.4 3.2-5.9 4.8-9.5 4.8z" fill="" p-id="3590"></path><path d="M218.9 580.8c-4.3 0-8.4-2.3-10.6-6.2-3.2-5.8-1.1-13.2 4.7-16.4 11.2-6.1 22.5-12.1 33.7-17.5 6-2.9 13.2-0.4 16.1 5.6 2.9 6 0.4 13.2-5.6 16.1-10.9 5.3-21.8 11.1-32.7 17-1.6 0.9-3.6 1.4-5.6 1.4z" fill="#FFFFFF" p-id="3591"></path><path d="M296.4 543.6c-4.8 0-9.3-2.9-11.2-7.5-2.5-6.2 0.4-13.2 6.6-15.8 38.9-15.8 78.2-27.6 116.6-35 6.6-1.3 12.9 3 14.2 9.6 1.3 6.6-3 12.9-9.6 14.2-36.9 7.1-74.6 18.4-112 33.7-1.5 0.6-3 0.8-4.6 0.8z" fill="#FFFFFF" p-id="3592"></path></svg>