<?xml version="1.0" standalone="no"?><!DOCTYPE svg PUBLIC "-//W3C//DTD SVG 1.1//EN" "http://www.w3.org/Graphics/SVG/1.1/DTD/svg11.dtd"><svg t="1535394408934" class="icon" style="" viewBox="0 0 1024 1024" version="1.1" xmlns="http://www.w3.org/2000/svg" p-id="2192" xmlns:xlink="http://www.w3.org/1999/xlink" width="200" height="200"><defs><style type="text/css"></style></defs><path d="M740.032 542.272s-1.344-101.312 92.032-158.656c0 0-38.656-73.344-120-88 0 0-57.344-21.312-168 25.344 0 0-53.312 28.032-117.312-17.344 0 0-40-29.312-108.032-5.312 0 0-148.032 37.312-172.032 181.312 0 0-20.032 170.624 73.344 339.968 0 0 66.688 138.624 160 130.624 0 0 26.688 4.032 90.688-21.312 0 0 49.344-22.656 125.312 9.344 0 0 61.376 30.656 113.344-1.344 0 0 77.312-37.12 145.344-217.28-0.064 0-108.096-41.344-114.688-177.344z" fill="" p-id="2193"></path><path d="M655.424 929.088c-26.88 0-49.216-10.816-49.408-10.944a227.456 227.456 0 0 0-89.024-19.456c-33.344 0-53.44 8.832-55.68 9.792-45.696 18.112-70.144 19.52-76.544 19.52l-2.624-0.384-4.352 0.256c-67.392 0-121.792-85.184-137.6-118.016C151.104 648.192 168.768 483.84 168.96 482.24 190.016 355.968 318.72 321.408 324.224 320a139.52 139.52 0 0 1 46.336-8.768c27.392 0 42.56 10.176 43.2 10.624 28.096 19.968 57.92 30.08 88.576 30.08 30.016 0 49.92-9.984 52.032-11.072 54.016-22.72 94.592-27.648 118.784-27.648 20.544 0 31.168 3.52 31.296 3.584 49.6 9.152 81.28 41.088 96.64 60.992-83.904 64.256-83.584 160.576-83.52 164.928 5.504 113.28 73.728 167.424 108.8 187.84-61.056 151.04-126.4 185.984-126.976 186.368-13.888 8.32-28.096 12.16-43.968 12.16z" fill="#F6FF85" p-id="2194"></path><path d="M674.688 72.896c-205.312 56-174.912 215.936-174.912 215.936 199.808-24 174.912-215.936 174.912-215.936z" fill="" p-id="2195"></path><path d="M520.512 262.72c0.896-38.656 17.664-117.952 132.48-159.552-1.344 26.88-8.128 68.672-35.008 103.04-22.272 28.544-55.04 47.488-97.472 56.512z" fill="#F6FF85" p-id="2196"></path></svg>