<?xml version="1.0" standalone="no"?><!DOCTYPE svg PUBLIC "-//W3C//DTD SVG 1.1//EN" "http://www.w3.org/Graphics/SVG/1.1/DTD/svg11.dtd"><svg t="1535394828242" class="icon" style="" viewBox="0 0 1024 1024" version="1.1" xmlns="http://www.w3.org/2000/svg" p-id="2397" xmlns:xlink="http://www.w3.org/1999/xlink" width="200" height="200"><defs><style type="text/css"></style></defs><path d="M631.8 842.2l226.6-226.6c91.9-85.3 85.3-229.6 0-321.4-85.3-91.9-229.6-91.9-321.4 0l-220.1 220-118 118.1c-91.8 85.3-85.3 229.6 0 321.4 85.3 91.9 229.6 91.9 321.4 0l111.5-111.5z" fill="#FC5454" p-id="2398"></path><path d="M864.2 161.1c-1-2.1-0.1-4.6 2.1-5.5l41.4-19c2.1-1 4.6-0.1 5.5 2.1 1 2.1 0.1 4.6-2.1 5.5l-41.4 19c-2 0.9-4.5 0-5.5-2.1z" fill="#EF8218" p-id="2399"></path><path d="M894.4 172.3l-19-41.4c-1-2.1-0.1-4.6 2.1-5.5 2.1-1 4.6-0.1 5.5 2.1l19 41.4c1 2.1 0.1 4.6-2.1 5.5-2.1 0.9-4.5 0-5.5-2.1z" fill="#EF8218" p-id="2400"></path><path d="M775.901795 87.752548a12.3 2.3 65.375 1 0 4.181651-1.916716 12.3 2.3 65.375 1 0-4.181651 1.916716Z" fill="#E61F19" p-id="2401"></path><path d="M768.109808 95.561338a12.3 2.3 35.373 1 0 2.662927-3.750844 12.3 2.3 35.373 1 0-2.662927 3.750844Z" fill="#E61F19" p-id="2402"></path><path d="M765.198069 106.226738a12.3 2.3 5.375 1 0 0.4309-4.579774 12.3 2.3 5.375 1 0-0.4309 4.579774Z" fill="#E61F19" p-id="2403"></path><path d="M755.93279 119.912003a2.3 12.3 65.375 1 0 22.362738-10.250266 2.3 12.3 65.375 1 0-22.362738 10.250266Z" fill="#E61F19" p-id="2404"></path><path d="M766.760679 133.328854a2.3 12.3 35.373 1 0 14.240866-20.058857 2.3 12.3 35.373 1 0-14.240866 20.058857Z" fill="#E61F19" p-id="2405"></path><path d="M782.993368 139.649961a2.3 12.3 5.375 1 0 2.304378-24.491832 2.3 12.3 5.375 1 0-2.304378 24.491832Z" fill="#E61F19" p-id="2406"></path><path d="M792.911758 126.648191a12.3 2.3 65.375 1 0 4.18165-1.916717 12.3 2.3 65.375 1 0-4.18165 1.916717Z" fill="#E61F19" p-id="2407"></path><path d="M802.221048 120.653467a12.3 2.3 35.373 1 0 2.662926-3.750843 12.3 2.3 35.373 1 0-2.662926 3.750843Z" fill="#E61F19" p-id="2408"></path><path d="M807.354043 110.910375a12.3 2.3 5.375 1 0 0.4309-4.579773 12.3 2.3 5.375 1 0-0.4309 4.579773Z" fill="#E61F19" p-id="2409"></path><path d="M794.828016 102.902131a2.3 12.3 65.375 1 0 22.362738-10.250266 2.3 12.3 65.375 1 0-22.362738 10.250266Z" fill="#E61F19" p-id="2410"></path><path d="M791.992238 99.193964a2.3 12.3 35.373 1 0 14.240866-20.058857 2.3 12.3 35.373 1 0-14.240866 20.058857Z" fill="#E61F19" p-id="2411"></path><path d="M787.728524 97.450729a2.3 12.3 5.375 1 0 2.304378-24.491832 2.3 12.3 5.375 1 0-2.304378 24.491832Z" fill="#E61F19" p-id="2412"></path><path d="M714.834725 32.511193a14.9 14.9 0 1 0 27.089821-12.416989 14.9 14.9 0 1 0-27.089821 12.416989Z" fill="#2C65AF" p-id="2413"></path><path d="M658.4 124.1c-2.1 1-4.6 0.1-5.5-2.1l-19-41.4c-1-2.1-0.1-4.6 2.1-5.5 2.1-1 4.6-0.1 5.5 2.1l19 41.4c0.9 2.1 0 4.5-2.1 5.5z" fill="#2C65AF" p-id="2414"></path><path d="M669.6 93.9l-41.4 19c-2.1 1-4.6 0.1-5.5-2.1-1-2.1-0.1-4.6 2.1-5.5l41.4-19c2.1-1 4.6-0.1 5.5 2.1 0.9 2.1 0 4.5-2.1 5.5z" fill="#2C65AF" p-id="2415"></path><path d="M539.8 185.4c-19 8.7-41.4 0.5-50-18.3-8.6-18.7-0.2-41.1 18.8-49.8 19-8.7 41.4-0.5 50 18.3 8.6 18.7 0.2 41.1-18.8 49.8z m-27.1-59.1c-14 6.4-20.1 22.8-13.8 36.6 6.3 13.8 22.8 19.8 36.8 13.4 14-6.4 20.1-22.8 13.8-36.6-6.3-13.8-22.9-19.8-36.8-13.4z" fill="#E62A52" p-id="2416"></path><path d="M345.4 1000.3c-1.5 0-2.9 0-4.4-0.1-62.7-1.2-120.8-27.1-163.3-73-22.1-23.7-39.3-51-51.4-81-11.8-29.4-18-59.9-18.4-90.8-0.9-65.1 24-124.6 70.3-167.7L296 469.8l18.2 18.2L196 606.3l-0.2 0.2c-83.2 77.2-82.9 213.3 0.7 303.3 37.8 40.7 89.3 63.7 145 64.7 58.8 1.1 114.9-22 157.9-65.1L611 797.8l18.2 18.2-111.6 111.6c-24.2 24.2-52.2 42.8-83.2 55.3-28.7 11.5-58.6 17.4-89 17.4z" fill="#231815" p-id="2417"></path><path d="M737.7 707.5l-18.2-18.2L837.7 571l0.2-0.2c41-38.1 63.1-90.8 62.3-148.7-0.8-56-23.7-112.4-63-154.6-37.8-40.7-89.3-63.7-145-64.7-58.8-1.1-114.9 22-157.9 65.1L416.3 386 398 367.8l118.1-118.1c24.2-24.2 52.2-42.8 83.2-55.3 30-12.1 61.4-17.9 93.4-17.3 62.7 1.2 120.8 27.1 163.3 73 22.1 23.7 39.3 51 51.4 81 11.8 29.4 18 59.9 18.4 90.8 0.9 65.1-24 124.6-70.3 167.7L737.7 707.5z" fill="#231815" p-id="2418"></path><path d="M643.1 294c-5 0-9.7-2.9-11.8-7.8-2.8-6.5 0.2-14.1 6.7-16.9 36.3-15.6 76-22 114.8-18.6 7.1 0.6 12.3 6.9 11.7 14-0.6 7.1-6.8 12.3-14 11.7-34.6-3.1-70 2.7-102.4 16.6-1.6 0.7-3.3 1-5 1z" fill="#FFFFFF" p-id="2419"></path><path d="M451 462.5c-3.3 0-6.6-1.2-9.1-3.8-5-5-5-13.2 0-18.2l118.1-118c5-5 13.2-5 18.2 0s5 13.2 0 18.2l-118.1 118c-2.5 2.6-5.8 3.8-9.1 3.8z" fill="#FFFFFF" p-id="2420"></path><path d="M761.9 837.5c7.5-7.5 7.5-19.6 0-27.1l-216.1-216-27.1 27.1 216 216c7.6 7.5 19.7 7.5 27.2 0z" fill="#231815" p-id="2421"></path><path d="M256.7 332.4c-7.5 7.5-7.5 19.6 0 27.1l216 216 27.1-27.1-216-216c-7.4-7.5-19.5-7.5-27.1 0z" fill="#231815" p-id="2422"></path></svg>