<?xml version="1.0" standalone="no"?><!DOCTYPE svg PUBLIC "-//W3C//DTD SVG 1.1//EN" "http://www.w3.org/Graphics/SVG/1.1/DTD/svg11.dtd"><svg t="1535394753951" class="icon" style="" viewBox="0 0 1024 1024" version="1.1" xmlns="http://www.w3.org/2000/svg" p-id="1660" xmlns:xlink="http://www.w3.org/1999/xlink" width="200" height="200"><defs><style type="text/css"></style></defs><path d="M935.8 491l-69.6-36.3 23.6-74.9c8.3-26-0.3-60.3-19.6-79.6l-34.6-34.6c-14-14-36.3-22.7-58.3-22.7-7.7 0-14.6 1-21.3 3L681.4 270 645 200.3C632.4 176 602.4 158 575.1 158h-48.9c-27.3 0-57.3 18.3-69.9 42.3L420 269.9l-74.9-23.6c-6.7-2-13.7-3-21.3-3-22 0-44.3 8.7-58.3 22.7l-34.6 34.6c-19.3 19.3-27.7 53.3-19.6 79.6l23.6 74.9-69.6 36C141 503.7 123 533.7 123 561v48.9c0 27.3 18.3 57.3 42.3 69.9l69.6 36.3-23.3 75.2c-8.3 26 0.3 60.3 19.6 79.6l34.6 34.6c14 14 36.3 22.7 58.3 22.7 7.7 0 14.6-1 21.3-3l74.9-23.6 36.3 69.6c12.6 24.3 42.6 42.3 69.9 42.3h48.9c27.3 0 57.3-18.3 69.9-42.3l36-69.9 74.9 23.6c6.7 2 13.7 3 21.3 3 22 0 44.3-8.6 58.3-22.7l34.6-34.6c19.3-19.3 27.7-53.3 19.6-79.6l-23.6-74.9 69.6-36.3c24.3-12.6 42.3-42.6 42.3-69.9V561c0.1-27.1-18.2-57.3-42.5-70z" fill="#FC5454" p-id="1661"></path><path d="M368.3 70.4c-2.1-1.2-2.8-4-1.5-6.1l24.8-41.8c1.2-2.1 4-2.8 6.1-1.5 2.1 1.2 2.8 4 1.5 6.1l-24.8 41.8c-1.3 2-4 2.7-6.1 1.5z" fill="#EF8218" p-id="1662"></path><path d="M401.5 61.9l-41.8-24.8c-2.1-1.2-2.8-4-1.5-6.1 1.2-2.1 4-2.8 6.1-1.5l41.8 24.8c2.1 1.2 2.8 4 1.5 6.1s-4 2.7-6.1 1.5z" fill="#EF8218" p-id="1663"></path><path d="M246.459802 59.738587a13.1 2.4 30.63 1 0 2.445562-4.130282 13.1 2.4 30.63 1 0-2.445562 4.130282Z" fill="#E61F19" p-id="1664"></path><path d="M244.231559 71.360001a13.099476 2.399904 0.633 1 0 0.053027-4.799515 13.099476 2.399904 0.633 1 0-0.053027 4.799515Z" fill="#E61F19" p-id="1665"></path><path d="M235.580644 86.741757a2.4 13.1 60.633 1 0 22.833205-12.84853 2.4 13.1 60.633 1 0-22.833205 12.84853Z" fill="#E61F19" p-id="1666"></path><path d="M248.370144 100.054847a2.4 13.1 30.63 1 0 13.348691-22.544455 2.4 13.1 30.63 1 0-13.348691 22.544455Z" fill="#E61F19" p-id="1667"></path><path d="M266.06598 105.383949a2.399904 13.099476 0.633 1 0 0.289438-26.197353 2.399904 13.099476 0.633 1 0-0.289438 26.197353Z" fill="#E61F19" p-id="1668"></path><path d="M275.623865 90.651951a13.1 2.4 60.633 1 0 4.183183-2.353929 13.1 2.4 60.633 1 0-4.183183 2.353929Z" fill="#E61F19" p-id="1669"></path><path d="M284.849168 83.503933a13.1 2.4 30.63 1 0 2.445562-4.130282 13.1 2.4 30.63 1 0-2.445562 4.130282Z" fill="#E61F19" p-id="1670"></path><path d="M289.460222 72.680862a13.099476 2.399904 0.633 1 0 0.053027-4.799515 13.099476 2.399904 0.633 1 0-0.053027 4.799515Z" fill="#E61F19" p-id="1671"></path><path d="M275.369071 65.229591a2.4 13.1 60.633 1 0 22.833205-12.848529 2.4 13.1 60.633 1 0-22.833205 12.848529Z" fill="#E61F19" p-id="1672"></path><path d="M272.092956 61.590867a2.4 13.1 30.63 1 0 13.348692-22.544455 2.4 13.1 30.63 1 0-13.348692 22.544455Z" fill="#E61F19" p-id="1673"></path><path d="M267.386841 60.155286a2.399904 13.099476 0.633 1 0 0.289439-26.197353 2.399904 13.099476 0.633 1 0-0.289439 26.197353Z" fill="#E61F19" p-id="1674"></path><path d="M254.1117 50.863524a13.1 2.4 60.633 1 0 4.183183-2.353929 13.1 2.4 60.633 1 0-4.183183 2.353929Z" fill="#E61F19" p-id="1675"></path><path d="M159.395066 48.540522a15.9 15.9 0 1 0 16.201846-27.363117 15.9 15.9 0 1 0-16.201846 27.363117Z" fill="#2C65AF" p-id="1676"></path><path d="M165.5 163c-1.2 2.1-4 2.8-6.1 1.5l-41.7-24.7c-2.1-1.2-2.8-4-1.5-6.1 1.2-2.1 4-2.8 6.1-1.5l41.8 24.8c1.9 1.2 2.7 3.9 1.4 6z" fill="#2C65AF" p-id="1677"></path><path d="M156.9 129.8l-24.8 41.8c-1.2 2.1-4 2.8-6.1 1.5-2.1-1.2-2.8-4-1.5-6.1l24.8-41.8c1.2-2.1 4-2.8 6.1-1.5 2.1 1.2 2.8 3.9 1.5 6.1z" fill="#2C65AF" p-id="1678"></path><path d="M98.9 288.7C87.6 307.8 63 314.2 44 303c-18.9-11.2-25.1-35.9-13.8-55s35.9-25.5 54.9-14.3c18.9 11.2 25.1 35.9 13.8 55z m-59.7-35.3c-8.3 14.1-3.8 32.2 10.2 40.5 13.9 8.2 32.1 3.5 40.4-10.5 8.3-14.1 3.8-32.2-10.2-40.5s-32-3.6-40.4 10.5z" fill="#E62A52" p-id="1679"></path><path d="M530.1 986.4h-48.9c-32.3 0-66.5-20.7-81.4-49.2l-31.3-60-64.8 20.5c-7.9 2.4-16.1 3.5-25 3.5-25.2 0-51.1-10.1-67.4-26.4l-34.6-34.6c-11-11-19.4-26.4-23.6-43.3-4.2-17-4-34.5 0.8-49.2l20.1-65-60.1-31.4c-13.7-7.2-26.2-19.3-35.2-34.2-9-14.9-14-31.7-14-47.1v-49c0-32.3 20.7-66.5 49.2-81.4l60-31-20.4-64.8c-9.4-30.9 0.2-69.8 22.8-92.5l34.6-34.6c16.3-16.3 42.1-26.4 67.4-26.4 8.9 0 17.1 1.1 25 3.5l0.2 0.1 64.6 20.4 31.4-60.1c7.2-13.7 19.4-26.2 34.2-35.1 14.9-9 31.6-14 47.1-14h48.9c32.3 0 66.5 20.7 81.4 49.2l31.2 60 64.5-20.8c7.9-2.4 16.1-3.5 25-3.5 25.2 0 51.1 10.1 67.4 26.4l34.6 34.6c11 11 19.4 26.4 23.6 43.3 4.2 17 4 34.5-0.8 49.3l-20.4 64.7 60 31.3c13.8 7.1 26.4 19.3 35.5 34.3 9 14.9 14.1 31.6 14.1 47v48.9c0 32.3-20.7 66.5-49.2 81.4l-60 31.3 20.5 64.8c9.4 30.9-0.2 69.8-22.8 92.5l-34.6 34.6c-16.2 16.3-42 26.4-67.4 26.4-8.9 0-17.1-1.1-25-3.5l-0.2-0.1-64.6-20.4-31.1 60.4c-7.2 13.7-19.3 26.2-34.2 35.2-14.9 9.1-31.6 14-47.1 14zM381.4 846.2l41.3 79.1c10.3 19.8 36 35.4 58.5 35.4h48.9c22.4 0 48.1-15.5 58.5-35.4l40.9-79.5 85.2 26.8c5.4 1.6 11.2 2.4 17.6 2.4 18.7 0 37.6-7.2 49.2-18.9l34.6-34.6c15.8-15.8 23-45.1 16.4-66.7l-26.9-85.2 79.1-41.3c19.8-10.3 35.4-36 35.4-58.5V521c-0.1-22.4-15.7-48.2-35.7-58.5l-79.1-41.3 26.9-85.3c6.8-21.3-0.4-50.5-16.5-66.6l-34.6-34.6c-11.7-11.7-30.5-18.9-49.2-18.9-6.4 0-12.1 0.8-17.5 2.4l-84.7 27.3-41.3-79.2c-10.3-19.9-36-35.4-58.5-35.4H481c-22.3 0-48.1 15.6-58.6 35.4l-41.4 79-85.1-26.9c-5.4-1.6-11.2-2.4-17.6-2.4-18.7 0-37.5 7.2-49.2 18.9l-34.6 34.6c-15.8 15.8-23 45.1-16.4 66.7l26.9 85.2-79.2 41c-19.8 10.3-35.4 36-35.4 58.5v48.9c0 22.4 15.6 48.1 35.5 58.6l79 41.2-26.6 85.6c-6.8 21.3 0.4 50.5 16.5 66.6l34.6 34.6c11.7 11.7 30.5 18.9 49.2 18.9 6.4 0 12.1-0.8 17.6-2.4l85.2-26.7z" fill="" p-id="1680"></path><path d="M505.1 739.6c-107 0-194-87-194-194s87-194 194-194c26.3 0 51.8 5.1 75.8 15.3 23.2 9.8 44 23.8 61.8 41.8 17.8 17.8 31.7 38.5 41.4 61.6 10.1 23.9 15.1 49.2 15.1 75.3-0.1 107-87.1 194-194.1 194z m0-362.3c-92.8 0-168.3 75.5-168.3 168.3s75.5 168.3 168.3 168.3 168.3-75.5 168.3-168.3c0.2-44.8-17.2-87-48.9-118.8-31.8-32-74.2-49.5-119.4-49.5z" fill="" p-id="1681"></path><path d="M261.1 529.4c-7.1 0-12.8-5.8-12.8-12.8 0-34.9 9.4-69.2 27.2-99 3.6-6.1 11.5-8.1 17.6-4.5 6.1 3.6 8.1 11.5 4.5 17.6-15.4 25.9-23.6 55.6-23.6 85.9-0.1 7-5.8 12.8-12.9 12.8z m55.2-130.1c-3.3 0-6.7-1.3-9.2-3.9-4.9-5.1-4.8-13.2 0.3-18.2 8-7.8 16.9-15 26.4-21.5 5.9-4 13.9-2.5 17.8 3.4 4 5.9 2.5 13.9-3.4 17.8-8.3 5.6-16 11.9-22.9 18.6-2.5 2.5-5.8 3.8-9 3.8z" fill="#FFFFFF" p-id="1682"></path></svg>