<?xml version="1.0" standalone="no"?><!DOCTYPE svg PUBLIC "-//W3C//DTD SVG 1.1//EN" "http://www.w3.org/Graphics/SVG/1.1/DTD/svg11.dtd"><svg t="1535394785755" class="icon" style="" viewBox="0 0 1024 1024" version="1.1" xmlns="http://www.w3.org/2000/svg" p-id="1951" xmlns:xlink="http://www.w3.org/1999/xlink" width="200" height="200"><defs><style type="text/css"></style></defs><path d="M724.872409 209.982287c0-2.491484 1.993187-4.584331 4.584331-4.584331h49.331387c2.491484 0 4.584331 1.993187 4.58433 4.584331s-1.993187 4.584331-4.58433 4.584331h-49.331387c-2.591144-0.099659-4.584331-2.092847-4.584331-4.584331z" fill="#EF8218" p-id="1952"></path><path d="M749.587932 234.598151v-49.331387c0-2.491484 1.993187-4.584331 4.584331-4.584331s4.584331 1.993187 4.584331 4.584331V234.598151c0 2.491484-1.993187 4.584331-4.584331 4.584331s-4.584331-2.092847-4.584331-4.584331z" fill="#EF8218" p-id="1953"></path><path d="M538.908029 631.441752c-96.17129 0-182.874939-58.001752-219.748905-146.798248-36.774307-88.896156-16.443796-191.146667 51.623552-259.114356 60.094599-60.094599 147.695182-83.614209 229.714842-61.689148 82.119319 22.02472 146.299951 86.105693 168.225012 168.225012 22.02472 82.119319-1.494891 169.719903-61.689148 229.714842-44.448078 44.747056-104.941314 69.861217-168.125353 69.661898z" fill="#FF9D00" p-id="1954"></path><path d="M931.466277 1024c0-216.759124-175.699465-392.458589-392.458588-392.458589s-392.458589 175.699465-392.458589 392.458589h784.917177z" fill="#FF9D00" p-id="1955"></path><path d="M671.05635 98.064818a13.254696 2.491484 90 1 0 4.982969 0 13.254696 2.491484 90 1 0-4.982969 0Z" fill="#E61F19" p-id="1956"></path><path d="M659.702694 102.136644a13.254696 2.491484 60 1 0 4.315377-2.491484 13.254696 2.491484 60 1 0-4.315377 2.491484Z" fill="#E61F19" p-id="1957"></path><path d="M652.143461 111.340815a13.254696 2.491484 30 1 0 2.491484-4.315377 13.254696 2.491484 30 1 0-2.491484 4.315377Z" fill="#E61F19" p-id="1958"></path><path d="M636.873187 120.587835a13.254696 2.491484 0 1 0 26.509392 0 13.254696 2.491484 0 1 0-26.509392 0Z" fill="#E61F19" p-id="1959"></path><path d="M641.529553 138.765944a2.491484 13.254696 60 1 0 22.957806-13.254696 2.491484 13.254696 60 1 0-22.957806 13.254696Z" fill="#E61F19" p-id="1960"></path><path d="M654.683899 152.199318a2.491484 13.254696 30 1 0 13.254696-22.957807 2.491484 13.254696 30 1 0-13.254696 22.957807Z" fill="#E61F19" p-id="1961"></path><path d="M670.259075 143.908127a13.254696 2.491484 90 1 0 4.982969 0 13.254696 2.491484 90 1 0-4.982969 0Z" fill="#E61F19" p-id="1962"></path><path d="M682.062615 142.372767a13.254696 2.491484 60 1 0 4.315377-2.491485 13.254696 2.491484 60 1 0-4.315377 2.491485Z" fill="#E61F19" p-id="1963"></path><path d="M691.495857 135.043115a13.254696 2.491484 30 1 0 2.491485-4.315377 13.254696 2.491484 30 1 0-2.491485 4.315377Z" fill="#E61F19" p-id="1964"></path><path d="M682.816156 121.385109a13.254696 2.491484 0 1 0 26.509391 0 13.254696 2.491484 0 1 0-26.509391 0Z" fill="#E61F19" p-id="1965"></path><path d="M681.709151 116.563019a2.491484 13.254696 60 1 0 22.957807-13.254695 2.491484 13.254696 60 1 0-22.957807 13.254695Z" fill="#E61F19" p-id="1966"></path><path d="M678.279013 112.877734a2.491484 13.254696 30 1 0 13.254696-22.957806 2.491484 13.254696 30 1 0-13.254696 22.957806Z" fill="#E61F19" p-id="1967"></path><path d="M652.021411 16.144818m-16.144817 0a16.144818 16.144818 0 1 0 32.289635 0 16.144818 16.144818 0 1 0-32.289635 0Z" fill="#2C65AF" p-id="1968"></path><path d="M539.007689 80.724088c-2.491484 0-4.584331-1.993187-4.584331-4.584331V26.80837c0-2.491484 1.993187-4.584331 4.584331-4.584331 2.491484 0 4.584331 1.993187 4.58433 4.584331V76.139757c-0.099659 2.491484-2.092847 4.584331-4.58433 4.584331z" fill="#2C65AF" p-id="1969"></path><path d="M563.623552 56.008564h-49.331387c-2.491484 0-4.584331-1.993187-4.58433-4.58433s1.993187-4.584331 4.58433-4.584331h49.331387c2.491484 0 4.584331 1.993187 4.584331 4.584331s-2.092847 4.584331-4.584331 4.58433z" fill="#2C65AF" p-id="1970"></path><path d="M394.601265 87.600584c-22.523017 0-40.96-18.237664-40.96-40.561363s18.337324-40.561363 40.96-40.561362 40.96 18.237664 40.96 40.561362-18.337324 40.561363-40.96 40.561363z m0-70.459173c-16.643114 0-30.097129 13.354355-30.097129 29.798151s13.454015 29.798151 30.097129 29.798151c16.543455 0 30.097129-13.354355 30.097129-29.798151s-13.454015-29.798151-30.097129-29.798151z" fill="#E62A52" p-id="1971"></path><path d="M484.294696 620.877859h-0.697616c-37.7709 0-75.741119-8.670365-109.724963-25.114161-33.485547-16.244477-63.483017-40.162725-86.70365-69.163601-4.78365-6.079221-3.886715-14.849246 2.192506-19.632895 6.079221-4.78365 14.849246-3.886715 19.632896 2.192506 42.753869 53.317762 106.436204 83.813528 174.702871 83.813528h0.597956c58.799027 0 116.202822-23.818589 157.661119-65.476204 42.355231-42.255572 65.675523-98.563114 65.675523-158.358735 0-7.773431 6.27854-13.952311 13.952312-13.952312 7.773431 0 13.952311 6.27854 13.952311 13.952312 0 33.08691-6.3782 65.276886-18.93528 95.872311-12.756399 30.894404-31.193382 58.599708-54.912311 82.218978-23.419951 23.61927-50.925937 41.956594-81.621022 54.712993-30.595426 12.55708-62.785401 18.93528-95.772652 18.93528zM263.848175 474.079611c-5.481265 0-10.663552-3.288759-12.955718-8.670365-19.134599-46.142287-24.117567-96.470268-14.350948-145.502677s33.585207-93.580146 68.964282-128.959221c31.193382-31.293041 70.259854-53.816058 112.914063-65.276886s87.700243-11.460827 130.454112-0.099659c59.994939 16.045158 111.718151 53.51708 145.701995 105.53927 4.285353 6.477859 2.391825 15.148224-4.086034 19.333917-6.477859 4.285353-15.148224 2.391825-19.333917-4.086034-30.196788-46.241946-76.239416-79.528175-129.557178-93.779465-77.036691-20.629489-159.953285 1.59455-216.260827 58.101412-64.180633 64.180633-83.315231 159.953285-48.534112 243.966131 2.989781 7.175474-0.398637 15.347543-7.574112 18.337324-1.793869 0.697616-3.587737 1.096253-5.381606 1.096253z" fill="" p-id="1972"></path><path d="M668.066569 1013.336448H91.138491c-7.773431 0-13.952311-6.27854-13.952311-13.952312 0-36.475328 4.883309-72.751338 14.450608-107.731776 9.268321-33.884185 22.921655-66.472798 40.661022-96.868905 7.87309-13.454015 16.643114-26.70871 26.011095-39.265791 4.68399-6.178881 13.454015-7.474453 19.632895-2.790462 6.178881 4.68399 7.474453 13.454015 2.790463 19.632895-8.770024 11.660146-16.942092 23.918248-24.217227 36.475329-31.293041 53.51708-48.733431 114.209635-51.025596 176.39708h562.676789c7.773431 0 13.952311 6.27854 13.952311 13.952312-0.099659 7.87309-6.27854 14.15163-14.051971 14.15163z" fill="" p-id="1973"></path><path d="M751.182482 726.21781c-3.388418 0-6.876496-1.195912-9.5673-3.787056C671.454988 656.95455 579.76837 620.877859 483.69674 620.877859c-93.779465 0-183.771873 34.5818-253.433772 97.367202-5.780243 5.182287-14.649927 4.68399-19.732554-0.996594-5.182287-5.780243-4.68399-14.649927 0.996593-19.732555 74.744526-67.469392 171.414112-104.542676 272.169733-104.542676 103.247105 0 201.6109 38.767494 277.1527 109.127007 5.680584 5.281946 5.979562 14.15163 0.697616 19.732555-2.790462 2.890122-6.577518 4.385012-10.364574 4.385012z" fill="" p-id="1974"></path><path d="M297.931679 786.611387c-3.388418 0-6.677178-1.195912-9.367981-3.587737-5.780243-5.182287-6.178881-14.051971-0.996593-19.732555 14.749586-16.443796 39.664428-39.764088 61.091192-51.623552 6.776837-3.787056 15.247883-1.295572 19.034939 5.481265 3.787056 6.776837 1.295572 15.247883-5.481265 19.034939-17.241071 9.46764-39.465109 29.798151-53.816059 45.843309-2.790462 2.989781-6.577518 4.584331-10.464233 4.584331z" fill="#FFFFFF" p-id="1975"></path><path d="M404.367883 710.57129c-5.281946 0-10.264915-2.989781-12.756399-8.072409-3.288759-6.976156-0.199319-15.347543 6.776837-18.636302 12.457421-5.780243 18.735961-8.770024 32.588613-13.454015 7.374793-2.491484 15.247883 1.395231 17.839027 8.670365 2.491484 7.374793-1.395231 15.247883-8.670365 17.839027-12.457421 4.285353-17.540049 6.677178-29.798151 12.357762-1.893528 0.896934-3.986375 1.295572-5.979562 1.295572z" fill="#FFFFFF" p-id="1976"></path><path d="M899.47562 911.384915H705.83747c-7.773431 0-13.952311-6.27854-13.952312-13.952312s6.27854-13.952311 13.952312-13.952311h193.538491c7.773431 0 13.952311 6.27854 13.952312 13.952311s-6.178881 13.952311-13.852653 13.952312z" fill="" p-id="1977"></path><path d="M802.606715 1008.154161c-7.773431 0-13.952311-6.27854-13.952311-13.952312V800.563698c0-7.773431 6.27854-13.952311 13.952311-13.952311 7.773431 0 13.952311 6.27854 13.952312 13.952311v193.538492c0.099659 7.773431-6.178881 14.051971-13.952312 14.051971z" fill="" p-id="1978"></path></svg>