<?xml version="1.0" standalone="no"?><!DOCTYPE svg PUBLIC "-//W3C//DTD SVG 1.1//EN" "http://www.w3.org/Graphics/SVG/1.1/DTD/svg11.dtd"><svg t="1535393601572" class="icon" style="" viewBox="0 0 1024 1024" version="1.1" xmlns="http://www.w3.org/2000/svg" p-id="1486" xmlns:xlink="http://www.w3.org/1999/xlink" width="200" height="200"><defs><style type="text/css"></style></defs><path d="M714 699c-3.7 0-7.3-1.3-10.2-4.1-5.9-5.6-6.1-15-0.5-20.9 12.5-13.2 22.3-27.9 29.1-43.9 7.3-17.3 8.1-30.7 8.8-43.7 0.8-15.6 1.7-31.8 14-49.6 11.4-16.5 24.1-25.5 34.4-32.7 9.9-7 17.1-12 21.5-21.9 7.2-16.3 3.7-39.2-10.4-68-3.6-7.3-0.6-16.1 6.8-19.7 7.3-3.6 16.1-0.6 19.7 6.8 18.1 37 21.8 68.3 10.9 92.9-7.7 17.4-19.8 25.9-31.5 34.1-9.6 6.8-18.7 13.2-27.1 25.3-7.6 11-8.1 20.8-8.9 34.5-0.8 14.1-1.7 31.6-11.1 53.6-8.2 19.2-19.9 37-34.9 52.7-2.8 3-6.7 4.6-10.6 4.6z" fill="#4C4848" p-id="1487"></path><path d="M836.5 700.3c-1.4 0-2.8-0.2-4.1-0.6-7.8-2.3-12.3-10.5-10-18.3 5.1-17.5 7-35.1 5.7-52.4-1.4-18.7-6.9-31-12.3-42.8-6.4-14.3-13.1-29-10.4-50.5 2.5-19.9 9.7-33.8 15.5-44.9 5.6-10.8 9.7-18.6 9-29.4-1.1-17.8-14.7-36.5-40.5-55.6-6.5-4.8-7.9-14.1-3.1-20.6 4.8-6.5 14.1-7.9 20.6-3.1 33.1 24.5 50.8 50.6 52.4 77.5 1.2 19-5.7 32.1-12.3 44.8-5.4 10.4-10.6 20.3-12.4 34.9-1.7 13.3 2.4 22.2 8 34.7 5.8 12.8 13 28.8 14.8 52.7 1.6 20.8-0.7 42-6.8 62.8-1.9 6.6-7.7 10.8-14.1 10.8zM268.5 521.5h-0.2c-8.1-0.1-14.7-6.8-14.6-14.9 0.2-21.7 4.2-42.6 11.7-62.1 8.7-22.3 20.2-35.5 29.5-46.1 9-10.3 15.5-17.7 17.7-30.9 2.5-14.5 0.4-25.5-1.7-37-2.7-14.1-5.4-28.6 1.2-46.4 9.4-25.3 33.8-45.1 72.7-58.9 7.7-2.8 16.1 1.3 18.8 8.9 2.7 7.7-1.3 16.1-8.9 18.8-30.2 10.8-48.7 24.7-54.9 41.4-3.8 10.1-2.1 18.8 0.1 30.7 2.3 12.3 5.2 27.7 1.8 47.5-3.7 21.3-14.3 33.5-24.6 45.3-8.5 9.8-17.4 19.9-24.2 37.4-6.3 16.2-9.5 33.6-9.8 51.8 0 8-6.6 14.5-14.6 14.5z" fill="#4C4848" p-id="1488"></path><path d="M179.8 437c-2.3 0-4.7-0.6-6.9-1.7-7.2-3.8-9.9-12.8-6.1-19.9 10.2-19.2 23.3-35.9 39-49.7 18-15.8 34.3-22.3 47.4-27.4 12.7-5 21.9-8.6 29.9-19.3 8.9-11.8 12.1-22.4 15.5-33.7 4.1-13.7 8.4-27.9 22.5-40.7 20-18.1 50.8-24.5 91.6-18.9 8.1 1.1 13.7 8.5 12.6 16.6-1.1 8.1-8.5 13.7-16.6 12.6-31.8-4.3-54.6-0.5-67.8 11.5-8 7.3-10.5 15.7-14 27.3-3.6 12-8.1 27-20.2 43-13.1 17.3-28.1 23.2-42.6 28.9-12.1 4.8-24.6 9.7-38.7 22.1-13 11.5-23.9 25.4-32.5 41.5-2.7 4.9-7.8 7.8-13.1 7.8zM505.6 924.5c-2.8 0-5.7-0.8-8.3-2.5-4.8-3.3-117.8-80.4-106.6-130.6 2.4-10.6 10.8-24.1 37.2-28.2 8.3-1.3 17-2.4 25.7-3.5 62.2-7.8 103.8-16.7 113.9-67.9 6-30.3-11.4-63.5-31.5-102-10.7-20.5-21.8-41.6-30.3-64.4-2.9-7.6 1-16.1 8.6-19 7.6-2.9 16.1 1 19 8.6 7.9 21.1 18.6 41.4 28.9 61.1 21.7 41.6 42.3 80.8 34.3 121.3-15 75.8-83.8 84.5-139.1 91.4-8.5 1.1-16.8 2.1-24.9 3.4-8.4 1.3-12.6 3.8-13 5.5-3.2 14.4 37.3 61.1 94.3 99.7 6.7 4.6 8.5 13.7 3.9 20.5-2.7 4.3-7.3 6.6-12.1 6.6z" fill="#4C4848" p-id="1489"></path><path d="M603.4 320.6l-85.5 206.7-122.3-289.8z" fill="#F4CA19" p-id="1490"></path><path d="M517.9 542.1c-5.9 0-11.3-3.6-13.6-9L382 243.2c-2.3-5.5-1.1-11.8 3.1-16.1 4.2-4.3 10.5-5.6 16-3.4l207.7 83.1c3.7 1.5 6.6 4.3 8.1 8 1.5 3.6 1.5 7.7 0 11.4L531.6 533c-2.3 5.5-7.7 9.1-13.7 9.1 0.1 0 0 0 0 0zM423 264.3L517.8 489 584 328.7l-161-64.4z" fill="#4C4848" p-id="1491"></path><path d="M603 319.7l207.7 83-122.3-289.8z" fill="#80D4EE" p-id="1492"></path><path d="M810.7 417.5c-1.8 0-3.7-0.3-5.5-1.1l-207.7-83.1c-3.7-1.5-6.6-4.3-8.1-8-1.5-3.6-1.5-7.7 0-11.4l85.4-206.8c2.3-5.5 7.6-9.1 13.6-9.1h0.1c5.9 0 11.3 3.6 13.6 9l122.2 290c2.3 5.5 1.1 11.8-3.1 16.1-2.8 2.8-6.6 4.4-10.5 4.4z m-188.4-106l161.1 64.4-94.8-224.7-66.3 160.3z" fill="#4C4848" p-id="1493"></path><path d="M602.7 320.3L396 234.9l289.8-122.3z" fill="#83DD47" p-id="1494"></path><path d="M602.7 335.1c-1.9 0-3.8-0.4-5.6-1.1l-206.8-85.4c-5.5-2.3-9.1-7.6-9.1-13.6s3.5-11.3 9-13.6L680.1 99c5.5-2.3 11.8-1.1 16.1 3.1 4.2 4.2 5.6 10.5 3.4 16l-83.1 207.7c-1.5 3.7-4.3 6.6-8 8.1-1.9 0.8-3.8 1.2-5.8 1.2zM434.2 234.7L594.6 301 659 139.9l-224.8 94.8z" fill="#4C4848" p-id="1495"></path><path d="M603.6 319.9l-83 207.8 289.8-122.3z" fill="#EE655F" p-id="1496"></path><path d="M520.6 542.4c-3.8 0-7.5-1.5-10.3-4.2-4.2-4.2-5.6-10.5-3.4-16L590 314.5c1.5-3.7 4.3-6.6 8-8.1 3.6-1.5 7.7-1.5 11.4 0L816 391.7c5.5 2.3 9.1 7.6 9.1 13.6s-3.5 11.3-9 13.6L526.3 541.3c-1.8 0.7-3.8 1.1-5.7 1.1z m91.2-203.1l-64.4 161.1 224.7-94.8-160.3-66.3z" fill="#4C4848" p-id="1497"></path></svg>